<?xml version="1.0" encoding="utf-8"?>
<!-- Generator: Adobe Illustrator 24.1.2, SVG Export Plug-In . SVG Version: 6.00 Build 0)  -->
<svg version="1.1" id="Layer_1" xmlns="http://www.w3.org/2000/svg" xmlns:xlink="http://www.w3.org/1999/xlink" x="0px" y="0px"
	 viewBox="0 0 600 309" style="enable-background:new 0 0 600 309;" xml:space="preserve">
<style type="text/css">
	.st0{fill:#777A80;}
	.st1{fill:#F3F3F3;}
	.st2{fill:url(#SVGID_1_);}
	.st3{fill:#FFFFFF;}
	.st4{fill:url(#SVGID_2_);}
	.st5{fill:url(#SVGID_3_);}
</style>
<g>
	<path class="st1" d="M176,196.2l-41.3,0c-6.4,0-11.6,5.2-11.6,11.6v0c0,6.4,5.2,11.6,11.6,11.6l41.3,0c6.4,0,11.6-5.2,11.6-11.6v0
		C187.6,201.4,182.4,196.2,176,196.2z"/>
	<g>
		<path d="M136.1,211.6h-0.9v-7.7h4.9v0.9h-4v2.7h3.7v0.9h-3.7V211.6z"/>
		<path d="M141.2,204.9v-1h1v1H141.2z M142.2,211.6h-0.9V206h0.9V211.6z"/>
		<path d="M146.6,205.9v0.9h-0.2c-0.5,0-0.9,0.2-1.2,0.5c-0.3,0.3-0.4,0.7-0.4,1.3v3h-0.9V206h0.9v1.1c0.2-0.4,0.4-0.7,0.7-0.9
			s0.6-0.3,1-0.3H146.6z"/>
		<path d="M152.4,209H148c0,0.4,0.1,0.7,0.3,1c0.2,0.3,0.4,0.5,0.7,0.7c0.3,0.2,0.6,0.2,0.9,0.2c0.2,0,0.5,0,0.7-0.1
			c0.2-0.1,0.4-0.2,0.6-0.3c0.2-0.1,0.3-0.3,0.3-0.5h0.8c-0.1,0.3-0.2,0.6-0.5,0.8c-0.2,0.2-0.5,0.4-0.9,0.6
			c-0.4,0.1-0.7,0.2-1.1,0.2c-0.5,0-1-0.1-1.4-0.4c-0.4-0.3-0.7-0.6-1-1.1c-0.2-0.4-0.4-1-0.4-1.5c0-0.6,0.1-1.1,0.4-1.5
			c0.2-0.4,0.6-0.8,1-1.1c0.4-0.3,0.9-0.4,1.4-0.4c0.5,0,0.9,0.1,1.3,0.4c0.4,0.3,0.7,0.6,0.9,1.1c0.2,0.4,0.3,1,0.3,1.5V209z
			 M148.6,207c-0.3,0.3-0.5,0.7-0.6,1.2h3.5c-0.1-0.5-0.3-0.9-0.6-1.2c-0.3-0.3-0.7-0.4-1.1-0.4C149.3,206.6,148.9,206.7,148.6,207z
			"/>
		<path d="M157.9,206.2c0.4,0.3,0.7,0.6,1,1.1c0.2,0.4,0.4,1,0.4,1.5s-0.1,1.1-0.4,1.5c-0.2,0.4-0.6,0.8-1,1.1
			c-0.4,0.3-0.9,0.4-1.4,0.4c-0.4,0-0.8-0.1-1.2-0.3s-0.6-0.5-0.8-0.8v0.9h-0.8V206h0v-2.1h0.9l0,3c0.2-0.3,0.5-0.6,0.8-0.8
			c0.3-0.2,0.7-0.3,1.2-0.3C157,205.8,157.5,206,157.9,206.2z M157.4,210.6c0.3-0.2,0.5-0.4,0.7-0.8s0.2-0.7,0.2-1.1
			s-0.1-0.8-0.2-1.1s-0.4-0.6-0.7-0.8c-0.3-0.2-0.6-0.3-1-0.3c-0.4,0-0.7,0.1-1,0.3s-0.5,0.4-0.7,0.8s-0.2,0.7-0.2,1.1
			s0.1,0.8,0.2,1.1s0.4,0.6,0.7,0.8s0.6,0.3,1,0.3C156.8,210.9,157.1,210.8,157.4,210.6z"/>
		<path d="M163.7,206.1c0.3,0.2,0.6,0.4,0.7,0.7c0.2,0.3,0.3,0.7,0.3,1.1v3.8h-0.9v-0.8c-0.2,0.3-0.4,0.6-0.7,0.7
			c-0.3,0.2-0.7,0.2-1.2,0.2c-0.4,0-0.7-0.1-1-0.2s-0.5-0.3-0.7-0.6c-0.2-0.2-0.2-0.5-0.2-0.8c0-0.3,0.1-0.6,0.2-0.8
			c0.1-0.2,0.4-0.4,0.6-0.6c0.3-0.2,0.6-0.3,0.9-0.3l1.6-0.2c0.1,0,0.2-0.1,0.3-0.2c0.1-0.1,0.1-0.2,0.1-0.4c0-0.2-0.1-0.4-0.2-0.6
			s-0.3-0.3-0.5-0.4c-0.2-0.1-0.4-0.1-0.7-0.1c-0.2,0-0.5,0-0.7,0.1c-0.2,0.1-0.4,0.2-0.5,0.3c-0.1,0.1-0.2,0.3-0.2,0.5h-0.9
			c0-0.3,0.2-0.6,0.4-0.9c0.2-0.3,0.5-0.5,0.8-0.6c0.3-0.2,0.7-0.2,1.1-0.2C163,205.8,163.4,205.9,163.7,206.1z M163,210.8
			c0.3-0.1,0.5-0.3,0.6-0.6c0.1-0.2,0.2-0.5,0.2-0.8v-0.6l-1.9,0.2c-0.3,0-0.5,0.1-0.7,0.3c-0.2,0.2-0.3,0.4-0.3,0.7
			c0,0.2,0,0.4,0.1,0.5c0.1,0.1,0.2,0.3,0.4,0.3c0.2,0.1,0.4,0.1,0.6,0.1C162.4,211,162.7,211,163,210.8z"/>
		<path d="M166.9,211.5c-0.3-0.1-0.6-0.3-0.8-0.6c-0.2-0.3-0.3-0.5-0.3-0.9h0.9c0,0.2,0.1,0.4,0.2,0.5c0.1,0.1,0.3,0.3,0.5,0.3
			c0.2,0.1,0.5,0.1,0.7,0.1c0.4,0,0.7-0.1,1-0.3s0.3-0.4,0.3-0.7c0-0.2-0.1-0.4-0.2-0.6s-0.3-0.2-0.6-0.3l-1-0.2
			c-0.5-0.1-0.9-0.3-1.1-0.5c-0.3-0.3-0.4-0.6-0.4-1c0-0.3,0.1-0.6,0.3-0.8s0.4-0.4,0.7-0.6s0.7-0.2,1.1-0.2c0.4,0,0.8,0.1,1.1,0.2
			c0.3,0.1,0.6,0.3,0.8,0.6c0.2,0.2,0.3,0.5,0.3,0.8h-0.9c0-0.2-0.1-0.3-0.2-0.4c-0.1-0.1-0.3-0.2-0.5-0.3s-0.4-0.1-0.6-0.1
			c-0.2,0-0.4,0-0.6,0.1c-0.2,0.1-0.3,0.2-0.4,0.3c-0.1,0.1-0.2,0.3-0.2,0.4c0,0.2,0.1,0.4,0.2,0.5c0.1,0.1,0.3,0.2,0.6,0.3l1.1,0.2
			c0.5,0.1,0.9,0.3,1.2,0.6c0.3,0.3,0.4,0.7,0.4,1.1c0,0.3-0.1,0.6-0.3,0.9c-0.2,0.3-0.4,0.5-0.7,0.6c-0.3,0.1-0.7,0.2-1.1,0.2
			C167.6,211.7,167.2,211.6,166.9,211.5z"/>
		<path d="M176.4,209h-4.5c0,0.4,0.1,0.7,0.3,1c0.2,0.3,0.4,0.5,0.7,0.7c0.3,0.2,0.6,0.2,0.9,0.2c0.2,0,0.5,0,0.7-0.1
			c0.2-0.1,0.4-0.2,0.6-0.3c0.2-0.1,0.3-0.3,0.3-0.5h0.8c-0.1,0.3-0.2,0.6-0.5,0.8c-0.2,0.2-0.5,0.4-0.9,0.6
			c-0.4,0.1-0.7,0.2-1.1,0.2c-0.5,0-1-0.1-1.4-0.4c-0.4-0.3-0.7-0.6-1-1.1c-0.2-0.4-0.4-1-0.4-1.5c0-0.6,0.1-1.1,0.4-1.5
			c0.2-0.4,0.6-0.8,1-1.1c0.4-0.3,0.9-0.4,1.4-0.4c0.5,0,0.9,0.1,1.3,0.4c0.4,0.3,0.7,0.6,0.9,1.1c0.2,0.4,0.3,1,0.3,1.5V209z
			 M172.6,207c-0.3,0.3-0.5,0.7-0.6,1.2h3.5c-0.1-0.5-0.3-0.9-0.6-1.2c-0.3-0.3-0.7-0.4-1.1-0.4C173.3,206.6,172.9,206.7,172.6,207z
			"/>
	</g>
	<g>
		<path class="st1" d="M415.5,81H137.1c-7.7,0-14,6.3-14,14v84.5c0,7.7,6.3,14,14,14l278.4,0c7.7,0,14-6.3,14-14V95
			C429.5,87.2,423.2,81,415.5,81z"/>
	</g>
	<g>
		<path d="M267.9,141.3h-0.9v-7.7h0.9v3.6l3.6-3.6h1.2l-3.7,3.7l3.8,4h-1.2l-3.6-3.8V141.3z"/>
		<path d="M275.2,141.3c-0.4,0-0.7-0.1-1-0.3s-0.4-0.5-0.4-0.9l0-3.6h-1l0-0.8h0.6c0.1,0,0.3,0,0.3-0.1c0.1-0.1,0.1-0.2,0.1-0.3
			v-0.9h0.8v1.4h1.4l0,0.8h-1.4l0,3.6c0,0.2,0,0.3,0.1,0.4c0.1,0.1,0.2,0.1,0.4,0.1h0.9v0.8H275.2z"/>
		<path d="M278.3,141c-0.4-0.3-0.8-0.6-1-1.1c-0.2-0.4-0.4-1-0.4-1.5s0.1-1.1,0.4-1.5c0.2-0.4,0.6-0.8,1-1.1
			c0.4-0.3,0.9-0.4,1.5-0.4c0.5,0,1,0.1,1.5,0.4c0.4,0.3,0.8,0.6,1,1.1c0.2,0.4,0.4,1,0.4,1.5s-0.1,1.1-0.4,1.5
			c-0.2,0.4-0.6,0.8-1,1.1s-0.9,0.4-1.5,0.4C279.2,141.4,278.8,141.3,278.3,141z M280.8,140.3c0.3-0.2,0.5-0.4,0.7-0.8
			s0.2-0.7,0.2-1.1s-0.1-0.8-0.2-1.1s-0.4-0.6-0.7-0.8c-0.3-0.2-0.6-0.3-1-0.3s-0.7,0.1-1,0.3c-0.3,0.2-0.5,0.4-0.7,0.8
			c-0.2,0.3-0.2,0.7-0.2,1.1s0.1,0.8,0.2,1.1c0.2,0.3,0.4,0.6,0.7,0.8c0.3,0.2,0.6,0.3,1,0.3S280.5,140.5,280.8,140.3z"/>
		<path d="M286.6,135.6v0.9h-0.2c-0.5,0-0.9,0.2-1.2,0.5c-0.3,0.3-0.4,0.7-0.4,1.3v3h-0.9v-5.6h0.9v1.1c0.2-0.4,0.4-0.7,0.7-0.9
			s0.6-0.3,1-0.3H286.6z"/>
	</g>
	<g>
		<g>
			<path class="st1" d="M224.8,30.2h-87.7c-7.7,0-14,6.3-14,14v19.9c0,7.7,6.3,14,14,14l87.7,0c7.7,0,14-6.3,14-14V44.2
				C238.8,36.5,232.5,30.2,224.8,30.2z"/>
		</g>
	</g>
	<g>
		<g>
			<path d="M167.1,58.3h-0.9v-7.7h0.9v3.6l3.6-3.6h1.2l-3.7,3.7l3.8,4h-1.2l-3.6-3.8V58.3z"/>
			<path d="M173.4,58c-0.4-0.3-0.8-0.6-1-1.1c-0.2-0.4-0.4-1-0.4-1.5s0.1-1.1,0.4-1.5c0.2-0.4,0.6-0.8,1-1.1
				c0.4-0.3,0.9-0.4,1.5-0.4c0.5,0,1,0.1,1.5,0.4c0.4,0.3,0.8,0.6,1,1.1c0.2,0.4,0.4,1,0.4,1.5s-0.1,1.1-0.4,1.5
				c-0.2,0.4-0.6,0.8-1,1.1s-0.9,0.4-1.5,0.4C174.3,58.4,173.8,58.3,173.4,58z M175.8,57.3c0.3-0.2,0.5-0.4,0.7-0.8s0.2-0.7,0.2-1.1
				s-0.1-0.8-0.2-1.1s-0.4-0.6-0.7-0.8c-0.3-0.2-0.6-0.3-1-0.3s-0.7,0.1-1,0.3c-0.3,0.2-0.5,0.4-0.7,0.8c-0.2,0.3-0.2,0.7-0.2,1.1
				s0.1,0.8,0.2,1.1c0.2,0.3,0.4,0.6,0.7,0.8c0.3,0.2,0.6,0.3,1,0.3S175.5,57.5,175.8,57.3z"/>
			<path d="M180.4,58.3c-0.4,0-0.7-0.1-1-0.3s-0.4-0.5-0.4-0.9l0-3.6h-1l0-0.8h0.6c0.1,0,0.3,0,0.3-0.1c0.1-0.1,0.1-0.2,0.1-0.3
				v-0.9h0.8v1.4h1.4l0,0.8H180l0,3.6c0,0.2,0,0.3,0.1,0.4c0.1,0.1,0.2,0.1,0.4,0.1h0.9v0.8H180.4z"/>
			<path d="M187.5,55.7H183c0,0.4,0.1,0.7,0.3,1c0.2,0.3,0.4,0.5,0.7,0.7c0.3,0.2,0.6,0.2,0.9,0.2c0.2,0,0.5,0,0.7-0.1
				c0.2-0.1,0.4-0.2,0.6-0.3c0.2-0.1,0.3-0.3,0.3-0.5h0.8c-0.1,0.3-0.2,0.6-0.5,0.8c-0.2,0.2-0.5,0.4-0.9,0.6
				c-0.4,0.1-0.7,0.2-1.1,0.2c-0.5,0-1-0.1-1.4-0.4c-0.4-0.3-0.7-0.6-1-1.1c-0.2-0.4-0.4-1-0.4-1.5c0-0.6,0.1-1.1,0.4-1.5
				c0.2-0.4,0.6-0.8,1-1.1c0.4-0.3,0.9-0.4,1.4-0.4c0.5,0,0.9,0.1,1.3,0.4c0.4,0.3,0.7,0.6,0.9,1.1c0.2,0.4,0.3,1,0.3,1.5V55.7z
				 M183.7,53.7c-0.3,0.3-0.5,0.7-0.6,1.2h3.5c-0.1-0.5-0.3-0.9-0.6-1.2c-0.3-0.3-0.7-0.4-1.1-0.4C184.4,53.3,184,53.4,183.7,53.7z"
				/>
			<path d="M189.4,58.2c-0.3-0.1-0.6-0.3-0.8-0.6c-0.2-0.3-0.3-0.5-0.3-0.9h0.9c0,0.2,0.1,0.4,0.2,0.5c0.1,0.1,0.3,0.3,0.5,0.3
				c0.2,0.1,0.5,0.1,0.7,0.1c0.4,0,0.7-0.1,1-0.3s0.3-0.4,0.3-0.7c0-0.2-0.1-0.4-0.2-0.6s-0.3-0.2-0.6-0.3l-1-0.2
				c-0.5-0.1-0.9-0.3-1.1-0.5c-0.3-0.3-0.4-0.6-0.4-1c0-0.3,0.1-0.6,0.3-0.8s0.4-0.4,0.7-0.6s0.7-0.2,1.1-0.2c0.4,0,0.8,0.1,1.1,0.2
				c0.3,0.1,0.6,0.3,0.8,0.6c0.2,0.2,0.3,0.5,0.3,0.8h-0.9c0-0.2-0.1-0.3-0.2-0.4c-0.1-0.1-0.3-0.2-0.5-0.3s-0.4-0.1-0.6-0.1
				c-0.2,0-0.4,0-0.6,0.1c-0.2,0.1-0.3,0.2-0.4,0.3c-0.1,0.1-0.2,0.3-0.2,0.4c0,0.2,0.1,0.4,0.2,0.5c0.1,0.1,0.3,0.2,0.6,0.3
				l1.1,0.2c0.5,0.1,0.9,0.3,1.2,0.6c0.3,0.3,0.4,0.7,0.4,1.1c0,0.3-0.1,0.6-0.3,0.9c-0.2,0.3-0.4,0.5-0.7,0.6
				c-0.3,0.1-0.7,0.2-1.1,0.2C190.1,58.4,189.7,58.3,189.4,58.2z"/>
			<path d="M195.5,58.3c-0.4,0-0.7-0.1-1-0.3s-0.4-0.5-0.4-0.9l0-3.6h-1l0-0.8h0.6c0.1,0,0.3,0,0.3-0.1c0.1-0.1,0.1-0.2,0.1-0.3
				v-0.9h0.8v1.4h1.4l0,0.8H195l0,3.6c0,0.2,0,0.3,0.1,0.4c0.1,0.1,0.2,0.1,0.4,0.1h0.9v0.8H195.5z"/>
		</g>
	</g>
	<g>
		<g>
			<path class="st1" d="M585.6,147.1H446.2c-7.7,0-14,6.3-14,14v62.2c0,7.7,6.3,14,14,14h139.4c7.7,0,14-6.3,14-14v-62.2
				C599.6,153.4,593.4,147.1,585.6,147.1z"/>
		</g>
	</g>
	<g>
		<g>
			<path class="st1" d="M415.5,0L255.6,0c-7.7,0-14,6.3-14,14v50.1c0,7.7,6.3,14,14,14l159.9,0c7.7,0,14-6.3,14-14V14
				C429.5,6.3,423.2,0,415.5,0z"/>
		</g>
	</g>
	<g>
		<g>
			<path d="M326.6,43.2h-0.9v-7.7h0.9v3.6l3.6-3.6h1.2l-3.7,3.7l3.8,4h-1.2l-3.6-3.8V43.2z"/>
			<path d="M332.9,42.9c-0.4-0.3-0.8-0.6-1-1.1c-0.2-0.4-0.4-1-0.4-1.5s0.1-1.1,0.4-1.5c0.2-0.4,0.6-0.8,1-1.1
				c0.4-0.3,0.9-0.4,1.5-0.4c0.5,0,1,0.1,1.5,0.4c0.4,0.3,0.8,0.6,1,1.1c0.2,0.4,0.4,1,0.4,1.5s-0.1,1.1-0.4,1.5
				c-0.2,0.4-0.6,0.8-1,1.1s-0.9,0.4-1.5,0.4C333.8,43.3,333.3,43.2,332.9,42.9z M335.3,42.2c0.3-0.2,0.5-0.4,0.7-0.8
				s0.2-0.7,0.2-1.1s-0.1-0.8-0.2-1.1s-0.4-0.6-0.7-0.8c-0.3-0.2-0.6-0.3-1-0.3s-0.7,0.1-1,0.3c-0.3,0.2-0.5,0.4-0.7,0.8
				c-0.2,0.3-0.2,0.7-0.2,1.1s0.1,0.8,0.2,1.1c0.2,0.3,0.4,0.6,0.7,0.8c0.3,0.2,0.6,0.3,1,0.3S335,42.4,335.3,42.2z"/>
			<path d="M338.3,36.5v-1h1v1H338.3z M339.2,43.2h-0.9v-5.6h0.9V43.2z"/>
			<path d="M344.7,37.7c0.3,0.2,0.6,0.4,0.7,0.8c0.2,0.3,0.3,0.7,0.3,1.2v3.6h-0.9v-3.5c0-0.5-0.1-0.9-0.4-1.1
				c-0.2-0.3-0.6-0.4-1-0.4c-0.3,0-0.6,0.1-0.8,0.2c-0.2,0.1-0.4,0.3-0.6,0.6c-0.1,0.2-0.2,0.5-0.2,0.9v3.4h-0.9v-5.6h0.8v0.9
				c0.2-0.3,0.4-0.6,0.7-0.7c0.3-0.2,0.7-0.3,1.1-0.3C344,37.4,344.4,37.5,344.7,37.7z"/>
		</g>
	</g>
	<path class="st1" d="M176,222.2l-41.3,0c-6.4,0-11.6,5.2-11.6,11.6v0c0,6.4,5.2,11.6,11.6,11.6l41.3,0c6.4,0,11.6-5.2,11.6-11.6v0
		C187.6,227.4,182.4,222.2,176,222.2z"/>
	<g>
		<path d="M146.1,233.2c-0.2,0.3-0.4,0.6-0.7,0.8c-0.3,0.2-0.7,0.3-1.1,0.4l2,3.3h-1l-2-3.2h-1.6v3.2h-0.9v-7.7h3.1
			c0.5,0,0.9,0.1,1.3,0.3c0.4,0.2,0.7,0.4,0.9,0.8c0.2,0.3,0.3,0.7,0.3,1.2C146.4,232.5,146.3,232.9,146.1,233.2z M141.8,230.7v2.8
			h2.2c0.3,0,0.6-0.1,0.8-0.2c0.2-0.1,0.4-0.3,0.5-0.5c0.1-0.2,0.2-0.5,0.2-0.7c0-0.3-0.1-0.5-0.2-0.7c-0.1-0.2-0.3-0.4-0.5-0.5
			c-0.2-0.1-0.5-0.2-0.8-0.2H141.8z"/>
		<path d="M152.4,235h-4.5c0,0.4,0.1,0.7,0.3,1c0.2,0.3,0.4,0.5,0.7,0.7c0.3,0.2,0.6,0.2,0.9,0.2c0.2,0,0.5,0,0.7-0.1
			c0.2-0.1,0.4-0.2,0.6-0.3c0.2-0.1,0.3-0.3,0.3-0.5h0.8c-0.1,0.3-0.2,0.6-0.5,0.8c-0.2,0.2-0.5,0.4-0.9,0.6
			c-0.4,0.1-0.7,0.2-1.1,0.2c-0.5,0-1-0.1-1.4-0.4c-0.4-0.3-0.7-0.6-1-1.1c-0.2-0.4-0.4-1-0.4-1.5c0-0.6,0.1-1.1,0.4-1.5
			c0.2-0.4,0.6-0.8,1-1.1c0.4-0.3,0.9-0.4,1.4-0.4c0.5,0,0.9,0.1,1.3,0.4c0.4,0.3,0.7,0.6,0.9,1.1c0.2,0.4,0.3,1,0.3,1.5V235z
			 M148.5,233c-0.3,0.3-0.5,0.7-0.6,1.2h3.5c-0.1-0.5-0.3-0.9-0.6-1.2c-0.3-0.3-0.7-0.4-1.1-0.4C149.3,232.6,148.9,232.7,148.5,233z
			"/>
		<path d="M156.8,232.1c0.3,0.2,0.6,0.4,0.7,0.7c0.2,0.3,0.3,0.7,0.3,1.1v3.8H157v-0.8c-0.2,0.3-0.4,0.6-0.7,0.7
			c-0.3,0.2-0.7,0.2-1.2,0.2c-0.4,0-0.7-0.1-1-0.2s-0.5-0.3-0.7-0.6c-0.2-0.2-0.2-0.5-0.2-0.8c0-0.3,0.1-0.6,0.2-0.8
			c0.1-0.2,0.4-0.4,0.6-0.6c0.3-0.2,0.6-0.3,0.9-0.3l1.6-0.2c0.1,0,0.2-0.1,0.3-0.2c0.1-0.1,0.1-0.2,0.1-0.4c0-0.2-0.1-0.4-0.2-0.6
			s-0.3-0.3-0.5-0.4c-0.2-0.1-0.4-0.1-0.7-0.1c-0.2,0-0.5,0-0.7,0.1c-0.2,0.1-0.4,0.2-0.5,0.3c-0.1,0.1-0.2,0.3-0.2,0.5h-0.9
			c0-0.3,0.2-0.6,0.4-0.9c0.2-0.3,0.5-0.5,0.8-0.6c0.3-0.2,0.7-0.2,1.1-0.2C156.1,231.8,156.5,231.9,156.8,232.1z M156.1,236.8
			c0.3-0.1,0.5-0.3,0.6-0.6c0.1-0.2,0.2-0.5,0.2-0.8v-0.6L155,235c-0.3,0-0.5,0.1-0.7,0.3c-0.2,0.2-0.3,0.4-0.3,0.7
			c0,0.2,0,0.4,0.1,0.5c0.1,0.1,0.2,0.3,0.4,0.3c0.2,0.1,0.4,0.1,0.6,0.1C155.6,237,155.9,237,156.1,236.8z"/>
		<path d="M160.3,237.6h-0.9v-7.7h0.9V237.6z"/>
		<path d="M169.3,232.1c0.3,0.2,0.5,0.4,0.7,0.8c0.2,0.3,0.2,0.7,0.2,1.2v3.6h-0.9v-3.5c0-0.5-0.1-0.8-0.3-1.1
			c-0.2-0.3-0.5-0.4-1-0.4c-0.3,0-0.6,0.1-0.8,0.2c-0.2,0.1-0.4,0.4-0.5,0.6c-0.1,0.3-0.2,0.6-0.2,1v3.2h-0.9v-3.5
			c0-0.5-0.1-0.8-0.4-1.1c-0.2-0.3-0.6-0.4-1-0.4c-0.3,0-0.6,0.1-0.8,0.2c-0.2,0.1-0.4,0.4-0.5,0.6c-0.1,0.3-0.2,0.6-0.2,1v3.2h-0.9
			V232h0.8v0.8c0.2-0.3,0.4-0.5,0.7-0.7c0.3-0.2,0.6-0.3,1-0.3c0.4,0,0.8,0.1,1.1,0.3c0.3,0.2,0.6,0.5,0.7,0.8
			c0.2-0.4,0.4-0.6,0.8-0.8c0.3-0.2,0.7-0.3,1.1-0.3C168.6,231.8,169,231.9,169.3,232.1z"/>
	</g>
	<g>
		<path class="st1" d="M108.7,54.9l-41.3,0c-6.4,0-11.6,5.2-11.6,11.6v0c0,6.4,5.2,11.6,11.6,11.6l41.3,0c6.4,0,11.6-5.2,11.6-11.6
			v0C120.3,60.1,115.1,54.9,108.7,54.9z"/>
		<g>
			<path d="M73.5,65.9c-0.2,0.3-0.4,0.6-0.7,0.8c-0.3,0.2-0.7,0.3-1.1,0.4l2,3.3h-1l-2-3.2h-1.6v3.2h-0.9v-7.7h3.1
				c0.5,0,0.9,0.1,1.3,0.3c0.4,0.2,0.7,0.4,0.9,0.8c0.2,0.3,0.3,0.7,0.3,1.2C73.7,65.2,73.6,65.6,73.5,65.9z M69.1,63.4v2.8h2.2
				c0.3,0,0.6-0.1,0.8-0.2c0.2-0.1,0.4-0.3,0.5-0.5c0.1-0.2,0.2-0.5,0.2-0.7c0-0.3-0.1-0.5-0.2-0.7c-0.1-0.2-0.3-0.4-0.5-0.5
				c-0.2-0.1-0.5-0.2-0.8-0.2H69.1z"/>
			<path d="M79.7,67.7h-4.5c0,0.4,0.1,0.7,0.3,1c0.2,0.3,0.4,0.5,0.7,0.7c0.3,0.2,0.6,0.2,0.9,0.2c0.2,0,0.5,0,0.7-0.1
				c0.2-0.1,0.4-0.2,0.6-0.3c0.2-0.1,0.3-0.3,0.3-0.5h0.8c-0.1,0.3-0.2,0.6-0.5,0.8c-0.2,0.2-0.5,0.4-0.9,0.6
				c-0.4,0.1-0.7,0.2-1.1,0.2c-0.5,0-1-0.1-1.4-0.4c-0.4-0.3-0.7-0.6-1-1.1c-0.2-0.4-0.4-1-0.4-1.5c0-0.6,0.1-1.1,0.4-1.5
				c0.2-0.4,0.6-0.8,1-1.1c0.4-0.3,0.9-0.4,1.4-0.4c0.5,0,0.9,0.1,1.3,0.4c0.4,0.3,0.7,0.6,0.9,1.1c0.2,0.4,0.3,1,0.3,1.5V67.7z
				 M75.9,65.8c-0.3,0.3-0.5,0.7-0.6,1.2h3.5c-0.1-0.5-0.3-0.9-0.6-1.2c-0.3-0.3-0.7-0.4-1.1-0.4C76.6,65.3,76.2,65.5,75.9,65.8z"/>
			<path d="M84.2,64.8c0.3,0.2,0.6,0.4,0.7,0.7c0.2,0.3,0.3,0.7,0.3,1.1v3.8h-0.9v-0.8c-0.2,0.3-0.4,0.6-0.7,0.7
				c-0.3,0.2-0.7,0.2-1.2,0.2c-0.4,0-0.7-0.1-1-0.2s-0.5-0.3-0.7-0.6c-0.2-0.2-0.2-0.5-0.2-0.8c0-0.3,0.1-0.6,0.2-0.8
				c0.1-0.2,0.4-0.4,0.6-0.6c0.3-0.2,0.6-0.3,0.9-0.3l1.6-0.2c0.1,0,0.2-0.1,0.3-0.2c0.1-0.1,0.1-0.2,0.1-0.4c0-0.2-0.1-0.4-0.2-0.6
				s-0.3-0.3-0.5-0.4c-0.2-0.1-0.4-0.1-0.7-0.1c-0.2,0-0.5,0-0.7,0.1c-0.2,0.1-0.4,0.2-0.5,0.3c-0.1,0.1-0.2,0.3-0.2,0.5h-0.9
				c0-0.3,0.2-0.6,0.4-0.9c0.2-0.3,0.5-0.5,0.8-0.6c0.3-0.2,0.7-0.2,1.1-0.2C83.5,64.5,83.9,64.6,84.2,64.8z M83.5,69.5
				c0.3-0.1,0.5-0.3,0.6-0.6c0.1-0.2,0.2-0.5,0.2-0.8v-0.6l-1.9,0.2c-0.3,0-0.5,0.1-0.7,0.3c-0.2,0.2-0.3,0.4-0.3,0.7
				c0,0.2,0,0.4,0.1,0.5c0.1,0.1,0.2,0.3,0.4,0.3c0.2,0.1,0.4,0.1,0.6,0.1C82.9,69.7,83.2,69.7,83.5,69.5z"/>
			<path d="M87.6,70.3h-0.9v-7.7h0.9v4.7l2.5-2.6h1.1l-2.6,2.7l2.7,3h-1.1l-2.6-2.8V70.3z"/>
			<path d="M93.6,70.3c-0.4,0-0.7-0.1-1-0.3s-0.4-0.5-0.4-0.9l0-3.6h-1l0-0.8h0.6c0.1,0,0.3,0,0.3-0.1c0.1-0.1,0.1-0.2,0.1-0.3v-0.9
				h0.8v1.4h1.4l0,0.8h-1.4l0,3.6c0,0.2,0,0.3,0.1,0.4c0.1,0.1,0.2,0.1,0.4,0.1h0.9v0.8H93.6z"/>
			<path d="M95.7,63.6v-1h1v1H95.7z M96.7,70.3h-0.9v-5.6h0.9V70.3z"/>
			<path d="M100.8,70.3h-0.9l-2.2-5.6h1l1.7,4.6l1.7-4.6h0.9L100.8,70.3z"/>
			<path d="M108.8,67.7h-4.5c0,0.4,0.1,0.7,0.3,1c0.2,0.3,0.4,0.5,0.7,0.7c0.3,0.2,0.6,0.2,0.9,0.2c0.2,0,0.5,0,0.7-0.1
				c0.2-0.1,0.4-0.2,0.6-0.3c0.2-0.1,0.3-0.3,0.3-0.5h0.8c-0.1,0.3-0.2,0.6-0.5,0.8c-0.2,0.2-0.5,0.4-0.9,0.6
				c-0.4,0.1-0.7,0.2-1.1,0.2c-0.5,0-1-0.1-1.4-0.4c-0.4-0.3-0.7-0.6-1-1.1c-0.2-0.4-0.4-1-0.4-1.5c0-0.6,0.1-1.1,0.4-1.5
				c0.2-0.4,0.6-0.8,1-1.1c0.4-0.3,0.9-0.4,1.4-0.4c0.5,0,0.9,0.1,1.3,0.4c0.4,0.3,0.7,0.6,0.9,1.1c0.2,0.4,0.3,1,0.3,1.5V67.7z
				 M104.9,65.8c-0.3,0.3-0.5,0.7-0.6,1.2h3.5c-0.1-0.5-0.3-0.9-0.6-1.2c-0.3-0.3-0.7-0.4-1.1-0.4C105.7,65.3,105.3,65.5,104.9,65.8
				z"/>
		</g>
	</g>
	<g>
		<g>
			<path class="st1" d="M106.3,81H14C6.3,81,0,87.2,0,95l0,33.7c0,7.7,6.3,14,14,14l92.3,0c7.7,0,14-6.3,14-14V95
				C120.3,87.2,114,81,106.3,81z"/>
		</g>
	</g>
	<path class="st1" d="M106.3,145.4H28.2c-7.7,0-14,6.3-14,14v20.1c0,7.7,6.3,14,14,14l78.1,0c7.7,0,14-6.3,14-14v-20.1
		C120.3,151.7,114.1,145.4,106.3,145.4z"/>
	<g>
		<path d="M50.5,173.5h-1l2.8-7.7h1.1l2.9,7.7h-1l-0.7-2h-3.4L50.5,173.5z M52.7,167.1l-1.2,3.7h2.8l-1.3-3.7l-0.1-0.5L52.7,167.1z"
			/>
		<path d="M61.5,168.2c0.4,0.3,0.7,0.6,1,1.1c0.2,0.4,0.4,1,0.4,1.5s-0.1,1.1-0.4,1.5c-0.2,0.4-0.6,0.8-1,1.1
			c-0.4,0.3-0.9,0.4-1.4,0.4c-0.4,0-0.8-0.1-1.2-0.3s-0.6-0.5-0.8-0.8v0.4l0,2.4h-0.9v-7.4h0.8v1c0.2-0.3,0.5-0.6,0.8-0.8
			s0.7-0.3,1.2-0.3C60.6,167.8,61.1,167.9,61.5,168.2z M61,172.6c0.3-0.2,0.5-0.4,0.7-0.8s0.2-0.7,0.2-1.1s-0.1-0.8-0.2-1.1
			s-0.4-0.6-0.7-0.8c-0.3-0.2-0.6-0.3-1-0.3c-0.4,0-0.7,0.1-1,0.3s-0.5,0.4-0.7,0.8s-0.2,0.7-0.2,1.1s0.1,0.8,0.2,1.1
			s0.4,0.6,0.7,0.8s0.6,0.3,1,0.3C60.4,172.9,60.7,172.8,61,172.6z"/>
		<path d="M68.3,168.2c0.4,0.3,0.7,0.6,1,1.1c0.2,0.4,0.4,1,0.4,1.5s-0.1,1.1-0.4,1.5c-0.2,0.4-0.6,0.8-1,1.1
			c-0.4,0.3-0.9,0.4-1.4,0.4c-0.4,0-0.8-0.1-1.2-0.3s-0.6-0.5-0.8-0.8v0.4l0,2.4h-0.9v-7.4h0.8v1c0.2-0.3,0.5-0.6,0.8-0.8
			s0.7-0.3,1.2-0.3C67.4,167.8,67.9,167.9,68.3,168.2z M67.8,172.6c0.3-0.2,0.5-0.4,0.7-0.8s0.2-0.7,0.2-1.1s-0.1-0.8-0.2-1.1
			s-0.4-0.6-0.7-0.8c-0.3-0.2-0.6-0.3-1-0.3c-0.4,0-0.7,0.1-1,0.3s-0.5,0.4-0.7,0.8s-0.2,0.7-0.2,1.1s0.1,0.8,0.2,1.1
			s0.4,0.6,0.7,0.8s0.6,0.3,1,0.3C67.2,172.9,67.5,172.8,67.8,172.6z"/>
		<path d="M71.8,173.3c-0.4-0.3-0.8-0.6-1-1.1c-0.2-0.4-0.4-1-0.4-1.5s0.1-1.1,0.4-1.5c0.2-0.4,0.6-0.8,1-1.1
			c0.4-0.3,0.9-0.4,1.5-0.4c0.5,0,1,0.1,1.5,0.4c0.4,0.3,0.8,0.6,1,1.1c0.2,0.4,0.4,1,0.4,1.5s-0.1,1.1-0.4,1.5
			c-0.2,0.4-0.6,0.8-1,1.1s-0.9,0.4-1.5,0.4C72.7,173.7,72.2,173.6,71.8,173.3z M74.2,172.6c0.3-0.2,0.5-0.4,0.7-0.8
			s0.2-0.7,0.2-1.1s-0.1-0.8-0.2-1.1s-0.4-0.6-0.7-0.8c-0.3-0.2-0.6-0.3-1-0.3s-0.7,0.1-1,0.3c-0.3,0.2-0.5,0.4-0.7,0.8
			c-0.2,0.3-0.2,0.7-0.2,1.1s0.1,0.8,0.2,1.1c0.2,0.3,0.4,0.6,0.7,0.8c0.3,0.2,0.6,0.3,1,0.3S73.9,172.8,74.2,172.6z"/>
		<path d="M78.1,173.5h-0.9v-7.7h0.9V173.5z"/>
		<path d="M80.7,173.3c-0.4-0.3-0.8-0.6-1-1.1c-0.2-0.4-0.4-1-0.4-1.5s0.1-1.1,0.4-1.5c0.2-0.4,0.6-0.8,1-1.1
			c0.4-0.3,0.9-0.4,1.5-0.4c0.5,0,1,0.1,1.5,0.4c0.4,0.3,0.8,0.6,1,1.1c0.2,0.4,0.4,1,0.4,1.5s-0.1,1.1-0.4,1.5
			c-0.2,0.4-0.6,0.8-1,1.1s-0.9,0.4-1.5,0.4C81.6,173.7,81.2,173.6,80.7,173.3z M83.2,172.6c0.3-0.2,0.5-0.4,0.7-0.8
			s0.2-0.7,0.2-1.1s-0.1-0.8-0.2-1.1s-0.4-0.6-0.7-0.8c-0.3-0.2-0.6-0.3-1-0.3s-0.7,0.1-1,0.3c-0.3,0.2-0.5,0.4-0.7,0.8
			c-0.2,0.3-0.2,0.7-0.2,1.1s0.1,0.8,0.2,1.1c0.2,0.3,0.4,0.6,0.7,0.8c0.3,0.2,0.6,0.3,1,0.3S82.9,172.8,83.2,172.6z"/>
	</g>
	<g>
		<path class="st1" d="M311.9,196.2H204.4c-7.7,0-14,6.3-14,14v21.2c0,7.7,6.3,14,14,14l107.5,0c7.7,0,14-6.3,14-14v-21.2
			C325.9,202.5,319.6,196.2,311.9,196.2z"/>
	</g>
	<g>
		<g>
			<path d="M231.6,224.8c-0.4-0.2-0.7-0.5-1-0.8s-0.3-0.7-0.3-1.2h0.9c0,0.3,0.1,0.5,0.2,0.8c0.1,0.2,0.4,0.4,0.6,0.5
				c0.3,0.1,0.6,0.2,0.9,0.2c0.3,0,0.6-0.1,0.9-0.2c0.3-0.1,0.5-0.3,0.6-0.5c0.1-0.2,0.2-0.5,0.2-0.7c0-0.3-0.1-0.6-0.3-0.8
				c-0.2-0.2-0.5-0.4-0.8-0.5l-1.4-0.3c-0.4-0.1-0.7-0.2-0.9-0.4c-0.3-0.2-0.5-0.4-0.6-0.7c-0.1-0.3-0.2-0.6-0.2-0.9
				c0-0.4,0.1-0.8,0.3-1.1c0.2-0.3,0.5-0.6,0.9-0.7c0.4-0.2,0.8-0.3,1.3-0.3c0.5,0,0.9,0.1,1.3,0.3c0.4,0.2,0.7,0.4,0.9,0.8
				s0.3,0.7,0.3,1.1h-0.9c0-0.3-0.1-0.5-0.2-0.7c-0.1-0.2-0.3-0.4-0.6-0.5c-0.2-0.1-0.5-0.2-0.8-0.2c-0.3,0-0.6,0.1-0.8,0.2
				c-0.2,0.1-0.4,0.3-0.6,0.5c-0.1,0.2-0.2,0.4-0.2,0.7c0,0.3,0.1,0.6,0.3,0.8c0.2,0.2,0.4,0.4,0.8,0.4l1.4,0.3
				c0.4,0.1,0.7,0.2,0.9,0.4c0.3,0.2,0.5,0.5,0.6,0.8c0.2,0.3,0.2,0.6,0.2,1c0,0.4-0.1,0.8-0.3,1.2c-0.2,0.3-0.5,0.6-1,0.8
				c-0.4,0.2-0.9,0.3-1.4,0.3C232.5,225.1,232,225,231.6,224.8z"/>
			<path d="M244.1,222.6c-0.2,0.5-0.4,0.9-0.7,1.2c-0.3,0.4-0.7,0.6-1.1,0.8l1.6,2h-1.2l-1.3-1.7c-0.3,0.1-0.6,0.1-0.8,0.1
				c-0.7,0-1.4-0.2-1.9-0.5c-0.6-0.3-1-0.8-1.4-1.4c-0.3-0.6-0.5-1.3-0.5-2c0-0.7,0.2-1.4,0.5-2c0.3-0.6,0.8-1.1,1.4-1.4
				c0.6-0.3,1.2-0.5,1.9-0.5c0.7,0,1.4,0.2,1.9,0.5s1,0.8,1.4,1.4c0.3,0.6,0.5,1.3,0.5,2C244.4,221.6,244.3,222.1,244.1,222.6z
				 M238.1,222.7c0.2,0.5,0.6,0.8,1,1.1c0.4,0.3,0.9,0.4,1.5,0.4c0.5,0,1-0.1,1.5-0.4c0.4-0.3,0.8-0.6,1-1.1s0.4-1,0.4-1.6
				c0-0.6-0.1-1.1-0.4-1.6s-0.6-0.9-1-1.1s-0.9-0.4-1.5-0.4c-0.5,0-1,0.1-1.5,0.4s-0.8,0.6-1,1.1c-0.2,0.5-0.4,1-0.4,1.6
				S237.8,222.2,238.1,222.7z"/>
			<path d="M245.9,224.9v-7.7h0.9v6.8h3.9v0.9H245.9z"/>
			<path d="M252,224.9v-7.7h2.7c0.7,0,1.4,0.2,1.9,0.5c0.6,0.3,1,0.8,1.3,1.4s0.5,1.3,0.5,2c0,0.8-0.2,1.4-0.5,2s-0.7,1-1.3,1.4
				s-1.2,0.5-1.9,0.5H252z M254.7,224.1c0.5,0,1-0.1,1.4-0.4c0.4-0.3,0.7-0.6,1-1.1c0.2-0.5,0.3-1,0.3-1.6c0-0.6-0.1-1.1-0.3-1.6
				c-0.2-0.5-0.6-0.8-1-1.1c-0.4-0.3-0.9-0.4-1.4-0.4h-1.8v6H254.7z"/>
			<path d="M264.7,222.3h-4.5c0,0.4,0.1,0.7,0.3,1c0.2,0.3,0.4,0.5,0.7,0.7c0.3,0.2,0.6,0.2,0.9,0.2c0.2,0,0.5,0,0.7-0.1
				c0.2-0.1,0.4-0.2,0.6-0.3c0.2-0.1,0.3-0.3,0.3-0.5h0.8c-0.1,0.3-0.2,0.6-0.5,0.8c-0.2,0.2-0.5,0.4-0.9,0.6
				c-0.4,0.1-0.7,0.2-1.1,0.2c-0.5,0-1-0.1-1.4-0.4c-0.4-0.3-0.7-0.6-1-1.1c-0.2-0.4-0.4-1-0.4-1.5c0-0.6,0.1-1.1,0.4-1.5
				c0.2-0.4,0.6-0.8,1-1.1c0.4-0.3,0.9-0.4,1.4-0.4c0.5,0,0.9,0.1,1.3,0.4c0.4,0.3,0.7,0.6,0.9,1.1c0.2,0.4,0.3,1,0.3,1.5V222.3z
				 M260.8,220.4c-0.3,0.3-0.5,0.7-0.6,1.2h3.5c-0.1-0.5-0.3-0.9-0.6-1.2c-0.3-0.3-0.7-0.4-1.1-0.4
				C261.6,219.9,261.1,220.1,260.8,220.4z"/>
			<path d="M266.7,224.9h-0.9v-7.7h0.9V224.9z"/>
			<path d="M268.4,218.3v-1h1v1H268.4z M269.3,224.9h-0.9v-5.6h0.9V224.9z"/>
			<path d="M275,219.3h0.9l0,5.2c0,0.5-0.1,0.9-0.3,1.3c-0.2,0.4-0.5,0.6-0.9,0.8c-0.4,0.2-0.8,0.3-1.4,0.3c-0.5,0-0.9-0.1-1.3-0.2
				c-0.4-0.2-0.7-0.4-0.9-0.7c-0.2-0.3-0.4-0.6-0.4-1h0.9c0,0.2,0.1,0.4,0.3,0.6s0.4,0.3,0.6,0.4c0.2,0.1,0.5,0.1,0.8,0.1
				c0.5,0,0.9-0.1,1.2-0.4c0.3-0.3,0.4-0.7,0.4-1.2v-0.4l0-0.6c-0.2,0.3-0.5,0.5-0.8,0.7c-0.3,0.2-0.7,0.2-1.1,0.2
				c-0.5,0-0.9-0.1-1.3-0.3c-0.4-0.2-0.7-0.5-0.9-0.9c-0.2-0.4-0.3-0.9-0.3-1.4c0-0.5,0.1-1,0.3-1.4c0.2-0.4,0.5-0.7,0.9-0.9
				s0.8-0.3,1.3-0.3c0.4,0,0.8,0.1,1.1,0.3c0.3,0.2,0.6,0.4,0.8,0.7V219.3z M274.1,223.5c0.3-0.2,0.5-0.4,0.6-0.7
				c0.1-0.3,0.2-0.6,0.2-1s-0.1-0.7-0.2-1c-0.1-0.3-0.4-0.5-0.6-0.7c-0.3-0.2-0.6-0.2-0.9-0.2c-0.3,0-0.6,0.1-0.9,0.2
				c-0.3,0.2-0.5,0.4-0.6,0.7s-0.2,0.6-0.2,1s0.1,0.7,0.2,1s0.3,0.5,0.6,0.7c0.3,0.2,0.6,0.2,0.9,0.2
				C273.5,223.7,273.8,223.6,274.1,223.5z"/>
			<path d="M281.2,219.4c0.3,0.2,0.6,0.4,0.7,0.8c0.2,0.3,0.3,0.7,0.3,1.2v3.6h-0.9v-3.5c0-0.5-0.1-0.8-0.4-1.1
				c-0.2-0.3-0.6-0.4-1-0.4c-0.3,0-0.6,0.1-0.9,0.2s-0.4,0.4-0.6,0.6s-0.2,0.6-0.2,1v3.2h-0.9v-7.7h0.9v1.8l0,1.1
				c0.2-0.3,0.4-0.6,0.7-0.7c0.3-0.2,0.7-0.3,1.1-0.3C280.5,219.2,280.9,219.3,281.2,219.4z"/>
			<path d="M285.2,224.9c-0.4,0-0.7-0.1-1-0.3s-0.4-0.5-0.4-0.9l0-3.6h-1l0-0.8h0.6c0.1,0,0.3,0,0.3-0.1c0.1-0.1,0.1-0.2,0.1-0.3
				v-0.9h0.8v1.4h1.4l0,0.8h-1.4l0,3.6c0,0.2,0,0.3,0.1,0.4c0.1,0.1,0.2,0.1,0.4,0.1h0.9v0.8H285.2z"/>
		</g>
	</g>
	<path class="st1" d="M415.5,196.2h-72.8c-7.7,0-14,6.3-14,14v13.2c0,7.7,6.3,14,14,14l72.8,0c7.7,0,14-6.3,14-14v-13.2
		C429.5,202.5,423.2,196.2,415.5,196.2z"/>
	<g>
		<path d="M345.4,220.7c-0.4-0.3-0.8-0.6-1-1.1c-0.2-0.4-0.4-1-0.4-1.5s0.1-1.1,0.4-1.5c0.2-0.4,0.6-0.8,1-1.1
			c0.4-0.3,0.9-0.4,1.5-0.4c0.5,0,1,0.1,1.5,0.4c0.4,0.3,0.8,0.6,1,1.1c0.2,0.4,0.4,1,0.4,1.5s-0.1,1.1-0.4,1.5
			c-0.2,0.4-0.6,0.8-1,1.1s-0.9,0.4-1.5,0.4C346.3,221.1,345.8,220.9,345.4,220.7z M347.8,220c0.3-0.2,0.5-0.4,0.7-0.8
			s0.2-0.7,0.2-1.1s-0.1-0.8-0.2-1.1s-0.4-0.6-0.7-0.8c-0.3-0.2-0.6-0.3-1-0.3s-0.7,0.1-1,0.3c-0.3,0.2-0.5,0.4-0.7,0.8
			c-0.2,0.3-0.2,0.7-0.2,1.1s0.1,0.8,0.2,1.1c0.2,0.3,0.4,0.6,0.7,0.8c0.3,0.2,0.6,0.3,1,0.3S347.5,220.2,347.8,220z"/>
		<path d="M352.4,220.9c-0.4,0-0.7-0.1-1-0.3s-0.4-0.5-0.4-0.9l0-3.6h-1l0-0.8h0.6c0.1,0,0.3,0,0.3-0.1c0.1-0.1,0.1-0.2,0.1-0.3
			v-0.9h0.8v1.4h1.4l0,0.8h-1.4l0,3.6c0,0.2,0,0.3,0.1,0.4c0.1,0.1,0.2,0.1,0.4,0.1h0.9v0.8H352.4z"/>
		<path d="M355.4,220.9h-0.9v-7.7h0.9V220.9z"/>
		<path d="M357,214.3v-1h1v1H357z M358,220.9h-0.9v-5.6h0.9V220.9z"/>
		<path d="M363.4,215.4c0.3,0.2,0.6,0.4,0.7,0.8c0.2,0.3,0.3,0.7,0.3,1.2v3.6h-0.9v-3.5c0-0.5-0.1-0.9-0.4-1.1
			c-0.2-0.3-0.6-0.4-1-0.4c-0.3,0-0.6,0.1-0.8,0.2c-0.2,0.1-0.4,0.3-0.6,0.6c-0.1,0.2-0.2,0.5-0.2,0.9v3.4h-0.9v-5.6h0.8v0.9
			c0.2-0.3,0.4-0.6,0.7-0.7c0.3-0.2,0.7-0.3,1.1-0.3C362.7,215.2,363.1,215.3,363.4,215.4z"/>
		<path d="M368.3,218l2,2.9h-1l-1.5-2.2l-1.5,2.2h-1l2-2.9l-1.9-2.7h1l1.4,2.1l1.4-2.1h1L368.3,218z"/>
		<path d="M371.3,218.2v-0.8h3.7v0.8H371.3z"/>
		<path d="M381.7,215.3L381.7,215.3l0,5.6h-0.8V220c-0.2,0.3-0.5,0.6-0.8,0.8s-0.7,0.3-1.2,0.3c-0.5,0-1-0.1-1.4-0.4
			c-0.4-0.3-0.7-0.6-1-1.1c-0.2-0.4-0.4-1-0.4-1.5s0.1-1.1,0.4-1.5c0.2-0.4,0.6-0.8,1-1.1c0.4-0.3,0.9-0.4,1.4-0.4
			c0.4,0,0.8,0.1,1.2,0.3c0.3,0.2,0.6,0.5,0.8,0.8l0-3h0.9V215.3z M379.9,220c0.3-0.2,0.5-0.4,0.7-0.8s0.2-0.7,0.2-1.1
			s-0.1-0.8-0.2-1.1s-0.4-0.6-0.7-0.8c-0.3-0.2-0.6-0.3-1-0.3c-0.4,0-0.7,0.1-1,0.3c-0.3,0.2-0.5,0.4-0.7,0.8s-0.2,0.7-0.2,1.1
			s0.1,0.8,0.2,1.1s0.4,0.6,0.7,0.8c0.3,0.2,0.6,0.3,1,0.3C379.3,220.3,379.6,220.2,379.9,220z"/>
		<path d="M386.5,215.4c0.3,0.2,0.6,0.4,0.7,0.7c0.2,0.3,0.3,0.7,0.3,1.1v3.8h-0.9v-0.8c-0.2,0.3-0.4,0.6-0.7,0.7
			c-0.3,0.2-0.7,0.2-1.2,0.2c-0.4,0-0.7-0.1-1-0.2s-0.5-0.3-0.7-0.6c-0.2-0.2-0.2-0.5-0.2-0.8c0-0.3,0.1-0.6,0.2-0.8
			c0.1-0.2,0.4-0.4,0.6-0.6c0.3-0.2,0.6-0.3,0.9-0.3l1.6-0.2c0.1,0,0.2-0.1,0.3-0.2c0.1-0.1,0.1-0.2,0.1-0.4c0-0.2-0.1-0.4-0.2-0.6
			s-0.3-0.3-0.5-0.4c-0.2-0.1-0.4-0.1-0.7-0.1c-0.2,0-0.5,0-0.7,0.1c-0.2,0.1-0.4,0.2-0.5,0.3c-0.1,0.1-0.2,0.3-0.2,0.5h-0.9
			c0-0.3,0.2-0.6,0.4-0.9c0.2-0.3,0.5-0.5,0.8-0.6c0.3-0.2,0.7-0.2,1.1-0.2C385.8,215.2,386.2,215.2,386.5,215.4z M385.9,220.2
			c0.3-0.1,0.5-0.3,0.6-0.6c0.1-0.2,0.2-0.5,0.2-0.8v-0.6l-1.9,0.2c-0.3,0-0.5,0.1-0.7,0.3c-0.2,0.2-0.3,0.4-0.3,0.7
			c0,0.2,0,0.4,0.1,0.5c0.1,0.1,0.2,0.3,0.4,0.3c0.2,0.1,0.4,0.1,0.6,0.1C385.3,220.4,385.6,220.3,385.9,220.2z"/>
		<path d="M390.6,220.9c-0.4,0-0.7-0.1-1-0.3s-0.4-0.5-0.4-0.9l0-3.6h-1l0-0.8h0.6c0.1,0,0.3,0,0.3-0.1c0.1-0.1,0.1-0.2,0.1-0.3
			v-0.9h0.8v1.4h1.4l0,0.8h-1.4l0,3.6c0,0.2,0,0.3,0.1,0.4c0.1,0.1,0.2,0.1,0.4,0.1h0.9v0.8H390.6z"/>
		<path d="M397.7,218.3h-4.5c0,0.4,0.1,0.7,0.3,1c0.2,0.3,0.4,0.5,0.7,0.7c0.3,0.2,0.6,0.2,0.9,0.2c0.2,0,0.5,0,0.7-0.1
			c0.2-0.1,0.4-0.2,0.6-0.3c0.2-0.1,0.3-0.3,0.3-0.5h0.8c-0.1,0.3-0.2,0.6-0.5,0.8c-0.2,0.2-0.5,0.4-0.9,0.6
			c-0.4,0.1-0.7,0.2-1.1,0.2c-0.5,0-1-0.1-1.4-0.4c-0.4-0.3-0.7-0.6-1-1.1c-0.2-0.4-0.4-1-0.4-1.5c0-0.6,0.1-1.1,0.4-1.5
			c0.2-0.4,0.6-0.8,1-1.1c0.4-0.3,0.9-0.4,1.4-0.4c0.5,0,0.9,0.1,1.3,0.4c0.4,0.3,0.7,0.6,0.9,1.1c0.2,0.4,0.3,1,0.3,1.5V218.3z
			 M393.9,216.4c-0.3,0.3-0.5,0.7-0.6,1.2h3.5c-0.1-0.5-0.3-0.9-0.6-1.2c-0.3-0.3-0.7-0.4-1.1-0.4
			C394.6,215.9,394.2,216.1,393.9,216.4z"/>
		<path d="M400.4,220.9c-0.4,0-0.7-0.1-1-0.3s-0.4-0.5-0.4-0.9l0-3.6h-1l0-0.8h0.6c0.1,0,0.3,0,0.3-0.1c0.1-0.1,0.1-0.2,0.1-0.3
			v-0.9h0.8v1.4h1.4l0,0.8H400l0,3.6c0,0.2,0,0.3,0.1,0.4c0.1,0.1,0.2,0.1,0.4,0.1h0.9v0.8H400.4z"/>
		<path d="M402.5,214.3v-1h1v1H402.5z M403.5,220.9h-0.9v-5.6h0.9V220.9z"/>
		<path d="M412.5,215.4c0.3,0.2,0.5,0.4,0.7,0.8c0.2,0.3,0.2,0.7,0.2,1.2v3.6h-0.9v-3.5c0-0.5-0.1-0.8-0.3-1.1
			c-0.2-0.3-0.5-0.4-1-0.4c-0.3,0-0.6,0.1-0.8,0.2c-0.2,0.1-0.4,0.4-0.5,0.6c-0.1,0.3-0.2,0.6-0.2,1v3.2h-0.9v-3.5
			c0-0.5-0.1-0.8-0.4-1.1c-0.2-0.3-0.6-0.4-1-0.4c-0.3,0-0.6,0.1-0.8,0.2c-0.2,0.1-0.4,0.4-0.5,0.6c-0.1,0.3-0.2,0.6-0.2,1v3.2h-0.9
			v-5.6h0.8v0.8c0.2-0.3,0.4-0.5,0.7-0.7c0.3-0.2,0.6-0.3,1-0.3c0.4,0,0.8,0.1,1.1,0.3c0.3,0.2,0.6,0.5,0.7,0.8
			c0.2-0.4,0.4-0.6,0.8-0.8c0.3-0.2,0.7-0.3,1.1-0.3C411.8,215.2,412.2,215.3,412.5,215.4z"/>
		<path d="M419.9,218.3h-4.5c0,0.4,0.1,0.7,0.3,1c0.2,0.3,0.4,0.5,0.7,0.7c0.3,0.2,0.6,0.2,0.9,0.2c0.2,0,0.5,0,0.7-0.1
			c0.2-0.1,0.4-0.2,0.6-0.3c0.2-0.1,0.3-0.3,0.3-0.5h0.8c-0.1,0.3-0.2,0.6-0.5,0.8c-0.2,0.2-0.5,0.4-0.9,0.6
			c-0.4,0.1-0.7,0.2-1.1,0.2c-0.5,0-1-0.1-1.4-0.4c-0.4-0.3-0.7-0.6-1-1.1c-0.2-0.4-0.4-1-0.4-1.5c0-0.6,0.1-1.1,0.4-1.5
			c0.2-0.4,0.6-0.8,1-1.1c0.4-0.3,0.9-0.4,1.4-0.4c0.5,0,0.9,0.1,1.3,0.4c0.4,0.3,0.7,0.6,0.9,1.1c0.2,0.4,0.3,1,0.3,1.5V218.3z
			 M416.1,216.4c-0.3,0.3-0.5,0.7-0.6,1.2h3.5c-0.1-0.5-0.3-0.9-0.6-1.2c-0.3-0.3-0.7-0.4-1.1-0.4
			C416.8,215.9,416.4,216.1,416.1,216.4z"/>
		<path d="M339.1,220.9h-0.9v-7.7h0.9v3.6l3.6-3.6h1.2l-3.7,3.7l3.8,4h-1.2l-3.6-3.8V220.9z"/>
	</g>
	<g>
		<path class="st1" d="M586,81H446.2c-7.7,0-14,6.3-14,14v35.4c0,7.7,6.3,14,14,14l139.8,0c7.7,0,14-6.3,14-14V95
			C600,87.2,593.7,81,586,81z"/>
	</g>
	<g>
		<path d="M507,116.8l-1.7-5.1c-0.2-0.5-0.3-1-0.4-1.4h0c-0.1,0.5-0.2,0.9-0.4,1.4l-1.7,5.1h-1l2.5-7.4h1.1l2.5,7.4H507z"/>
		<path d="M511.7,111.2v0.9h-0.2c-0.5,0-0.9,0.2-1.2,0.5c-0.3,0.3-0.4,0.7-0.4,1.3v3H509v-5.6h0.9v1.1c0.2-0.4,0.4-0.7,0.7-0.9
			s0.6-0.3,1-0.3H511.7z"/>
		<path d="M515.4,111.2v0.9h-0.2c-0.5,0-0.9,0.2-1.2,0.5c-0.3,0.3-0.4,0.7-0.4,1.3v3h-0.9v-5.6h0.9v1.1c0.2-0.4,0.4-0.7,0.7-0.9
			s0.6-0.3,1-0.3H515.4z"/>
		<path d="M517.3,116.6c-0.4-0.3-0.8-0.6-1-1.1c-0.2-0.4-0.4-1-0.4-1.5s0.1-1.1,0.4-1.5c0.2-0.4,0.6-0.8,1-1.1
			c0.4-0.3,0.9-0.4,1.5-0.4c0.5,0,1,0.1,1.5,0.4c0.4,0.3,0.8,0.6,1,1.1c0.2,0.4,0.4,1,0.4,1.5s-0.1,1.1-0.4,1.5
			c-0.2,0.4-0.6,0.8-1,1.1s-0.9,0.4-1.5,0.4C518.2,117,517.7,116.8,517.3,116.6z M519.8,115.9c0.3-0.2,0.5-0.4,0.7-0.8
			s0.2-0.7,0.2-1.1s-0.1-0.8-0.2-1.1s-0.4-0.6-0.7-0.8c-0.3-0.2-0.6-0.3-1-0.3s-0.7,0.1-1,0.3c-0.3,0.2-0.5,0.4-0.7,0.8
			c-0.2,0.3-0.2,0.7-0.2,1.1s0.1,0.8,0.2,1.1c0.2,0.3,0.4,0.6,0.7,0.8c0.3,0.2,0.6,0.3,1,0.3S519.5,116.1,519.8,115.9z"/>
		<path d="M524.8,116.8h-0.9l-1.9-5.6h0.9l1.3,4.1l0.1,0.5l0.1-0.5l1.3-4.1h0.9l1.3,4.1l0.1,0.5l0.1-0.5l1.3-4.1h0.9l-1.9,5.6h-0.9
			l-1.3-4.3l-0.1-0.4l-0.1,0.4L524.8,116.8z"/>
	</g>
	<g>
		<path d="M506.9,196c-0.6-0.3-1-0.8-1.4-1.4c-0.3-0.6-0.5-1.3-0.5-2c0-0.7,0.2-1.4,0.5-2c0.3-0.6,0.8-1.1,1.4-1.4
			c0.6-0.3,1.2-0.5,1.9-0.5c0.7,0,1.4,0.2,1.9,0.5s1,0.8,1.4,1.4c0.3,0.6,0.5,1.3,0.5,2c0,0.7-0.2,1.4-0.5,2
			c-0.3,0.6-0.8,1.1-1.4,1.4s-1.2,0.5-1.9,0.5C508.1,196.5,507.5,196.3,506.9,196z M510.3,195.3c0.4-0.3,0.8-0.6,1-1.1
			s0.4-1,0.4-1.6c0-0.6-0.1-1.1-0.4-1.6s-0.6-0.9-1-1.1s-0.9-0.4-1.5-0.4c-0.5,0-1,0.1-1.5,0.4s-0.8,0.6-1,1.1
			c-0.2,0.5-0.4,1-0.4,1.6s0.1,1.1,0.4,1.6c0.2,0.5,0.6,0.8,1,1.1c0.4,0.3,0.9,0.4,1.5,0.4C509.4,195.7,509.9,195.5,510.3,195.3z"/>
		<path d="M514.9,196.4H514v-7.7h0.9v4.7l2.5-2.6h1.1l-2.6,2.7l2.7,3h-1.1l-2.6-2.8V196.4z"/>
		<path d="M519.3,189.7v-1h1v1H519.3z M520.3,196.4h-0.9v-5.6h0.9V196.4z"/>
		<path d="M522.8,196.1c-0.4-0.3-0.8-0.6-1-1.1c-0.2-0.4-0.4-1-0.4-1.5s0.1-1.1,0.4-1.5c0.2-0.4,0.6-0.8,1-1.1
			c0.4-0.3,0.9-0.4,1.5-0.4c0.5,0,1,0.1,1.5,0.4c0.4,0.3,0.8,0.6,1,1.1c0.2,0.4,0.4,1,0.4,1.5s-0.1,1.1-0.4,1.5
			c-0.2,0.4-0.6,0.8-1,1.1s-0.9,0.4-1.5,0.4C523.8,196.5,523.3,196.4,522.8,196.1z M525.3,195.4c0.3-0.2,0.5-0.4,0.7-0.8
			s0.2-0.7,0.2-1.1s-0.1-0.8-0.2-1.1s-0.4-0.6-0.7-0.8c-0.3-0.2-0.6-0.3-1-0.3s-0.7,0.1-1,0.3c-0.3,0.2-0.5,0.4-0.7,0.8
			c-0.2,0.3-0.2,0.7-0.2,1.1s0.1,0.8,0.2,1.1c0.2,0.3,0.4,0.6,0.7,0.8c0.3,0.2,0.6,0.3,1,0.3S525,195.6,525.3,195.4z"/>
	</g>
	<g>
		<g>
			<path d="M13.5,116h-0.9v-7.7h0.9v3.6l3.6-3.6h1.2l-3.7,3.7l3.8,4h-1.2l-3.6-3.8V116z"/>
			<path d="M19.8,115.8c-0.4-0.3-0.8-0.6-1-1.1c-0.2-0.4-0.4-1-0.4-1.5s0.1-1.1,0.4-1.5c0.2-0.4,0.6-0.8,1-1.1
				c0.4-0.3,0.9-0.4,1.5-0.4c0.5,0,1,0.1,1.5,0.4c0.4,0.3,0.8,0.6,1,1.1c0.2,0.4,0.4,1,0.4,1.5s-0.1,1.1-0.4,1.5
				c-0.2,0.4-0.6,0.8-1,1.1s-0.9,0.4-1.5,0.4C20.7,116.2,20.2,116,19.8,115.8z M22.2,115.1c0.3-0.2,0.5-0.4,0.7-0.8s0.2-0.7,0.2-1.1
				s-0.1-0.8-0.2-1.1s-0.4-0.6-0.7-0.8c-0.3-0.2-0.6-0.3-1-0.3s-0.7,0.1-1,0.3c-0.3,0.2-0.5,0.4-0.7,0.8c-0.2,0.3-0.2,0.7-0.2,1.1
				s0.1,0.8,0.2,1.1c0.2,0.3,0.4,0.6,0.7,0.8c0.3,0.2,0.6,0.3,1,0.3S21.9,115.3,22.2,115.1z"/>
			<path d="M26.8,116c-0.4,0-0.7-0.1-1-0.3s-0.4-0.5-0.4-0.9l0-3.6h-1l0-0.8h0.6c0.1,0,0.3,0,0.3-0.1c0.1-0.1,0.1-0.2,0.1-0.3V109
				h0.8v1.4h1.4l0,0.8h-1.4l0,3.6c0,0.2,0,0.3,0.1,0.4c0.1,0.1,0.2,0.1,0.4,0.1h0.9v0.8H26.8z"/>
			<path d="M29.9,116H29v-7.7h0.9V116z"/>
			<path d="M31.5,109.4v-1h1v1H31.5z M32.4,116h-0.9v-5.6h0.9V116z"/>
			<path d="M37.8,110.5c0.3,0.2,0.6,0.4,0.7,0.8c0.2,0.3,0.3,0.7,0.3,1.2v3.6h-0.9v-3.5c0-0.5-0.1-0.9-0.4-1.1
				c-0.2-0.3-0.6-0.4-1-0.4c-0.3,0-0.6,0.1-0.8,0.2c-0.2,0.1-0.4,0.3-0.6,0.6c-0.1,0.2-0.2,0.5-0.2,0.9v3.4h-0.9v-5.6h0.8v0.9
				c0.2-0.3,0.4-0.6,0.7-0.7c0.3-0.2,0.7-0.3,1.1-0.3C37.2,110.3,37.5,110.4,37.8,110.5z"/>
			<path d="M42.7,113.1l2,2.9h-1l-1.5-2.2l-1.5,2.2h-1l2-2.9l-1.9-2.7h1l1.4,2.1l1.4-2.1h1L42.7,113.1z"/>
			<path d="M45.7,113.3v-0.8h3.7v0.8H45.7z"/>
			<path d="M51.7,115.9c-0.3-0.1-0.6-0.3-0.8-0.6c-0.2-0.3-0.3-0.5-0.3-0.9h0.9c0,0.2,0.1,0.4,0.2,0.5c0.1,0.1,0.3,0.3,0.5,0.3
				c0.2,0.1,0.5,0.1,0.7,0.1c0.4,0,0.7-0.1,1-0.3s0.3-0.4,0.3-0.7c0-0.2-0.1-0.4-0.2-0.6s-0.3-0.2-0.6-0.3l-1-0.2
				c-0.5-0.1-0.9-0.3-1.1-0.5c-0.3-0.3-0.4-0.6-0.4-1c0-0.3,0.1-0.6,0.3-0.8s0.4-0.4,0.7-0.6s0.7-0.2,1.1-0.2c0.4,0,0.8,0.1,1.1,0.2
				c0.3,0.1,0.6,0.3,0.8,0.6c0.2,0.2,0.3,0.5,0.3,0.8h-0.9c0-0.2-0.1-0.3-0.2-0.4c-0.1-0.1-0.3-0.2-0.5-0.3S53,111,52.8,111
				c-0.2,0-0.4,0-0.6,0.1c-0.2,0.1-0.3,0.2-0.4,0.3c-0.1,0.1-0.2,0.3-0.2,0.4c0,0.2,0.1,0.4,0.2,0.5c0.1,0.1,0.3,0.2,0.6,0.3
				l1.1,0.2c0.5,0.1,0.9,0.3,1.2,0.6c0.3,0.3,0.4,0.7,0.4,1.1c0,0.3-0.1,0.6-0.3,0.9c-0.2,0.3-0.4,0.5-0.7,0.6
				c-0.3,0.1-0.7,0.2-1.1,0.2C52.5,116.2,52.1,116.1,51.7,115.9z"/>
			<path d="M61.2,113.4h-4.5c0,0.4,0.1,0.7,0.3,1c0.2,0.3,0.4,0.5,0.7,0.7c0.3,0.2,0.6,0.2,0.9,0.2c0.2,0,0.5,0,0.7-0.1
				c0.2-0.1,0.4-0.2,0.6-0.3c0.2-0.1,0.3-0.3,0.3-0.5h0.8c-0.1,0.3-0.2,0.6-0.5,0.8c-0.2,0.2-0.5,0.4-0.9,0.6
				c-0.4,0.1-0.7,0.2-1.1,0.2c-0.5,0-1-0.1-1.4-0.4c-0.4-0.3-0.7-0.6-1-1.1c-0.2-0.4-0.4-1-0.4-1.5c0-0.6,0.1-1.1,0.4-1.5
				c0.2-0.4,0.6-0.8,1-1.1c0.4-0.3,0.9-0.4,1.4-0.4c0.5,0,0.9,0.1,1.3,0.4c0.4,0.3,0.7,0.6,0.9,1.1c0.2,0.4,0.3,1,0.3,1.5V113.4z
				 M57.4,111.5c-0.3,0.3-0.5,0.7-0.6,1.2h3.5c-0.1-0.5-0.3-0.9-0.6-1.2c-0.3-0.3-0.7-0.4-1.1-0.4C58.1,111,57.7,111.2,57.4,111.5z"
				/>
			<path d="M65.2,110.3v0.9H65c-0.5,0-0.9,0.2-1.2,0.5c-0.3,0.3-0.4,0.7-0.4,1.3v3h-0.9v-5.6h0.9v1.1c0.2-0.4,0.4-0.7,0.7-0.9
				s0.6-0.3,1-0.3H65.2z"/>
			<path d="M66.1,109.4v-1h1v1H66.1z M67,116h-0.9v-5.6H67V116z"/>
			<path d="M72,110.5c0.3,0.2,0.6,0.4,0.7,0.7c0.2,0.3,0.3,0.7,0.3,1.1v3.8h-0.9v-0.8c-0.2,0.3-0.4,0.6-0.7,0.7
				c-0.3,0.2-0.7,0.2-1.2,0.2c-0.4,0-0.7-0.1-1-0.2s-0.5-0.3-0.7-0.6c-0.2-0.2-0.2-0.5-0.2-0.8c0-0.3,0.1-0.6,0.2-0.8
				c0.1-0.2,0.4-0.4,0.6-0.6c0.3-0.2,0.6-0.3,0.9-0.3l1.6-0.2c0.1,0,0.2-0.1,0.3-0.2c0.1-0.1,0.1-0.2,0.1-0.4c0-0.2-0.1-0.4-0.2-0.6
				s-0.3-0.3-0.5-0.4c-0.2-0.1-0.4-0.1-0.7-0.1c-0.2,0-0.5,0-0.7,0.1c-0.2,0.1-0.4,0.2-0.5,0.3c-0.1,0.1-0.2,0.3-0.2,0.5h-0.9
				c0-0.3,0.2-0.6,0.4-0.9c0.2-0.3,0.5-0.5,0.8-0.6c0.3-0.2,0.7-0.2,1.1-0.2C71.3,110.3,71.6,110.3,72,110.5z M71.3,115.3
				c0.3-0.1,0.5-0.3,0.6-0.6c0.1-0.2,0.2-0.5,0.2-0.8v-0.6l-1.9,0.2c-0.3,0-0.5,0.1-0.7,0.3c-0.2,0.2-0.3,0.4-0.3,0.7
				c0,0.2,0,0.4,0.1,0.5c0.1,0.1,0.2,0.3,0.4,0.3c0.2,0.1,0.4,0.1,0.6,0.1C70.7,115.5,71,115.4,71.3,115.3z"/>
			<path d="M75.4,116h-0.9v-7.7h0.9V116z"/>
			<path d="M77,109.4v-1h1v1H77z M77.9,116h-0.9v-5.6h0.9V116z"/>
			<path d="M79.1,116v-0.8l3.4-4.1h-3.3v-0.8h4.3v0.8l-3.4,4.1h3.4v0.8H79.1z"/>
			<path d="M88,110.5c0.3,0.2,0.6,0.4,0.7,0.7c0.2,0.3,0.3,0.7,0.3,1.1v3.8h-0.9v-0.8c-0.2,0.3-0.4,0.6-0.7,0.7
				c-0.3,0.2-0.7,0.2-1.2,0.2c-0.4,0-0.7-0.1-1-0.2s-0.5-0.3-0.7-0.6c-0.2-0.2-0.2-0.5-0.2-0.8c0-0.3,0.1-0.6,0.2-0.8
				c0.1-0.2,0.4-0.4,0.6-0.6c0.3-0.2,0.6-0.3,0.9-0.3l1.6-0.2c0.1,0,0.2-0.1,0.3-0.2c0.1-0.1,0.1-0.2,0.1-0.4c0-0.2-0.1-0.4-0.2-0.6
				s-0.3-0.3-0.5-0.4c-0.2-0.1-0.4-0.1-0.7-0.1c-0.2,0-0.5,0-0.7,0.1c-0.2,0.1-0.4,0.2-0.5,0.3c-0.1,0.1-0.2,0.3-0.2,0.5h-0.9
				c0-0.3,0.2-0.6,0.4-0.9c0.2-0.3,0.5-0.5,0.8-0.6c0.3-0.2,0.7-0.2,1.1-0.2C87.4,110.3,87.7,110.3,88,110.5z M87.4,115.3
				c0.3-0.1,0.5-0.3,0.6-0.6c0.1-0.2,0.2-0.5,0.2-0.8v-0.6l-1.9,0.2c-0.3,0-0.5,0.1-0.7,0.3c-0.2,0.2-0.3,0.4-0.3,0.7
				c0,0.2,0,0.4,0.1,0.5c0.1,0.1,0.2,0.3,0.4,0.3c0.2,0.1,0.4,0.1,0.6,0.1C86.8,115.5,87.1,115.4,87.4,115.3z"/>
			<path d="M92.1,116c-0.4,0-0.7-0.1-1-0.3s-0.4-0.5-0.4-0.9l0-3.6h-1l0-0.8h0.6c0.1,0,0.3,0,0.3-0.1c0.1-0.1,0.1-0.2,0.1-0.3V109
				h0.8v1.4H93l0,0.8h-1.4l0,3.6c0,0.2,0,0.3,0.1,0.4c0.1,0.1,0.2,0.1,0.4,0.1H93v0.8H92.1z"/>
			<path d="M94.2,109.4v-1h1v1H94.2z M95.2,116h-0.9v-5.6h0.9V116z"/>
			<path d="M97.8,115.8c-0.4-0.3-0.8-0.6-1-1.1c-0.2-0.4-0.4-1-0.4-1.5s0.1-1.1,0.4-1.5c0.2-0.4,0.6-0.8,1-1.1
				c0.4-0.3,0.9-0.4,1.5-0.4c0.5,0,1,0.1,1.5,0.4c0.4,0.3,0.8,0.6,1,1.1c0.2,0.4,0.4,1,0.4,1.5s-0.1,1.1-0.4,1.5
				c-0.2,0.4-0.6,0.8-1,1.1s-0.9,0.4-1.5,0.4C98.7,116.2,98.2,116,97.8,115.8z M100.2,115.1c0.3-0.2,0.5-0.4,0.7-0.8
				s0.2-0.7,0.2-1.1s-0.1-0.8-0.2-1.1s-0.4-0.6-0.7-0.8c-0.3-0.2-0.6-0.3-1-0.3s-0.7,0.1-1,0.3c-0.3,0.2-0.5,0.4-0.7,0.8
				c-0.2,0.3-0.2,0.7-0.2,1.1s0.1,0.8,0.2,1.1c0.2,0.3,0.4,0.6,0.7,0.8c0.3,0.2,0.6,0.3,1,0.3S99.9,115.3,100.2,115.1z"/>
			<path d="M107,110.5c0.3,0.2,0.6,0.4,0.7,0.8c0.2,0.3,0.3,0.7,0.3,1.2v3.6h-0.9v-3.5c0-0.5-0.1-0.9-0.4-1.1
				c-0.2-0.3-0.6-0.4-1-0.4c-0.3,0-0.6,0.1-0.8,0.2c-0.2,0.1-0.4,0.3-0.6,0.6c-0.1,0.2-0.2,0.5-0.2,0.9v3.4h-0.9v-5.6h0.8v0.9
				c0.2-0.3,0.4-0.6,0.7-0.7c0.3-0.2,0.7-0.3,1.1-0.3C106.3,110.3,106.7,110.4,107,110.5z"/>
		</g>
	</g>
</g>
<g>
	<path class="st0" d="M17.3,288.7v-11.5h4.6c0.7,0,1.4,0.1,1.9,0.4c0.6,0.3,1,0.7,1.3,1.2s0.5,1.1,0.5,1.8s-0.2,1.3-0.5,1.8
		s-0.7,0.9-1.3,1.2s-1.2,0.4-2,0.4h-3.2v4.8H17.3z M21.8,282.6c0.4,0,0.8-0.1,1.2-0.3s0.6-0.4,0.8-0.7c0.2-0.3,0.3-0.7,0.3-1.1
		c0-0.4-0.1-0.8-0.3-1.1c-0.2-0.3-0.4-0.6-0.8-0.7s-0.7-0.3-1.2-0.3h-3.2v4.1H21.8z"/>
	<path class="st0" d="M28.1,288.3c-0.6-0.4-1.1-0.9-1.5-1.6c-0.4-0.7-0.5-1.4-0.5-2.3c0-0.8,0.2-1.6,0.5-2.3s0.9-1.2,1.5-1.6
		c0.6-0.4,1.4-0.6,2.2-0.6c0.8,0,1.5,0.2,2.2,0.6c0.6,0.4,1.2,0.9,1.5,1.6c0.4,0.7,0.5,1.4,0.5,2.3c0,0.8-0.2,1.6-0.6,2.3
		c-0.4,0.7-0.9,1.2-1.5,1.6c-0.6,0.4-1.4,0.6-2.2,0.6C29.5,288.9,28.7,288.7,28.1,288.3z M31.7,287.2c0.4-0.3,0.8-0.6,1-1.1
		c0.2-0.5,0.4-1,0.4-1.7c0-0.6-0.1-1.2-0.4-1.7c-0.2-0.5-0.6-0.9-1-1.1c-0.4-0.3-0.9-0.4-1.5-0.4s-1,0.1-1.5,0.4
		c-0.4,0.3-0.8,0.6-1,1.1c-0.2,0.5-0.4,1-0.4,1.7c0,0.6,0.1,1.2,0.4,1.7c0.2,0.5,0.6,0.9,1,1.1c0.4,0.3,0.9,0.4,1.5,0.4
		S31.3,287.5,31.7,287.2z"/>
	<path class="st0" d="M42.6,280.6c0.6,0.4,1.1,0.9,1.5,1.6s0.5,1.4,0.5,2.2c0,0.8-0.2,1.6-0.5,2.2s-0.8,1.2-1.5,1.6
		c-0.6,0.4-1.3,0.6-2.1,0.6c-0.6,0-1.2-0.1-1.7-0.4c-0.5-0.3-0.9-0.7-1.3-1.2v0.5l0,3.5h-1.3v-11.1h1.3v1.4c0.3-0.5,0.7-0.9,1.3-1.2
		s1.1-0.4,1.7-0.4C41.3,280.1,42,280.2,42.6,280.6z M41.9,287.3c0.4-0.3,0.8-0.7,1-1.2c0.2-0.5,0.4-1,0.4-1.6s-0.1-1.2-0.4-1.6
		c-0.2-0.5-0.6-0.9-1-1.2c-0.4-0.3-0.9-0.4-1.4-0.4c-0.5,0-1,0.1-1.4,0.4c-0.4,0.3-0.8,0.7-1,1.2c-0.2,0.5-0.4,1-0.4,1.6
		s0.1,1.2,0.4,1.6c0.2,0.5,0.6,0.9,1,1.2c0.4,0.3,0.9,0.4,1.4,0.4C41,287.7,41.5,287.5,41.9,287.3z"/>
	<path class="st0" d="M52,280.2h1.3v8.4H52v-1.3c-0.3,0.5-0.6,0.9-1.1,1.1c-0.5,0.2-1,0.4-1.6,0.4c-0.6,0-1.2-0.1-1.6-0.4
		s-0.8-0.7-1.1-1.2c-0.3-0.5-0.4-1.1-0.4-1.7v-5.3h1.3v5.2c0,0.7,0.2,1.3,0.6,1.7c0.4,0.4,0.9,0.6,1.5,0.6c0.5,0,0.9-0.1,1.2-0.3
		c0.4-0.2,0.6-0.5,0.8-0.9s0.3-0.8,0.3-1.3V280.2z"/>
	<path class="st0" d="M57.1,288.7h-1.3v-11.5h1.3V288.7z"/>
	<path class="st0" d="M64.5,280.4c0.5,0.2,0.8,0.6,1.1,1s0.4,1,0.4,1.6v5.6h-1.3v-1.2c-0.3,0.5-0.6,0.8-1.1,1.1
		c-0.5,0.2-1.1,0.4-1.7,0.4c-0.6,0-1-0.1-1.5-0.3c-0.4-0.2-0.8-0.5-1-0.9c-0.2-0.4-0.4-0.8-0.4-1.3c0-0.4,0.1-0.8,0.3-1.2
		c0.2-0.4,0.5-0.7,0.9-0.9c0.4-0.2,0.8-0.4,1.3-0.4l2.5-0.2c0.2,0,0.3-0.1,0.4-0.2c0.1-0.1,0.2-0.3,0.2-0.6c0-0.3-0.1-0.6-0.2-0.9
		s-0.4-0.4-0.7-0.6c-0.3-0.1-0.6-0.2-1-0.2c-0.4,0-0.7,0.1-1,0.2c-0.3,0.1-0.6,0.3-0.7,0.5c-0.2,0.2-0.3,0.5-0.3,0.7h-1.3
		c0-0.5,0.2-0.9,0.5-1.3c0.3-0.4,0.7-0.7,1.2-0.9c0.5-0.2,1.1-0.3,1.6-0.3C63.4,280.1,64,280.2,64.5,280.4z M63.4,287.5
		c0.4-0.2,0.7-0.5,0.9-0.8c0.2-0.4,0.3-0.8,0.3-1.2v-1l-2.9,0.3c-0.4,0-0.8,0.2-1.1,0.5s-0.4,0.6-0.4,1c0,0.3,0.1,0.5,0.2,0.8
		c0.1,0.2,0.4,0.4,0.6,0.5c0.3,0.1,0.6,0.2,0.9,0.2C62.6,287.8,63,287.7,63.4,287.5z"/>
	<path class="st0" d="M72.3,280.2v1.4H72c-0.8,0-1.4,0.2-1.8,0.7s-0.7,1.1-0.7,1.9v4.5h-1.3v-8.4h1.3v1.7c0.2-0.6,0.6-1,1-1.3
		s0.9-0.5,1.5-0.5H72.3z"/>
	<path class="st0" d="M82.1,280.4c0.5,0.2,0.8,0.6,1.1,1s0.4,1,0.4,1.6v5.6h-1.3v-1.2c-0.3,0.5-0.6,0.8-1.1,1.1
		c-0.5,0.2-1.1,0.4-1.7,0.4c-0.6,0-1-0.1-1.5-0.3c-0.4-0.2-0.8-0.5-1-0.9c-0.2-0.4-0.4-0.8-0.4-1.3c0-0.4,0.1-0.8,0.3-1.2
		c0.2-0.4,0.5-0.7,0.9-0.9c0.4-0.2,0.8-0.4,1.3-0.4l2.5-0.2c0.2,0,0.3-0.1,0.4-0.2c0.1-0.1,0.2-0.3,0.2-0.6c0-0.3-0.1-0.6-0.2-0.9
		s-0.4-0.4-0.7-0.6c-0.3-0.1-0.6-0.2-1-0.2c-0.4,0-0.7,0.1-1,0.2c-0.3,0.1-0.6,0.3-0.7,0.5c-0.2,0.2-0.3,0.5-0.3,0.7h-1.3
		c0-0.5,0.2-0.9,0.5-1.3c0.3-0.4,0.7-0.7,1.2-0.9c0.5-0.2,1.1-0.3,1.6-0.3C81.1,280.1,81.7,280.2,82.1,280.4z M81.1,287.5
		c0.4-0.2,0.7-0.5,0.9-0.8c0.2-0.4,0.3-0.8,0.3-1.2v-1l-2.9,0.3c-0.4,0-0.8,0.2-1.1,0.5s-0.4,0.6-0.4,1c0,0.3,0.1,0.5,0.2,0.8
		c0.1,0.2,0.4,0.4,0.6,0.5c0.3,0.1,0.6,0.2,0.9,0.2C80.3,287.8,80.7,287.7,81.1,287.5z"/>
	<path class="st0" d="M91.5,280.5c0.5,0.3,0.8,0.7,1.1,1.2c0.3,0.5,0.4,1.1,0.4,1.7v5.3h-1.3v-5.2c0-0.7-0.2-1.3-0.6-1.7
		s-0.9-0.6-1.5-0.6c-0.5,0-0.9,0.1-1.2,0.3s-0.6,0.5-0.8,0.9c-0.2,0.4-0.3,0.8-0.3,1.3v5h-1.3v-8.4h1.3v1.3c0.3-0.5,0.6-0.9,1.1-1.1
		c0.5-0.2,1-0.4,1.6-0.4C90.5,280.1,91.1,280.2,91.5,280.5z"/>
	<path class="st0" d="M102.9,280.2L102.9,280.2l0,8.4h-1.3v-1.4c-0.3,0.5-0.7,0.9-1.3,1.2c-0.5,0.3-1.1,0.4-1.7,0.4
		c-0.8,0-1.4-0.2-2.1-0.6c-0.6-0.4-1.1-0.9-1.5-1.6c-0.4-0.7-0.5-1.4-0.5-2.2c0-0.8,0.2-1.6,0.5-2.2c0.3-0.7,0.8-1.2,1.5-1.6
		c0.6-0.4,1.3-0.6,2.1-0.6c0.6,0,1.2,0.1,1.7,0.4c0.5,0.3,0.9,0.7,1.3,1.2l0-4.5h1.3V280.2z M100.2,287.3c0.4-0.3,0.8-0.7,1-1.2
		c0.2-0.5,0.4-1,0.4-1.6s-0.1-1.2-0.4-1.6c-0.2-0.5-0.6-0.9-1-1.2c-0.4-0.3-0.9-0.4-1.4-0.4c-0.5,0-1,0.1-1.4,0.4
		c-0.4,0.3-0.8,0.7-1,1.2c-0.2,0.5-0.4,1-0.4,1.6s0.1,1.2,0.4,1.6c0.2,0.5,0.6,0.9,1,1.2c0.4,0.3,0.9,0.4,1.4,0.4
		C99.3,287.7,99.8,287.5,100.2,287.3z"/>
	<path class="st0" d="M109.4,280.2v1.4h-0.3c-0.8,0-1.4,0.2-1.8,0.7s-0.7,1.1-0.7,1.9v4.5h-1.3v-8.4h1.3v1.7c0.2-0.6,0.6-1,1-1.3
		s0.9-0.5,1.5-0.5H109.4z"/>
	<path class="st0" d="M112.2,288.3c-0.6-0.4-1.1-0.9-1.5-1.6c-0.4-0.7-0.5-1.4-0.5-2.3c0-0.8,0.2-1.6,0.5-2.3s0.9-1.2,1.5-1.6
		c0.6-0.4,1.4-0.6,2.2-0.6c0.8,0,1.5,0.2,2.2,0.6c0.6,0.4,1.2,0.9,1.5,1.6c0.4,0.7,0.5,1.4,0.5,2.3c0,0.8-0.2,1.6-0.6,2.3
		c-0.4,0.7-0.9,1.2-1.5,1.6c-0.6,0.4-1.4,0.6-2.2,0.6C113.6,288.9,112.9,288.7,112.2,288.3z M115.9,287.2c0.4-0.3,0.8-0.6,1-1.1
		c0.2-0.5,0.4-1,0.4-1.7c0-0.6-0.1-1.2-0.4-1.7c-0.2-0.5-0.6-0.9-1-1.1c-0.4-0.3-0.9-0.4-1.5-0.4s-1,0.1-1.5,0.4
		c-0.4,0.3-0.8,0.6-1,1.1c-0.2,0.5-0.4,1-0.4,1.7c0,0.6,0.1,1.2,0.4,1.7c0.2,0.5,0.6,0.9,1,1.1c0.4,0.3,0.9,0.4,1.5,0.4
		S115.4,287.5,115.9,287.2z"/>
	<path class="st0" d="M120.3,278.7v-1.6h1.5v1.6H120.3z M121.7,288.7h-1.3v-8.4h1.3V288.7z"/>
	<path class="st0" d="M131.8,280.2L131.8,280.2l0,8.4h-1.3v-1.4c-0.3,0.5-0.7,0.9-1.3,1.2c-0.5,0.3-1.1,0.4-1.7,0.4
		c-0.8,0-1.4-0.2-2.1-0.6c-0.6-0.4-1.1-0.9-1.5-1.6c-0.4-0.7-0.5-1.4-0.5-2.2c0-0.8,0.2-1.6,0.5-2.2c0.3-0.7,0.8-1.2,1.5-1.6
		c0.6-0.4,1.3-0.6,2.1-0.6c0.6,0,1.2,0.1,1.7,0.4c0.5,0.3,0.9,0.7,1.3,1.2l0-4.5h1.3V280.2z M129.2,287.3c0.4-0.3,0.8-0.7,1-1.2
		c0.2-0.5,0.4-1,0.4-1.6s-0.1-1.2-0.4-1.6c-0.2-0.5-0.6-0.9-1-1.2c-0.4-0.3-0.9-0.4-1.4-0.4c-0.5,0-1,0.1-1.4,0.4
		c-0.4,0.3-0.8,0.7-1,1.2c-0.2,0.5-0.4,1-0.4,1.6s0.1,1.2,0.4,1.6c0.2,0.5,0.6,0.9,1,1.2c0.4,0.3,0.9,0.4,1.4,0.4
		C128.3,287.7,128.7,287.5,129.2,287.3z"/>
	<path class="st0" d="M139.3,288.7H138v-11.5h1.3V288.7z"/>
	<path class="st0" d="M141.7,278.7v-1.6h1.5v1.6H141.7z M143.1,288.7h-1.3v-8.4h1.3V288.7z"/>
	<path class="st0" d="M151.9,280.6c0.6,0.4,1.1,0.9,1.5,1.6s0.5,1.4,0.5,2.2c0,0.8-0.2,1.6-0.5,2.2s-0.8,1.2-1.5,1.6
		c-0.6,0.4-1.3,0.6-2.1,0.6c-0.6,0-1.2-0.1-1.7-0.4c-0.5-0.3-0.9-0.7-1.3-1.2v1.4h-1.3v-8.4h0v-3.1h1.3l0,4.5
		c0.3-0.5,0.7-0.9,1.3-1.2c0.5-0.3,1.1-0.4,1.7-0.4C150.6,280.1,151.3,280.2,151.9,280.6z M151.2,287.3c0.4-0.3,0.8-0.7,1-1.2
		c0.2-0.5,0.4-1,0.4-1.6s-0.1-1.2-0.4-1.6c-0.2-0.5-0.6-0.9-1-1.2c-0.4-0.3-0.9-0.4-1.4-0.4c-0.5,0-1,0.1-1.4,0.4
		c-0.4,0.3-0.8,0.7-1,1.2c-0.2,0.5-0.4,1-0.4,1.6s0.1,1.2,0.4,1.6c0.2,0.5,0.6,0.9,1,1.2c0.4,0.3,0.9,0.4,1.4,0.4
		C150.3,287.7,150.8,287.5,151.2,287.3z"/>
	<path class="st0" d="M159.8,280.2v1.4h-0.3c-0.8,0-1.4,0.2-1.8,0.7s-0.7,1.1-0.7,1.9v4.5h-1.3v-8.4h1.3v1.7c0.2-0.6,0.6-1,1-1.3
		s0.9-0.5,1.5-0.5H159.8z"/>
	<path class="st0" d="M166,280.4c0.5,0.2,0.8,0.6,1.1,1s0.4,1,0.4,1.6v5.6h-1.3v-1.2c-0.3,0.5-0.6,0.8-1.1,1.1
		c-0.5,0.2-1.1,0.4-1.7,0.4c-0.6,0-1-0.1-1.5-0.3c-0.4-0.2-0.8-0.5-1-0.9c-0.2-0.4-0.4-0.8-0.4-1.3c0-0.4,0.1-0.8,0.3-1.2
		c0.2-0.4,0.5-0.7,0.9-0.9c0.4-0.2,0.8-0.4,1.3-0.4l2.5-0.2c0.2,0,0.3-0.1,0.4-0.2c0.1-0.1,0.2-0.3,0.2-0.6c0-0.3-0.1-0.6-0.2-0.9
		s-0.4-0.4-0.7-0.6c-0.3-0.1-0.6-0.2-1-0.2c-0.4,0-0.7,0.1-1,0.2c-0.3,0.1-0.6,0.3-0.7,0.5c-0.2,0.2-0.3,0.5-0.3,0.7h-1.3
		c0-0.5,0.2-0.9,0.5-1.3c0.3-0.4,0.7-0.7,1.2-0.9c0.5-0.2,1.1-0.3,1.6-0.3C165,280.1,165.5,280.2,166,280.4z M165,287.5
		c0.4-0.2,0.7-0.5,0.9-0.8c0.2-0.4,0.3-0.8,0.3-1.2v-1l-2.9,0.3c-0.4,0-0.8,0.2-1.1,0.5s-0.4,0.6-0.4,1c0,0.3,0.1,0.5,0.2,0.8
		c0.1,0.2,0.4,0.4,0.6,0.5c0.3,0.1,0.6,0.2,0.9,0.2C164.1,287.8,164.6,287.7,165,287.5z"/>
	<path class="st0" d="M173.9,280.2v1.4h-0.3c-0.8,0-1.4,0.2-1.8,0.7s-0.7,1.1-0.7,1.9v4.5h-1.3v-8.4h1.3v1.7c0.2-0.6,0.6-1,1-1.3
		s0.9-0.5,1.5-0.5H173.9z"/>
	<path class="st0" d="M175.2,278.7v-1.6h1.5v1.6H175.2z M176.6,288.7h-1.3v-8.4h1.3V288.7z"/>
	<path class="st0" d="M186.5,284.8h-6.7c0,0.6,0.2,1.1,0.5,1.5c0.3,0.4,0.6,0.8,1,1s0.9,0.4,1.4,0.4c0.4,0,0.7-0.1,1-0.2
		c0.3-0.1,0.6-0.3,0.8-0.5s0.4-0.4,0.5-0.7h1.3c-0.1,0.5-0.3,0.9-0.7,1.2c-0.4,0.4-0.8,0.7-1.3,0.9c-0.5,0.2-1.1,0.3-1.7,0.3
		c-0.8,0-1.5-0.2-2.1-0.6c-0.6-0.4-1.1-0.9-1.5-1.6c-0.4-0.7-0.5-1.4-0.5-2.3c0-0.8,0.2-1.6,0.5-2.2c0.4-0.7,0.8-1.2,1.5-1.6
		c0.6-0.4,1.3-0.6,2.1-0.6c0.7,0,1.4,0.2,2,0.6c0.6,0.4,1.1,0.9,1.4,1.6c0.3,0.7,0.5,1.4,0.5,2.3V284.8z M180.8,281.9
		c-0.5,0.4-0.8,1-0.9,1.8h5.3c-0.1-0.8-0.4-1.4-0.8-1.8c-0.4-0.4-1-0.7-1.7-0.7C181.9,281.2,181.2,281.4,180.8,281.9z"/>
	<path class="st0" d="M189.3,288.5c-0.5-0.2-0.9-0.5-1.2-0.9c-0.3-0.4-0.4-0.8-0.4-1.3h1.3c0,0.3,0.1,0.5,0.3,0.8
		c0.2,0.2,0.4,0.4,0.7,0.5c0.3,0.1,0.7,0.2,1.1,0.2c0.6,0,1.1-0.1,1.5-0.4c0.3-0.3,0.5-0.6,0.5-1.1c0-0.4-0.1-0.6-0.3-0.9
		s-0.5-0.4-0.9-0.4l-1.5-0.2c-0.7-0.1-1.3-0.4-1.7-0.8c-0.4-0.4-0.6-0.9-0.6-1.6c0-0.5,0.1-0.9,0.4-1.2c0.3-0.4,0.6-0.6,1.1-0.8
		c0.5-0.2,1-0.3,1.6-0.3c0.6,0,1.1,0.1,1.6,0.3c0.5,0.2,0.9,0.5,1.1,0.8s0.4,0.8,0.4,1.2h-1.3c0-0.2-0.1-0.5-0.3-0.7
		c-0.2-0.2-0.4-0.4-0.7-0.5c-0.3-0.1-0.6-0.2-1-0.2c-0.3,0-0.6,0.1-0.9,0.2c-0.3,0.1-0.5,0.3-0.6,0.4s-0.2,0.4-0.2,0.7
		c0,0.3,0.1,0.6,0.3,0.8c0.2,0.2,0.5,0.3,0.9,0.4l1.6,0.3c0.8,0.1,1.4,0.4,1.8,0.8c0.4,0.4,0.6,1,0.6,1.6c0,0.5-0.1,1-0.4,1.4
		c-0.3,0.4-0.6,0.7-1.1,0.9c-0.5,0.2-1,0.3-1.7,0.3C190.4,288.9,189.8,288.7,189.3,288.5z"/>
	<path class="st0" d="M202.1,288.7c-0.6,0-1.1-0.2-1.4-0.5c-0.4-0.3-0.5-0.8-0.5-1.3l0-5.4h-1.5l0-1.2h0.9c0.2,0,0.4-0.1,0.5-0.2
		c0.1-0.1,0.2-0.3,0.2-0.5v-1.4h1.2v2.1h2l0,1.2h-2l0,5.3c0,0.2,0.1,0.4,0.2,0.5c0.1,0.1,0.3,0.2,0.5,0.2h1.3v1.2H202.1z"/>
	<path class="st0" d="M211,280.5c0.5,0.3,0.8,0.7,1.1,1.2c0.3,0.5,0.4,1.1,0.4,1.7v5.3h-1.3v-5.2c0-0.7-0.2-1.3-0.5-1.7
		c-0.4-0.4-0.9-0.6-1.5-0.6c-0.5,0-0.9,0.1-1.3,0.3s-0.6,0.5-0.8,0.9c-0.2,0.4-0.3,0.9-0.3,1.4v4.8h-1.3v-11.5h1.3v2.7l0,1.7
		c0.3-0.5,0.6-0.8,1.1-1.1s1-0.4,1.6-0.4C210,280.1,210.5,280.2,211,280.5z"/>
	<path class="st0" d="M219.6,280.4c0.5,0.2,0.8,0.6,1.1,1s0.4,1,0.4,1.6v5.6h-1.3v-1.2c-0.3,0.5-0.6,0.8-1.1,1.1
		c-0.5,0.2-1.1,0.4-1.7,0.4c-0.6,0-1-0.1-1.5-0.3c-0.4-0.2-0.8-0.5-1-0.9c-0.2-0.4-0.4-0.8-0.4-1.3c0-0.4,0.1-0.8,0.3-1.2
		c0.2-0.4,0.5-0.7,0.9-0.9c0.4-0.2,0.8-0.4,1.3-0.4l2.5-0.2c0.2,0,0.3-0.1,0.4-0.2c0.1-0.1,0.2-0.3,0.2-0.6c0-0.3-0.1-0.6-0.2-0.9
		s-0.4-0.4-0.7-0.6c-0.3-0.1-0.6-0.2-1-0.2c-0.4,0-0.7,0.1-1,0.2c-0.3,0.1-0.6,0.3-0.7,0.5c-0.2,0.2-0.3,0.5-0.3,0.7h-1.3
		c0-0.5,0.2-0.9,0.5-1.3c0.3-0.4,0.7-0.7,1.2-0.9c0.5-0.2,1.1-0.3,1.6-0.3C218.6,280.1,219.1,280.2,219.6,280.4z M218.6,287.5
		c0.4-0.2,0.7-0.5,0.9-0.8c0.2-0.4,0.3-0.8,0.3-1.2v-1l-2.9,0.3c-0.4,0-0.8,0.2-1.1,0.5s-0.4,0.6-0.4,1c0,0.3,0.1,0.5,0.2,0.8
		c0.1,0.2,0.4,0.4,0.6,0.5c0.3,0.1,0.6,0.2,0.9,0.2C217.8,287.8,218.2,287.7,218.6,287.5z"/>
	<path class="st0" d="M225.7,288.7c-0.6,0-1.1-0.2-1.4-0.5c-0.4-0.3-0.5-0.8-0.5-1.3l0-5.4h-1.5l0-1.2h0.9c0.2,0,0.4-0.1,0.5-0.2
		c0.1-0.1,0.2-0.3,0.2-0.5v-1.4h1.2v2.1h2l0,1.2h-2l0,5.3c0,0.2,0.1,0.4,0.2,0.5c0.1,0.1,0.3,0.2,0.5,0.2h1.3v1.2H225.7z"/>
	<path class="st0" d="M22.5,298.2c0.5,0.3,0.8,0.7,1.1,1.2c0.3,0.5,0.4,1.1,0.4,1.7v5.3h-1.3v-5.2c0-0.7-0.2-1.3-0.5-1.7
		c-0.4-0.4-0.9-0.6-1.5-0.6c-0.5,0-0.9,0.1-1.3,0.3s-0.6,0.5-0.8,0.9c-0.2,0.4-0.3,0.9-0.3,1.4v4.8h-1.3v-11.5h1.3v2.7l0,1.7
		c0.3-0.5,0.6-0.8,1.1-1.1s1-0.4,1.6-0.4C21.5,297.7,22.1,297.9,22.5,298.2z"/>
	<path class="st0" d="M31.1,298.1c0.5,0.2,0.8,0.6,1.1,1s0.4,1,0.4,1.6v5.6h-1.3v-1.2c-0.3,0.5-0.6,0.8-1.1,1.1
		c-0.5,0.2-1.1,0.4-1.7,0.4c-0.6,0-1-0.1-1.5-0.3c-0.4-0.2-0.8-0.5-1-0.9c-0.2-0.4-0.4-0.8-0.4-1.3c0-0.4,0.1-0.8,0.3-1.2
		c0.2-0.4,0.5-0.7,0.9-0.9c0.4-0.2,0.8-0.4,1.3-0.4l2.5-0.2c0.2,0,0.3-0.1,0.4-0.2c0.1-0.1,0.2-0.3,0.2-0.6c0-0.3-0.1-0.6-0.2-0.9
		s-0.4-0.4-0.7-0.6c-0.3-0.1-0.6-0.2-1-0.2c-0.4,0-0.7,0.1-1,0.2c-0.3,0.1-0.6,0.3-0.7,0.5c-0.2,0.2-0.3,0.5-0.3,0.7h-1.3
		c0-0.5,0.2-0.9,0.5-1.3c0.3-0.4,0.7-0.7,1.2-0.9c0.5-0.2,1.1-0.3,1.6-0.3C30.1,297.7,30.7,297.9,31.1,298.1z M30.1,305.2
		c0.4-0.2,0.7-0.5,0.9-0.8c0.2-0.4,0.3-0.8,0.3-1.2v-1l-2.9,0.3c-0.4,0-0.8,0.2-1.1,0.5s-0.4,0.6-0.4,1c0,0.3,0.1,0.5,0.2,0.8
		c0.1,0.2,0.4,0.4,0.6,0.5c0.3,0.1,0.6,0.2,0.9,0.2C29.3,305.5,29.7,305.4,30.1,305.2z"/>
	<path class="st0" d="M38.5,306.4h-1.4l-3.3-8.4h1.4l2.6,6.9l2.5-6.9h1.4L38.5,306.4z"/>
	<path class="st0" d="M50.4,302.5h-6.7c0,0.6,0.2,1.1,0.5,1.5c0.3,0.4,0.6,0.8,1,1s0.9,0.4,1.4,0.4c0.4,0,0.7-0.1,1-0.2
		c0.3-0.1,0.6-0.3,0.8-0.5s0.4-0.4,0.5-0.7h1.3c-0.1,0.5-0.3,0.9-0.7,1.2c-0.4,0.4-0.8,0.7-1.3,0.9c-0.5,0.2-1.1,0.3-1.7,0.3
		c-0.8,0-1.5-0.2-2.1-0.6c-0.6-0.4-1.1-0.9-1.5-1.6c-0.4-0.7-0.5-1.4-0.5-2.3c0-0.8,0.2-1.6,0.5-2.2c0.4-0.7,0.8-1.2,1.5-1.6
		c0.6-0.4,1.3-0.6,2.1-0.6c0.7,0,1.4,0.2,2,0.6c0.6,0.4,1.1,0.9,1.4,1.6c0.3,0.7,0.5,1.4,0.5,2.3V302.5z M44.7,299.6
		c-0.5,0.4-0.8,1-0.9,1.8h5.3c-0.1-0.8-0.4-1.4-0.8-1.8c-0.4-0.4-1-0.7-1.7-0.7C45.8,298.9,45.2,299.1,44.7,299.6z"/>
	<path class="st0" d="M60.6,298.1c0.5,0.2,0.8,0.6,1.1,1s0.4,1,0.4,1.6v5.6h-1.3v-1.2c-0.3,0.5-0.6,0.8-1.1,1.1
		c-0.5,0.2-1.1,0.4-1.7,0.4c-0.6,0-1-0.1-1.5-0.3c-0.4-0.2-0.8-0.5-1-0.9c-0.2-0.4-0.4-0.8-0.4-1.3c0-0.4,0.1-0.8,0.3-1.2
		c0.2-0.4,0.5-0.7,0.9-0.9c0.4-0.2,0.8-0.4,1.3-0.4l2.5-0.2c0.2,0,0.3-0.1,0.4-0.2c0.1-0.1,0.2-0.3,0.2-0.6c0-0.3-0.1-0.6-0.2-0.9
		s-0.4-0.4-0.7-0.6c-0.3-0.1-0.6-0.2-1-0.2c-0.4,0-0.7,0.1-1,0.2c-0.3,0.1-0.6,0.3-0.7,0.5c-0.2,0.2-0.3,0.5-0.3,0.7h-1.3
		c0-0.5,0.2-0.9,0.5-1.3c0.3-0.4,0.7-0.7,1.2-0.9c0.5-0.2,1.1-0.3,1.6-0.3C59.6,297.7,60.1,297.9,60.6,298.1z M59.6,305.2
		c0.4-0.2,0.7-0.5,0.9-0.8c0.2-0.4,0.3-0.8,0.3-1.2v-1l-2.9,0.3c-0.4,0-0.8,0.2-1.1,0.5s-0.4,0.6-0.4,1c0,0.3,0.1,0.5,0.2,0.8
		c0.1,0.2,0.4,0.4,0.6,0.5c0.3,0.1,0.6,0.2,0.9,0.2C58.7,305.5,59.2,305.4,59.6,305.2z"/>
	<path class="st0" d="M65.7,306.4h-1.3v-11.5h1.3V306.4z"/>
	<path class="st0" d="M72.3,297.9v1.4H72c-0.8,0-1.4,0.2-1.8,0.7s-0.7,1.1-0.7,1.9v4.5h-1.3v-8.4h1.3v1.7c0.2-0.6,0.6-1,1-1.3
		s0.9-0.5,1.5-0.5H72.3z"/>
	<path class="st0" d="M81,302.5h-6.7c0,0.6,0.2,1.1,0.5,1.5c0.3,0.4,0.6,0.8,1,1s0.9,0.4,1.4,0.4c0.4,0,0.7-0.1,1-0.2
		c0.3-0.1,0.6-0.3,0.8-0.5s0.4-0.4,0.5-0.7h1.3c-0.1,0.5-0.3,0.9-0.7,1.2c-0.4,0.4-0.8,0.7-1.3,0.9c-0.5,0.2-1.1,0.3-1.7,0.3
		c-0.8,0-1.5-0.2-2.1-0.6c-0.6-0.4-1.1-0.9-1.5-1.6c-0.4-0.7-0.5-1.4-0.5-2.3c0-0.8,0.2-1.6,0.5-2.2c0.4-0.7,0.8-1.2,1.5-1.6
		c0.6-0.4,1.3-0.6,2.1-0.6c0.7,0,1.4,0.2,2,0.6c0.6,0.4,1.1,0.9,1.4,1.6c0.3,0.7,0.5,1.4,0.5,2.3V302.5z M75.3,299.6
		c-0.5,0.4-0.8,1-0.9,1.8h5.3c-0.1-0.8-0.4-1.4-0.8-1.8c-0.4-0.4-1-0.7-1.7-0.7C76.4,298.9,75.8,299.1,75.3,299.6z"/>
	<path class="st0" d="M87.7,298.1c0.5,0.2,0.8,0.6,1.1,1s0.4,1,0.4,1.6v5.6h-1.3v-1.2c-0.3,0.5-0.6,0.8-1.1,1.1
		c-0.5,0.2-1.1,0.4-1.7,0.4c-0.6,0-1-0.1-1.5-0.3c-0.4-0.2-0.8-0.5-1-0.9c-0.2-0.4-0.4-0.8-0.4-1.3c0-0.4,0.1-0.8,0.3-1.2
		c0.2-0.4,0.5-0.7,0.9-0.9c0.4-0.2,0.8-0.4,1.3-0.4l2.5-0.2c0.2,0,0.3-0.1,0.4-0.2c0.1-0.1,0.2-0.3,0.2-0.6c0-0.3-0.1-0.6-0.2-0.9
		s-0.4-0.4-0.7-0.6c-0.3-0.1-0.6-0.2-1-0.2c-0.4,0-0.7,0.1-1,0.2c-0.3,0.1-0.6,0.3-0.7,0.5c-0.2,0.2-0.3,0.5-0.3,0.7h-1.3
		c0-0.5,0.2-0.9,0.5-1.3c0.3-0.4,0.7-0.7,1.2-0.9c0.5-0.2,1.1-0.3,1.6-0.3C86.7,297.7,87.2,297.9,87.7,298.1z M86.7,305.2
		c0.4-0.2,0.7-0.5,0.9-0.8c0.2-0.4,0.3-0.8,0.3-1.2v-1l-2.9,0.3c-0.4,0-0.8,0.2-1.1,0.5s-0.4,0.6-0.4,1c0,0.3,0.1,0.5,0.2,0.8
		c0.1,0.2,0.4,0.4,0.6,0.5c0.3,0.1,0.6,0.2,0.9,0.2C85.8,305.5,86.3,305.4,86.7,305.2z"/>
	<path class="st0" d="M99.1,297.9L99.1,297.9l0,8.4h-1.3v-1.4c-0.3,0.5-0.7,0.9-1.3,1.2c-0.5,0.3-1.1,0.4-1.7,0.4
		c-0.8,0-1.4-0.2-2.1-0.6c-0.6-0.4-1.1-0.9-1.5-1.6c-0.4-0.7-0.5-1.4-0.5-2.2c0-0.8,0.2-1.6,0.5-2.2c0.3-0.7,0.8-1.2,1.5-1.6
		c0.6-0.4,1.3-0.6,2.1-0.6c0.6,0,1.2,0.1,1.7,0.4c0.5,0.3,0.9,0.7,1.3,1.2l0-4.5h1.3V297.9z M96.4,305c0.4-0.3,0.8-0.7,1-1.2
		c0.2-0.5,0.4-1,0.4-1.6s-0.1-1.2-0.4-1.6c-0.2-0.5-0.6-0.9-1-1.2c-0.4-0.3-0.9-0.4-1.4-0.4c-0.5,0-1,0.1-1.4,0.4
		c-0.4,0.3-0.8,0.7-1,1.2c-0.2,0.5-0.4,1-0.4,1.6s0.1,1.2,0.4,1.6c0.2,0.5,0.6,0.9,1,1.2c0.4,0.3,0.9,0.4,1.4,0.4
		C95.5,305.4,96,305.2,96.4,305z"/>
	<path class="st0" d="M100.9,309v-1.2h1.3c0.2,0,0.4-0.1,0.6-0.2c0.2-0.1,0.3-0.3,0.4-0.5l0.6-1.2l-3.3-7.9h1.4l2.6,6.4l2.5-6.4h1.4
		l-3.9,9.2c-0.2,0.6-0.5,1-0.9,1.4s-0.8,0.5-1.3,0.5H100.9z"/>
	<path class="st0" d="M114,306.2c-0.5-0.2-0.9-0.5-1.2-0.9c-0.3-0.4-0.4-0.8-0.4-1.3h1.3c0,0.3,0.1,0.5,0.3,0.8
		c0.2,0.2,0.4,0.4,0.7,0.5c0.3,0.1,0.7,0.2,1.1,0.2c0.6,0,1.1-0.1,1.5-0.4c0.3-0.3,0.5-0.6,0.5-1.1c0-0.4-0.1-0.6-0.3-0.9
		s-0.5-0.4-0.9-0.4l-1.5-0.2c-0.7-0.1-1.3-0.4-1.7-0.8c-0.4-0.4-0.6-0.9-0.6-1.6c0-0.5,0.1-0.9,0.4-1.2c0.3-0.4,0.6-0.6,1.1-0.8
		c0.5-0.2,1-0.3,1.6-0.3c0.6,0,1.1,0.1,1.6,0.3c0.5,0.2,0.9,0.5,1.1,0.8s0.4,0.8,0.4,1.2h-1.3c0-0.2-0.1-0.5-0.3-0.7
		c-0.2-0.2-0.4-0.4-0.7-0.5c-0.3-0.1-0.6-0.2-1-0.2c-0.3,0-0.6,0.1-0.9,0.2c-0.3,0.1-0.5,0.3-0.6,0.4s-0.2,0.4-0.2,0.7
		c0,0.3,0.1,0.6,0.3,0.8c0.2,0.2,0.5,0.3,0.9,0.4l1.6,0.3c0.8,0.1,1.4,0.4,1.8,0.8c0.4,0.4,0.6,1,0.6,1.6c0,0.5-0.1,1-0.4,1.4
		c-0.3,0.4-0.6,0.7-1.1,0.9c-0.5,0.2-1,0.3-1.7,0.3C115.1,306.6,114.5,306.4,114,306.2z"/>
	<path class="st0" d="M126.4,297.9h1.3v8.4h-1.3v-1.3c-0.3,0.5-0.6,0.9-1.1,1.1c-0.5,0.2-1,0.4-1.6,0.4c-0.6,0-1.2-0.1-1.6-0.4
		s-0.8-0.7-1.1-1.2c-0.3-0.5-0.4-1.1-0.4-1.7v-5.3h1.3v5.2c0,0.7,0.2,1.3,0.6,1.7c0.4,0.4,0.9,0.6,1.5,0.6c0.5,0,0.9-0.1,1.2-0.3
		c0.4-0.2,0.6-0.5,0.8-0.9s0.3-0.8,0.3-1.3V297.9z"/>
	<path class="st0" d="M136.5,298.3c0.6,0.4,1.1,0.9,1.5,1.6s0.5,1.4,0.5,2.2c0,0.8-0.2,1.6-0.5,2.2s-0.8,1.2-1.5,1.6
		c-0.6,0.4-1.3,0.6-2.1,0.6c-0.6,0-1.2-0.1-1.7-0.4c-0.5-0.3-0.9-0.7-1.3-1.2v0.5l0,3.5h-1.3v-11.1h1.3v1.4c0.3-0.5,0.7-0.9,1.3-1.2
		s1.1-0.4,1.7-0.4C135.2,297.7,135.9,297.9,136.5,298.3z M135.8,305c0.4-0.3,0.8-0.7,1-1.2c0.2-0.5,0.4-1,0.4-1.6s-0.1-1.2-0.4-1.6
		c-0.2-0.5-0.6-0.9-1-1.2c-0.4-0.3-0.9-0.4-1.4-0.4c-0.5,0-1,0.1-1.4,0.4c-0.4,0.3-0.8,0.7-1,1.2c-0.2,0.5-0.4,1-0.4,1.6
		s0.1,1.2,0.4,1.6c0.2,0.5,0.6,0.9,1,1.2c0.4,0.3,0.9,0.4,1.4,0.4C134.9,305.4,135.4,305.2,135.8,305z"/>
	<path class="st0" d="M146.7,298.3c0.6,0.4,1.1,0.9,1.5,1.6s0.5,1.4,0.5,2.2c0,0.8-0.2,1.6-0.5,2.2s-0.8,1.2-1.5,1.6
		c-0.6,0.4-1.3,0.6-2.1,0.6c-0.6,0-1.2-0.1-1.7-0.4c-0.5-0.3-0.9-0.7-1.3-1.2v0.5l0,3.5h-1.3v-11.1h1.3v1.4c0.3-0.5,0.7-0.9,1.3-1.2
		s1.1-0.4,1.7-0.4C145.4,297.7,146,297.9,146.7,298.3z M145.9,305c0.4-0.3,0.8-0.7,1-1.2c0.2-0.5,0.4-1,0.4-1.6s-0.1-1.2-0.4-1.6
		c-0.2-0.5-0.6-0.9-1-1.2c-0.4-0.3-0.9-0.4-1.4-0.4c-0.5,0-1,0.1-1.4,0.4c-0.4,0.3-0.8,0.7-1,1.2c-0.2,0.5-0.4,1-0.4,1.6
		s0.1,1.2,0.4,1.6c0.2,0.5,0.6,0.9,1,1.2c0.4,0.3,0.9,0.4,1.4,0.4C145,305.4,145.5,305.2,145.9,305z"/>
	<path class="st0" d="M151.8,306c-0.6-0.4-1.1-0.9-1.5-1.6c-0.4-0.7-0.5-1.4-0.5-2.3c0-0.8,0.2-1.6,0.5-2.3s0.9-1.2,1.5-1.6
		c0.6-0.4,1.4-0.6,2.2-0.6c0.8,0,1.5,0.2,2.2,0.6c0.6,0.4,1.2,0.9,1.5,1.6c0.4,0.7,0.5,1.4,0.5,2.3c0,0.8-0.2,1.6-0.6,2.3
		c-0.4,0.7-0.9,1.2-1.5,1.6c-0.6,0.4-1.4,0.6-2.2,0.6C153.2,306.6,152.5,306.4,151.8,306z M155.5,304.9c0.4-0.3,0.8-0.6,1-1.1
		c0.2-0.5,0.4-1,0.4-1.7c0-0.6-0.1-1.2-0.4-1.7c-0.2-0.5-0.6-0.9-1-1.1c-0.4-0.3-0.9-0.4-1.5-0.4s-1,0.1-1.5,0.4
		c-0.4,0.3-0.8,0.6-1,1.1c-0.2,0.5-0.4,1-0.4,1.7c0,0.6,0.1,1.2,0.4,1.7c0.2,0.5,0.6,0.9,1,1.1c0.4,0.3,0.9,0.4,1.5,0.4
		S155,305.2,155.5,304.9z"/>
	<path class="st0" d="M164.1,297.9v1.4h-0.3c-0.8,0-1.4,0.2-1.8,0.7s-0.7,1.1-0.7,1.9v4.5H160v-8.4h1.3v1.7c0.2-0.6,0.6-1,1-1.3
		s0.9-0.5,1.5-0.5H164.1z"/>
	<path class="st0" d="M167.6,306.4c-0.6,0-1.1-0.2-1.4-0.5c-0.4-0.3-0.5-0.8-0.5-1.3l0-5.4h-1.5l0-1.2h0.9c0.2,0,0.4-0.1,0.5-0.2
		c0.1-0.1,0.2-0.3,0.2-0.5v-1.4h1.2v2.1h2l0,1.2h-2l0,5.3c0,0.2,0.1,0.4,0.2,0.5c0.1,0.1,0.3,0.2,0.5,0.2h1.3v1.2H167.6z"/>
	<path class="st0" d="M178.2,302.5h-6.7c0,0.6,0.2,1.1,0.5,1.5c0.3,0.4,0.6,0.8,1,1s0.9,0.4,1.4,0.4c0.4,0,0.7-0.1,1-0.2
		c0.3-0.1,0.6-0.3,0.8-0.5s0.4-0.4,0.5-0.7h1.3c-0.1,0.5-0.3,0.9-0.7,1.2c-0.4,0.4-0.8,0.7-1.3,0.9c-0.5,0.2-1.1,0.3-1.7,0.3
		c-0.8,0-1.5-0.2-2.1-0.6c-0.6-0.4-1.1-0.9-1.5-1.6c-0.4-0.7-0.5-1.4-0.5-2.3c0-0.8,0.2-1.6,0.5-2.2c0.4-0.7,0.8-1.2,1.5-1.6
		c0.6-0.4,1.3-0.6,2.1-0.6c0.7,0,1.4,0.2,2,0.6c0.6,0.4,1.1,0.9,1.4,1.6c0.3,0.7,0.5,1.4,0.5,2.3V302.5z M172.5,299.6
		c-0.5,0.4-0.8,1-0.9,1.8h5.3c-0.1-0.8-0.4-1.4-0.8-1.8c-0.4-0.4-1-0.7-1.7-0.7C173.5,298.9,172.9,299.1,172.5,299.6z"/>
	<path class="st0" d="M187.6,297.9L187.6,297.9l0,8.4h-1.3v-1.4c-0.3,0.5-0.7,0.9-1.3,1.2c-0.5,0.3-1.1,0.4-1.7,0.4
		c-0.8,0-1.4-0.2-2.1-0.6c-0.6-0.4-1.1-0.9-1.5-1.6c-0.4-0.7-0.5-1.4-0.5-2.2c0-0.8,0.2-1.6,0.5-2.2c0.3-0.7,0.8-1.2,1.5-1.6
		c0.6-0.4,1.3-0.6,2.1-0.6c0.6,0,1.2,0.1,1.7,0.4c0.5,0.3,0.9,0.7,1.3,1.2l0-4.5h1.3V297.9z M184.9,305c0.4-0.3,0.8-0.7,1-1.2
		c0.2-0.5,0.4-1,0.4-1.6s-0.1-1.2-0.4-1.6c-0.2-0.5-0.6-0.9-1-1.2c-0.4-0.3-0.9-0.4-1.4-0.4c-0.5,0-1,0.1-1.4,0.4
		c-0.4,0.3-0.8,0.7-1,1.2c-0.2,0.5-0.4,1-0.4,1.6s0.1,1.2,0.4,1.6c0.2,0.5,0.6,0.9,1,1.2c0.4,0.3,0.9,0.4,1.4,0.4
		C184,305.4,184.5,305.2,184.9,305z"/>
	<path class="st0" d="M204.7,298.2c0.5,0.3,0.8,0.7,1.1,1.2c0.2,0.5,0.4,1.1,0.4,1.7v5.3h-1.3v-5.2c0-0.7-0.2-1.3-0.5-1.7
		s-0.8-0.6-1.4-0.6c-0.5,0-0.9,0.1-1.2,0.3c-0.3,0.2-0.6,0.5-0.8,0.9c-0.2,0.4-0.3,0.9-0.3,1.4v4.8h-1.3v-5.2c0-0.7-0.2-1.3-0.5-1.7
		c-0.4-0.4-0.8-0.6-1.5-0.6c-0.5,0-0.9,0.1-1.2,0.3s-0.6,0.5-0.8,0.9s-0.3,0.9-0.3,1.4v4.8h-1.3v-8.4h1.3v1.2c0.3-0.5,0.6-0.8,1-1.1
		c0.4-0.2,0.9-0.4,1.5-0.4c0.6,0,1.2,0.1,1.6,0.4c0.5,0.3,0.8,0.7,1.1,1.2c0.3-0.5,0.7-0.9,1.2-1.2c0.5-0.3,1-0.4,1.7-0.4
		C203.7,297.7,204.3,297.9,204.7,298.2z"/>
	<path class="st0" d="M214,297.9h1.3v8.4h-1.3v-1.3c-0.3,0.5-0.6,0.9-1.1,1.1c-0.5,0.2-1,0.4-1.6,0.4c-0.6,0-1.2-0.1-1.6-0.4
		s-0.8-0.7-1.1-1.2c-0.3-0.5-0.4-1.1-0.4-1.7v-5.3h1.3v5.2c0,0.7,0.2,1.3,0.6,1.7c0.4,0.4,0.9,0.6,1.5,0.6c0.5,0,0.9-0.1,1.2-0.3
		c0.4-0.2,0.6-0.5,0.8-0.9s0.3-0.8,0.3-1.3V297.9z"/>
	<path class="st0" d="M219.1,306.4h-1.3v-11.5h1.3V306.4z"/>
	<path class="st0" d="M223.9,306.4c-0.6,0-1.1-0.2-1.4-0.5c-0.4-0.3-0.5-0.8-0.5-1.3l0-5.4h-1.5l0-1.2h0.9c0.2,0,0.4-0.1,0.5-0.2
		c0.1-0.1,0.2-0.3,0.2-0.5v-1.4h1.2v2.1h2l0,1.2h-2l0,5.3c0,0.2,0.1,0.4,0.2,0.5c0.1,0.1,0.3,0.2,0.5,0.2h1.3v1.2H223.9z"/>
	<path class="st0" d="M227,296.4v-1.6h1.5v1.6H227z M228.4,306.4h-1.3v-8.4h1.3V306.4z"/>
	<path class="st0" d="M237.3,298.3c0.6,0.4,1.1,0.9,1.5,1.6s0.5,1.4,0.5,2.2c0,0.8-0.2,1.6-0.5,2.2s-0.8,1.2-1.5,1.6
		c-0.6,0.4-1.3,0.6-2.1,0.6c-0.6,0-1.2-0.1-1.7-0.4c-0.5-0.3-0.9-0.7-1.3-1.2v0.5l0,3.5h-1.3v-11.1h1.3v1.4c0.3-0.5,0.7-0.9,1.3-1.2
		s1.1-0.4,1.7-0.4C235.9,297.7,236.6,297.9,237.3,298.3z M236.5,305c0.4-0.3,0.8-0.7,1-1.2c0.2-0.5,0.4-1,0.4-1.6s-0.1-1.2-0.4-1.6
		c-0.2-0.5-0.6-0.9-1-1.2c-0.4-0.3-0.9-0.4-1.4-0.4c-0.5,0-1,0.1-1.4,0.4c-0.4,0.3-0.8,0.7-1,1.2c-0.2,0.5-0.4,1-0.4,1.6
		s0.1,1.2,0.4,1.6c0.2,0.5,0.6,0.9,1,1.2c0.4,0.3,0.9,0.4,1.4,0.4C235.6,305.4,236.1,305.2,236.5,305z"/>
	<path class="st0" d="M242.4,306.4H241v-11.5h1.3V306.4z"/>
	<path class="st0" d="M249.7,298.1c0.5,0.2,0.8,0.6,1.1,1s0.4,1,0.4,1.6v5.6h-1.3v-1.2c-0.3,0.5-0.6,0.8-1.1,1.1
		c-0.5,0.2-1.1,0.4-1.7,0.4c-0.6,0-1-0.1-1.5-0.3c-0.4-0.2-0.8-0.5-1-0.9c-0.2-0.4-0.4-0.8-0.4-1.3c0-0.4,0.1-0.8,0.3-1.2
		c0.2-0.4,0.5-0.7,0.9-0.9c0.4-0.2,0.8-0.4,1.3-0.4l2.5-0.2c0.2,0,0.3-0.1,0.4-0.2c0.1-0.1,0.2-0.3,0.2-0.6c0-0.3-0.1-0.6-0.2-0.9
		s-0.4-0.4-0.7-0.6c-0.3-0.1-0.6-0.2-1-0.2c-0.4,0-0.7,0.1-1,0.2c-0.3,0.1-0.6,0.3-0.7,0.5c-0.2,0.2-0.3,0.5-0.3,0.7h-1.3
		c0-0.5,0.2-0.9,0.5-1.3c0.3-0.4,0.7-0.7,1.2-0.9c0.5-0.2,1.1-0.3,1.6-0.3C248.7,297.7,249.2,297.9,249.7,298.1z M248.7,305.2
		c0.4-0.2,0.7-0.5,0.9-0.8c0.2-0.4,0.3-0.8,0.3-1.2v-1l-2.9,0.3c-0.4,0-0.8,0.2-1.1,0.5s-0.4,0.6-0.4,1c0,0.3,0.1,0.5,0.2,0.8
		c0.1,0.2,0.4,0.4,0.6,0.5c0.3,0.1,0.6,0.2,0.9,0.2C247.9,305.5,248.3,305.4,248.7,305.2z"/>
	<path class="st0" d="M255.8,306.4c-0.6,0-1.1-0.2-1.4-0.5c-0.4-0.3-0.5-0.8-0.5-1.3l0-5.4h-1.5l0-1.2h0.9c0.2,0,0.4-0.1,0.5-0.2
		c0.1-0.1,0.2-0.3,0.2-0.5v-1.4h1.2v2.1h2l0,1.2h-2l0,5.3c0,0.2,0.1,0.4,0.2,0.5c0.1,0.1,0.3,0.2,0.5,0.2h1.3v1.2H255.8z"/>
	<path class="st0" d="M259.4,306.4v-7.2h-1.5v-1.2h1.5v-1.3c0-0.6,0.2-1,0.5-1.3c0.3-0.3,0.8-0.5,1.4-0.5h1.5v1.2h-1.4
		c-0.2,0-0.4,0.1-0.5,0.2s-0.2,0.3-0.2,0.5v1.2h2.1v1.2h-2.1v7.2H259.4z"/>
	<path class="st0" d="M265.7,306c-0.6-0.4-1.1-0.9-1.5-1.6c-0.4-0.7-0.5-1.4-0.5-2.3c0-0.8,0.2-1.6,0.5-2.3s0.9-1.2,1.5-1.6
		c0.6-0.4,1.4-0.6,2.2-0.6c0.8,0,1.5,0.2,2.2,0.6c0.6,0.4,1.2,0.9,1.5,1.6c0.4,0.7,0.5,1.4,0.5,2.3c0,0.8-0.2,1.6-0.6,2.3
		c-0.4,0.7-0.9,1.2-1.5,1.6c-0.6,0.4-1.4,0.6-2.2,0.6C267,306.6,266.3,306.4,265.7,306z M269.3,304.9c0.4-0.3,0.8-0.6,1-1.1
		c0.2-0.5,0.4-1,0.4-1.7c0-0.6-0.1-1.2-0.4-1.7c-0.2-0.5-0.6-0.9-1-1.1c-0.4-0.3-0.9-0.4-1.5-0.4s-1,0.1-1.5,0.4
		c-0.4,0.3-0.8,0.6-1,1.1c-0.2,0.5-0.4,1-0.4,1.7c0,0.6,0.1,1.2,0.4,1.7c0.2,0.5,0.6,0.9,1,1.1c0.4,0.3,0.9,0.4,1.5,0.4
		S268.9,305.2,269.3,304.9z"/>
	<path class="st0" d="M278,297.9v1.4h-0.3c-0.8,0-1.4,0.2-1.8,0.7s-0.7,1.1-0.7,1.9v4.5h-1.3v-8.4h1.3v1.7c0.2-0.6,0.6-1,1-1.3
		s0.9-0.5,1.5-0.5H278z"/>
	<path class="st0" d="M290.4,298.2c0.5,0.3,0.8,0.7,1.1,1.2c0.2,0.5,0.4,1.1,0.4,1.7v5.3h-1.3v-5.2c0-0.7-0.2-1.3-0.5-1.7
		s-0.8-0.6-1.4-0.6c-0.5,0-0.9,0.1-1.2,0.3c-0.3,0.2-0.6,0.5-0.8,0.9c-0.2,0.4-0.3,0.9-0.3,1.4v4.8H285v-5.2c0-0.7-0.2-1.3-0.5-1.7
		c-0.4-0.4-0.8-0.6-1.5-0.6c-0.5,0-0.9,0.1-1.2,0.3s-0.6,0.5-0.8,0.9s-0.3,0.9-0.3,1.4v4.8h-1.3v-8.4h1.3v1.2c0.3-0.5,0.6-0.8,1-1.1
		c0.4-0.2,0.9-0.4,1.5-0.4c0.6,0,1.2,0.1,1.6,0.4c0.5,0.3,0.8,0.7,1.1,1.2c0.3-0.5,0.7-0.9,1.2-1.2c0.5-0.3,1-0.4,1.7-0.4
		C289.4,297.7,289.9,297.9,290.4,298.2z"/>
</g>
</svg>
