<?xml version="1.0" encoding="utf-8"?>
<!-- Generator: Adobe Illustrator 24.1.2, SVG Export Plug-In . SVG Version: 6.00 Build 0)  -->
<svg version="1.1" id="Layer_1" xmlns="http://www.w3.org/2000/svg" xmlns:xlink="http://www.w3.org/1999/xlink" x="0px" y="0px"
	 viewBox="0 0 600 309" style="enable-background:new 0 0 600 309;" xml:space="preserve">
<style type="text/css">
	.st0{fill:#777A80;}
	.st1{fill:#F3F3F3;}
	.st2{fill:url(#SVGID_1_);}
	.st3{fill:#FFFFFF;}
	.st4{fill:url(#SVGID_2_);}
	.st5{fill:url(#SVGID_3_);}
</style>
<g>
	<radialGradient id="SVGID_1_" cx="201.5526" cy="262.1428" r="200.0321" gradientUnits="userSpaceOnUse">
		<stop  offset="0" style="stop-color:#E44857"/>
		<stop  offset="5.455017e-02" style="stop-color:#DA4968"/>
		<stop  offset="0.2163" style="stop-color:#BE4C96"/>
		<stop  offset="0.3787" style="stop-color:#A74EBC"/>
		<stop  offset="0.5393" style="stop-color:#9650D9"/>
		<stop  offset="0.6976" style="stop-color:#8951EE"/>
		<stop  offset="0.8525" style="stop-color:#8252FB"/>
		<stop  offset="1" style="stop-color:#7F52FF"/>
	</radialGradient>
	<path class="st2" d="M382.6,217.2l-165.3,0c-10.3,0-18.6,8.3-18.6,18.6v0c0,10.3,8.3,18.6,18.6,18.6l165.3,0
		c10.3,0,18.6-8.3,18.6-18.6v0C401.3,225.5,392.9,217.2,382.6,217.2z"/>
	<g>
		<path class="st3" d="M216.3,241c-0.9-0.5-1.5-1.2-2-2.1c-0.5-0.9-0.7-1.9-0.7-3c0-1.1,0.2-2.1,0.7-3c0.5-0.9,1.2-1.6,2-2.1
			s1.8-0.8,2.9-0.8c0.9,0,1.7,0.2,2.4,0.6c0.8,0.4,1.4,0.9,1.9,1.5s0.8,1.3,0.9,2H223c-0.1-0.5-0.3-0.9-0.7-1.4
			c-0.4-0.4-0.8-0.8-1.4-1s-1.1-0.4-1.7-0.4c-0.8,0-1.5,0.2-2.2,0.6s-1.1,1-1.5,1.7c-0.4,0.7-0.5,1.5-0.5,2.4s0.2,1.7,0.5,2.4
			c0.4,0.7,0.9,1.3,1.5,1.7c0.6,0.4,1.4,0.6,2.2,0.6c0.6,0,1.2-0.1,1.7-0.4s1-0.6,1.4-1c0.4-0.4,0.6-0.9,0.7-1.4h1.4
			c-0.1,0.7-0.4,1.4-0.9,2s-1.1,1.1-1.9,1.5c-0.8,0.4-1.6,0.6-2.4,0.6C218.1,241.8,217.2,241.5,216.3,241z"/>
		<path class="st3" d="M227.7,241.2c-0.6-0.4-1.1-0.9-1.5-1.6c-0.4-0.7-0.5-1.4-0.5-2.3c0-0.8,0.2-1.6,0.5-2.3s0.9-1.2,1.5-1.6
			c0.6-0.4,1.4-0.6,2.2-0.6c0.8,0,1.5,0.2,2.2,0.6c0.6,0.4,1.2,0.9,1.5,1.6c0.4,0.7,0.5,1.4,0.5,2.3c0,0.8-0.2,1.6-0.6,2.3
			c-0.4,0.7-0.9,1.2-1.5,1.6c-0.6,0.4-1.4,0.6-2.2,0.6C229.1,241.8,228.3,241.6,227.7,241.2z M231.3,240.2c0.4-0.3,0.8-0.6,1-1.1
			c0.2-0.5,0.4-1,0.4-1.7c0-0.6-0.1-1.2-0.4-1.7c-0.2-0.5-0.6-0.9-1-1.1c-0.4-0.3-0.9-0.4-1.5-0.4s-1,0.1-1.5,0.4
			c-0.4,0.3-0.8,0.6-1,1.1c-0.2,0.5-0.4,1-0.4,1.7c0,0.6,0.1,1.2,0.4,1.7c0.2,0.5,0.6,0.9,1,1.1c0.4,0.3,0.9,0.4,1.5,0.4
			S230.9,240.4,231.3,240.2z"/>
		<path class="st3" d="M246.9,233.4c0.5,0.3,0.8,0.7,1.1,1.2c0.2,0.5,0.4,1.1,0.4,1.7v5.3H247v-5.2c0-0.7-0.2-1.3-0.5-1.7
			s-0.8-0.6-1.4-0.6c-0.5,0-0.9,0.1-1.2,0.3c-0.3,0.2-0.6,0.5-0.8,0.9c-0.2,0.4-0.3,0.9-0.3,1.4v4.8h-1.3v-5.2
			c0-0.7-0.2-1.3-0.5-1.7c-0.4-0.4-0.8-0.6-1.5-0.6c-0.5,0-0.9,0.1-1.2,0.3s-0.6,0.5-0.8,0.9s-0.3,0.9-0.3,1.4v4.8h-1.3v-8.4h1.3
			v1.2c0.3-0.5,0.6-0.8,1-1.1c0.4-0.2,0.9-0.4,1.5-0.4c0.6,0,1.2,0.1,1.6,0.4c0.5,0.3,0.8,0.7,1.1,1.2c0.3-0.5,0.7-0.9,1.2-1.2
			c0.5-0.3,1-0.4,1.7-0.4C245.9,233,246.4,233.1,246.9,233.4z"/>
		<path class="st3" d="M261.6,233.4c0.5,0.3,0.8,0.7,1.1,1.2c0.2,0.5,0.4,1.1,0.4,1.7v5.3h-1.3v-5.2c0-0.7-0.2-1.3-0.5-1.7
			s-0.8-0.6-1.4-0.6c-0.5,0-0.9,0.1-1.2,0.3c-0.3,0.2-0.6,0.5-0.8,0.9c-0.2,0.4-0.3,0.9-0.3,1.4v4.8h-1.3v-5.2
			c0-0.7-0.2-1.3-0.5-1.7c-0.4-0.4-0.8-0.6-1.5-0.6c-0.5,0-0.9,0.1-1.2,0.3s-0.6,0.5-0.8,0.9s-0.3,0.9-0.3,1.4v4.8h-1.3v-8.4h1.3
			v1.2c0.3-0.5,0.6-0.8,1-1.1c0.4-0.2,0.9-0.4,1.5-0.4c0.6,0,1.2,0.1,1.6,0.4c0.5,0.3,0.8,0.7,1.1,1.2c0.3-0.5,0.7-0.9,1.2-1.2
			c0.5-0.3,1-0.4,1.7-0.4C260.6,233,261.1,233.1,261.6,233.4z"/>
		<path class="st3" d="M266.7,241.2c-0.6-0.4-1.1-0.9-1.5-1.6c-0.4-0.7-0.5-1.4-0.5-2.3c0-0.8,0.2-1.6,0.5-2.3s0.9-1.2,1.5-1.6
			c0.6-0.4,1.4-0.6,2.2-0.6c0.8,0,1.5,0.2,2.2,0.6c0.6,0.4,1.2,0.9,1.5,1.6c0.4,0.7,0.5,1.4,0.5,2.3c0,0.8-0.2,1.6-0.6,2.3
			c-0.4,0.7-0.9,1.2-1.5,1.6c-0.6,0.4-1.4,0.6-2.2,0.6C268.1,241.8,267.3,241.6,266.7,241.2z M270.3,240.2c0.4-0.3,0.8-0.6,1-1.1
			c0.2-0.5,0.4-1,0.4-1.7c0-0.6-0.1-1.2-0.4-1.7c-0.2-0.5-0.6-0.9-1-1.1c-0.4-0.3-0.9-0.4-1.5-0.4s-1,0.1-1.5,0.4
			c-0.4,0.3-0.8,0.6-1,1.1c-0.2,0.5-0.4,1-0.4,1.7c0,0.6,0.1,1.2,0.4,1.7c0.2,0.5,0.6,0.9,1,1.1c0.4,0.3,0.9,0.4,1.5,0.4
			S269.9,240.4,270.3,240.2z"/>
		<path class="st3" d="M280.5,233.4c0.5,0.3,0.8,0.7,1.1,1.2c0.3,0.5,0.4,1.1,0.4,1.7v5.3h-1.3v-5.2c0-0.7-0.2-1.3-0.6-1.7
			s-0.9-0.6-1.5-0.6c-0.5,0-0.9,0.1-1.2,0.3s-0.6,0.5-0.8,0.9c-0.2,0.4-0.3,0.8-0.3,1.3v5h-1.3v-8.4h1.3v1.3
			c0.3-0.5,0.6-0.9,1.1-1.1c0.5-0.2,1-0.4,1.6-0.4C279.5,233,280.1,233.1,280.5,233.4z"/>
		<path class="st3" d="M289.7,241.6h-1.4v-11.5h1.7l4.1,9.4l0.2,0.6l0.2-0.6l4-9.4h1.8v11.5H299V232l-4,9.5h-1.2l-4.1-9.5V241.6z"/>
		<path class="st3" d="M308.7,233.2h1.3v8.4h-1.3v-1.3c-0.3,0.5-0.6,0.9-1.1,1.1c-0.5,0.2-1,0.4-1.6,0.4c-0.6,0-1.2-0.1-1.6-0.4
			s-0.8-0.7-1.1-1.2c-0.3-0.5-0.4-1.1-0.4-1.7v-5.3h1.3v5.2c0,0.7,0.2,1.3,0.6,1.7c0.4,0.4,0.9,0.6,1.5,0.6c0.5,0,0.9-0.1,1.2-0.3
			c0.4-0.2,0.6-0.5,0.8-0.9s0.3-0.8,0.3-1.3V233.2z"/>
		<path class="st3" d="M313.9,241.6h-1.3v-11.5h1.3V241.6z"/>
		<path class="st3" d="M318.6,241.6c-0.6,0-1.1-0.2-1.4-0.5c-0.4-0.3-0.5-0.8-0.5-1.3l0-5.4h-1.5l0-1.2h0.9c0.2,0,0.4-0.1,0.5-0.2
			c0.1-0.1,0.2-0.3,0.2-0.5v-1.4h1.2v2.1h2l0,1.2h-2l0,5.3c0,0.2,0.1,0.4,0.2,0.5c0.1,0.1,0.3,0.2,0.5,0.2h1.3v1.2H318.6z"/>
		<path class="st3" d="M321.8,231.6v-1.6h1.5v1.6H321.8z M323.2,241.6h-1.3v-8.4h1.3V241.6z"/>
		<path class="st3" d="M332,233.5c0.6,0.4,1.1,0.9,1.5,1.6s0.5,1.4,0.5,2.2c0,0.8-0.2,1.6-0.5,2.2s-0.8,1.2-1.5,1.6
			c-0.6,0.4-1.3,0.6-2.1,0.6c-0.6,0-1.2-0.1-1.7-0.4c-0.5-0.3-0.9-0.7-1.3-1.2v0.5l0,3.5h-1.3v-11.1h1.3v1.4
			c0.3-0.5,0.7-0.9,1.3-1.2s1.1-0.4,1.7-0.4C330.7,233,331.4,233.2,332,233.5z M331.2,240.2c0.4-0.3,0.8-0.7,1-1.2
			c0.2-0.5,0.4-1,0.4-1.6s-0.1-1.2-0.4-1.6c-0.2-0.5-0.6-0.9-1-1.2c-0.4-0.3-0.9-0.4-1.4-0.4c-0.5,0-1,0.1-1.4,0.4
			c-0.4,0.3-0.8,0.7-1,1.2c-0.2,0.5-0.4,1-0.4,1.6s0.1,1.2,0.4,1.6c0.2,0.5,0.6,0.9,1,1.2c0.4,0.3,0.9,0.4,1.4,0.4
			C330.3,240.6,330.8,240.4,331.2,240.2z"/>
		<path class="st3" d="M337.1,241.6h-1.3v-11.5h1.3V241.6z"/>
		<path class="st3" d="M344.4,233.3c0.5,0.2,0.8,0.6,1.1,1s0.4,1,0.4,1.6v5.6h-1.3v-1.2c-0.3,0.5-0.6,0.8-1.1,1.1
			c-0.5,0.2-1.1,0.4-1.7,0.4c-0.6,0-1-0.1-1.5-0.3c-0.4-0.2-0.8-0.5-1-0.9c-0.2-0.4-0.4-0.8-0.4-1.3c0-0.4,0.1-0.8,0.3-1.2
			c0.2-0.4,0.5-0.7,0.9-0.9c0.4-0.2,0.8-0.4,1.3-0.4l2.5-0.2c0.2,0,0.3-0.1,0.4-0.2c0.1-0.1,0.2-0.3,0.2-0.6c0-0.3-0.1-0.6-0.2-0.9
			s-0.4-0.4-0.7-0.6c-0.3-0.1-0.6-0.2-1-0.2c-0.4,0-0.7,0.1-1,0.2c-0.3,0.1-0.6,0.3-0.7,0.5c-0.2,0.2-0.3,0.5-0.3,0.7h-1.3
			c0-0.5,0.2-0.9,0.5-1.3c0.3-0.4,0.7-0.7,1.2-0.9c0.5-0.2,1.1-0.3,1.6-0.3C343.4,233,344,233.1,344.4,233.3z M343.4,240.5
			c0.4-0.2,0.7-0.5,0.9-0.8c0.2-0.4,0.3-0.8,0.3-1.2v-1l-2.9,0.3c-0.4,0-0.8,0.2-1.1,0.5s-0.4,0.6-0.4,1c0,0.3,0.1,0.5,0.2,0.8
			c0.1,0.2,0.4,0.4,0.6,0.5c0.3,0.1,0.6,0.2,0.9,0.2C342.6,240.7,343,240.6,343.4,240.5z"/>
		<path class="st3" d="M350.5,241.6c-0.6,0-1.1-0.2-1.4-0.5c-0.4-0.3-0.5-0.8-0.5-1.3l0-5.4H347l0-1.2h0.9c0.2,0,0.4-0.1,0.5-0.2
			c0.1-0.1,0.2-0.3,0.2-0.5v-1.4h1.2v2.1h2l0,1.2h-2l0,5.3c0,0.2,0.1,0.4,0.2,0.5c0.1,0.1,0.3,0.2,0.5,0.2h1.3v1.2H350.5z"/>
		<path class="st3" d="M354.1,241.6v-7.2h-1.5v-1.2h1.5v-1.3c0-0.6,0.2-1,0.5-1.3c0.3-0.3,0.8-0.5,1.4-0.5h1.5v1.2h-1.4
			c-0.2,0-0.4,0.1-0.5,0.2s-0.2,0.3-0.2,0.5v1.2h2.1v1.2h-2.1v7.2H354.1z"/>
		<path class="st3" d="M360.4,241.2c-0.6-0.4-1.1-0.9-1.5-1.6c-0.4-0.7-0.5-1.4-0.5-2.3c0-0.8,0.2-1.6,0.5-2.3s0.9-1.2,1.5-1.6
			c0.6-0.4,1.4-0.6,2.2-0.6c0.8,0,1.5,0.2,2.2,0.6c0.6,0.4,1.2,0.9,1.5,1.6c0.4,0.7,0.5,1.4,0.5,2.3c0,0.8-0.2,1.6-0.6,2.3
			c-0.4,0.7-0.9,1.2-1.5,1.6c-0.6,0.4-1.4,0.6-2.2,0.6C361.8,241.8,361.1,241.6,360.4,241.2z M364.1,240.2c0.4-0.3,0.8-0.6,1-1.1
			c0.2-0.5,0.4-1,0.4-1.7c0-0.6-0.1-1.2-0.4-1.7c-0.2-0.5-0.6-0.9-1-1.1c-0.4-0.3-0.9-0.4-1.5-0.4s-1,0.1-1.5,0.4
			c-0.4,0.3-0.8,0.6-1,1.1c-0.2,0.5-0.4,1-0.4,1.7c0,0.6,0.1,1.2,0.4,1.7c0.2,0.5,0.6,0.9,1,1.1c0.4,0.3,0.9,0.4,1.5,0.4
			S363.6,240.4,364.1,240.2z"/>
		<path class="st3" d="M372.7,233.1v1.4h-0.3c-0.8,0-1.4,0.2-1.8,0.7s-0.7,1.1-0.7,1.9v4.5h-1.3v-8.4h1.3v1.7c0.2-0.6,0.6-1,1-1.3
			s0.9-0.5,1.5-0.5H372.7z"/>
		<path class="st3" d="M385.1,233.4c0.5,0.3,0.8,0.7,1.1,1.2c0.2,0.5,0.4,1.1,0.4,1.7v5.3h-1.3v-5.2c0-0.7-0.2-1.3-0.5-1.7
			s-0.8-0.6-1.4-0.6c-0.5,0-0.9,0.1-1.2,0.3c-0.3,0.2-0.6,0.5-0.8,0.9c-0.2,0.4-0.3,0.9-0.3,1.4v4.8h-1.3v-5.2
			c0-0.7-0.2-1.3-0.5-1.7c-0.4-0.4-0.8-0.6-1.5-0.6c-0.5,0-0.9,0.1-1.2,0.3s-0.6,0.5-0.8,0.9s-0.3,0.9-0.3,1.4v4.8h-1.3v-8.4h1.3
			v1.2c0.3-0.5,0.6-0.8,1-1.1c0.4-0.2,0.9-0.4,1.5-0.4c0.6,0,1.2,0.1,1.6,0.4c0.5,0.3,0.8,0.7,1.1,1.2c0.3-0.5,0.7-0.9,1.2-1.2
			c0.5-0.3,1-0.4,1.7-0.4C384.1,233,384.7,233.1,385.1,233.4z"/>
	</g>
	<g>
		<path class="st1" d="M381.4,0l-59.9,0c-10.3,0-18.6,8.3-18.6,18.6v0c0,10.3,8.3,18.6,18.6,18.6l59.9,0c10.3,0,18.6-8.3,18.6-18.6
			v0C400,8.3,391.7,0,381.4,0z"/>
		<g>
			<path d="M323.7,23.8h-1.5l4.1-11.5h1.7l4.3,11.5h-1.4l-1.1-3.1h-5.1L323.7,23.8z M327,14.1l-1.9,5.5h4.2l-2-5.5l-0.2-0.7
				L327,14.1z"/>
			<path d="M339.4,15.6c0.5,0.3,0.8,0.7,1.1,1.2c0.3,0.5,0.4,1.1,0.4,1.7v5.3h-1.3v-5.2c0-0.7-0.2-1.3-0.6-1.7s-0.9-0.6-1.5-0.6
				c-0.5,0-0.9,0.1-1.2,0.3s-0.6,0.5-0.8,0.9c-0.2,0.4-0.3,0.8-0.3,1.3v5h-1.3v-8.4h1.3v1.3c0.3-0.5,0.6-0.9,1.1-1.1
				c0.5-0.2,1-0.4,1.6-0.4C338.4,15.2,338.9,15.3,339.4,15.6z"/>
			<path d="M350.8,15.4L350.8,15.4l0,8.4h-1.3v-1.4c-0.3,0.5-0.7,0.9-1.3,1.2c-0.5,0.3-1.1,0.4-1.7,0.4c-0.8,0-1.4-0.2-2.1-0.6
				c-0.6-0.4-1.1-0.9-1.5-1.6c-0.4-0.7-0.5-1.4-0.5-2.2c0-0.8,0.2-1.6,0.5-2.2c0.3-0.7,0.8-1.2,1.5-1.6c0.6-0.4,1.3-0.6,2.1-0.6
				c0.6,0,1.2,0.1,1.7,0.4c0.5,0.3,0.9,0.7,1.3,1.2l0-4.5h1.3V15.4z M348.1,22.4c0.4-0.3,0.8-0.7,1-1.2c0.2-0.5,0.4-1,0.4-1.6
				s-0.1-1.2-0.4-1.6c-0.2-0.5-0.6-0.9-1-1.2c-0.4-0.3-0.9-0.4-1.4-0.4c-0.5,0-1,0.1-1.4,0.4c-0.4,0.3-0.8,0.7-1,1.2
				c-0.2,0.5-0.4,1-0.4,1.6s0.1,1.2,0.4,1.6c0.2,0.5,0.6,0.9,1,1.2c0.4,0.3,0.9,0.4,1.4,0.4C347.2,22.8,347.7,22.7,348.1,22.4z"/>
			<path d="M357.3,15.3v1.4H357c-0.8,0-1.4,0.2-1.8,0.7s-0.7,1.1-0.7,1.9v4.5h-1.3v-8.4h1.3v1.7c0.2-0.6,0.6-1,1-1.3
				c0.4-0.3,0.9-0.5,1.5-0.5H357.3z"/>
			<path d="M360.1,23.4c-0.6-0.4-1.1-0.9-1.5-1.6c-0.4-0.7-0.5-1.4-0.5-2.3c0-0.8,0.2-1.6,0.5-2.3s0.9-1.2,1.5-1.6
				c0.6-0.4,1.4-0.6,2.2-0.6c0.8,0,1.5,0.2,2.2,0.6c0.6,0.4,1.2,0.9,1.5,1.6c0.4,0.7,0.5,1.4,0.5,2.3c0,0.8-0.2,1.6-0.6,2.3
				c-0.4,0.7-0.9,1.2-1.5,1.6c-0.6,0.4-1.4,0.6-2.2,0.6C361.4,24,360.7,23.8,360.1,23.4z M363.7,22.4c0.4-0.3,0.8-0.6,1-1.1
				c0.2-0.5,0.4-1,0.4-1.7c0-0.6-0.1-1.2-0.4-1.7c-0.2-0.5-0.6-0.9-1-1.1c-0.4-0.3-0.9-0.4-1.5-0.4s-1,0.1-1.5,0.4
				c-0.4,0.3-0.8,0.6-1,1.1c-0.2,0.5-0.4,1-0.4,1.7c0,0.6,0.1,1.2,0.4,1.7c0.2,0.5,0.6,0.9,1,1.1c0.4,0.3,0.9,0.4,1.5,0.4
				S363.3,22.6,363.7,22.4z"/>
			<path d="M368.2,13.9v-1.6h1.5v1.6H368.2z M369.6,23.8h-1.3v-8.4h1.3V23.8z"/>
			<path d="M379.7,15.4L379.7,15.4l0,8.4h-1.3v-1.4c-0.3,0.5-0.7,0.9-1.3,1.2c-0.5,0.3-1.1,0.4-1.7,0.4c-0.8,0-1.4-0.2-2.1-0.6
				c-0.6-0.4-1.1-0.9-1.5-1.6c-0.4-0.7-0.5-1.4-0.5-2.2c0-0.8,0.2-1.6,0.5-2.2c0.3-0.7,0.8-1.2,1.5-1.6c0.6-0.4,1.3-0.6,2.1-0.6
				c0.6,0,1.2,0.1,1.7,0.4c0.5,0.3,0.9,0.7,1.3,1.2l0-4.5h1.3V15.4z M377,22.4c0.4-0.3,0.8-0.7,1-1.2c0.2-0.5,0.4-1,0.4-1.6
				s-0.1-1.2-0.4-1.6c-0.2-0.5-0.6-0.9-1-1.2c-0.4-0.3-0.9-0.4-1.4-0.4c-0.5,0-1,0.1-1.4,0.4c-0.4,0.3-0.8,0.7-1,1.2
				c-0.2,0.5-0.4,1-0.4,1.6s0.1,1.2,0.4,1.6c0.2,0.5,0.6,0.9,1,1.2c0.4,0.3,0.9,0.4,1.4,0.4C376.1,22.8,376.6,22.7,377,22.4z"/>
		</g>
	</g>
	<g>
		<path class="st1" d="M481.4,0l-59.9,0c-10.3,0-18.6,8.3-18.6,18.6v0c0,10.3,8.3,18.6,18.6,18.6l59.9,0c10.3,0,18.6-8.3,18.6-18.6
			v0C500,8.3,491.7,0,481.4,0z"/>
		<g>
			<path d="M439.5,13.9v-1.6h1.5v1.6H439.5z M440.9,23.8h-1.3v-8.4h1.3V23.8z"/>
			<path d="M445.7,23.2c-0.9-0.5-1.5-1.2-2-2.1c-0.5-0.9-0.7-1.9-0.7-3c0-1.1,0.2-2.1,0.7-3c0.5-0.9,1.2-1.6,2-2.1
				c0.9-0.5,1.8-0.8,2.9-0.8c1.1,0,2,0.3,2.9,0.8c0.9,0.5,1.5,1.2,2,2.1c0.5,0.9,0.7,1.9,0.7,3c0,1.1-0.2,2.1-0.7,3
				c-0.5,0.9-1.2,1.6-2,2.1c-0.9,0.5-1.8,0.8-2.9,0.8C447.5,24,446.6,23.7,445.7,23.2z M450.8,22.1c0.7-0.4,1.2-1,1.5-1.7
				c0.4-0.7,0.6-1.5,0.6-2.4c0-0.9-0.2-1.7-0.5-2.4c-0.4-0.7-0.9-1.3-1.5-1.7s-1.4-0.6-2.2-0.6c-0.8,0-1.5,0.2-2.2,0.6
				s-1.2,1-1.5,1.7c-0.4,0.7-0.6,1.5-0.6,2.4s0.2,1.7,0.6,2.4c0.4,0.7,0.9,1.3,1.5,1.7c0.6,0.4,1.4,0.6,2.2,0.6
				C449.4,22.7,450.1,22.5,450.8,22.1z"/>
			<path d="M457.7,23.6c-0.6-0.3-1.1-0.7-1.4-1.2c-0.3-0.5-0.5-1.1-0.5-1.8h1.4c0,0.4,0.1,0.8,0.3,1.1s0.5,0.6,0.9,0.8
				c0.4,0.2,0.9,0.3,1.4,0.3c0.5,0,1-0.1,1.4-0.3c0.4-0.2,0.7-0.4,0.9-0.7c0.2-0.3,0.3-0.7,0.3-1.1c0-0.5-0.2-0.9-0.5-1.2
				s-0.7-0.6-1.2-0.7l-2-0.4c-0.5-0.1-1-0.3-1.4-0.6c-0.4-0.3-0.7-0.7-0.9-1.1c-0.2-0.4-0.3-0.9-0.3-1.4c0-0.6,0.2-1.2,0.5-1.6
				c0.3-0.5,0.8-0.8,1.3-1.1c0.6-0.3,1.2-0.4,1.9-0.4c0.7,0,1.4,0.1,1.9,0.4c0.6,0.3,1,0.6,1.3,1.1c0.3,0.5,0.5,1,0.5,1.7h-1.4
				c0-0.4-0.1-0.7-0.3-1c-0.2-0.3-0.5-0.5-0.8-0.7c-0.4-0.2-0.8-0.3-1.2-0.3c-0.5,0-0.9,0.1-1.2,0.2c-0.4,0.2-0.6,0.4-0.8,0.7
				s-0.3,0.6-0.3,1c0,0.5,0.1,0.8,0.4,1.2c0.3,0.3,0.7,0.5,1.2,0.6l2.1,0.4c0.5,0.1,1,0.3,1.4,0.6c0.4,0.3,0.7,0.7,0.9,1.1
				c0.2,0.4,0.3,0.9,0.3,1.4c0,0.7-0.2,1.2-0.5,1.7s-0.8,0.9-1.4,1.2c-0.6,0.3-1.3,0.4-2.1,0.4C459,24,458.3,23.8,457.7,23.6z"/>
		</g>
	</g>
	<g>
		<path class="st1" d="M581.4,0l-59.9,0c-10.3,0-18.6,8.3-18.6,18.6v0c0,10.3,8.3,18.6,18.6,18.6l59.9,0c10.3,0,18.6-8.3,18.6-18.6
			v0C600,8.3,591.6,0,581.4,0z"/>
		<g>
			<path d="M543.3,23.8v-1.3h2.2c0.4,0,0.8-0.1,1-0.4s0.4-0.6,0.4-1v-8.8h1.4v9c0,0.5-0.1,0.9-0.3,1.3s-0.5,0.7-0.9,0.9
				c-0.4,0.2-0.8,0.3-1.3,0.3H543.3z"/>
			<path d="M552.4,23.6c-0.6-0.3-1.1-0.7-1.4-1.2c-0.3-0.5-0.5-1.1-0.5-1.8h1.4c0,0.4,0.1,0.8,0.3,1.1c0.2,0.3,0.5,0.6,0.9,0.8
				c0.4,0.2,0.9,0.3,1.4,0.3c0.5,0,1-0.1,1.4-0.3c0.4-0.2,0.7-0.4,0.9-0.7c0.2-0.3,0.3-0.7,0.3-1.1c0-0.5-0.2-0.9-0.5-1.2
				s-0.7-0.6-1.2-0.7l-2-0.4c-0.5-0.1-1-0.3-1.4-0.6s-0.7-0.7-0.9-1.1c-0.2-0.4-0.3-0.9-0.3-1.4c0-0.6,0.2-1.2,0.5-1.6
				s0.8-0.8,1.3-1.1c0.6-0.3,1.2-0.4,1.9-0.4c0.7,0,1.4,0.1,1.9,0.4c0.6,0.3,1,0.6,1.3,1.1c0.3,0.5,0.5,1,0.5,1.7h-1.4
				c0-0.4-0.1-0.7-0.3-1c-0.2-0.3-0.5-0.5-0.8-0.7c-0.4-0.2-0.8-0.3-1.2-0.3s-0.9,0.1-1.2,0.2c-0.4,0.2-0.6,0.4-0.8,0.7
				c-0.2,0.3-0.3,0.6-0.3,1c0,0.5,0.1,0.8,0.4,1.2c0.3,0.3,0.7,0.5,1.2,0.6l2.1,0.4c0.5,0.1,1,0.3,1.4,0.6c0.4,0.3,0.7,0.7,0.9,1.1
				c0.2,0.4,0.3,0.9,0.3,1.4c0,0.7-0.2,1.2-0.5,1.7s-0.8,0.9-1.4,1.2c-0.6,0.3-1.3,0.4-2.1,0.4C553.8,24,553.1,23.8,552.4,23.6z"/>
		</g>
	</g>
	<g>
		<radialGradient id="SVGID_2_" cx="352.9716" cy="154.4559" r="200.0321" gradientUnits="userSpaceOnUse">
			<stop  offset="0" style="stop-color:#E44857"/>
			<stop  offset="5.455017e-02" style="stop-color:#DA4968"/>
			<stop  offset="0.2163" style="stop-color:#BE4C96"/>
			<stop  offset="0.3787" style="stop-color:#A74EBC"/>
			<stop  offset="0.5393" style="stop-color:#9650D9"/>
			<stop  offset="0.6976" style="stop-color:#8951EE"/>
			<stop  offset="0.8525" style="stop-color:#8252FB"/>
			<stop  offset="1" style="stop-color:#7F52FF"/>
		</radialGradient>
		<path class="st4" d="M534.1,109.5l-165.3,0c-10.3,0-18.6,8.3-18.6,18.6v0c0,10.3,8.3,18.6,18.6,18.6l165.3,0
			c10.3,0,18.6-8.3,18.6-18.6v0C552.7,117.9,544.4,109.5,534.1,109.5z"/>
		<g>
			<path class="st3" d="M381.8,133.3c-0.9-0.5-1.5-1.2-2-2.1c-0.5-0.9-0.7-1.9-0.7-3c0-1.1,0.2-2.1,0.7-3c0.5-0.9,1.2-1.6,2-2.1
				s1.8-0.8,2.9-0.8c0.9,0,1.7,0.2,2.4,0.6c0.8,0.4,1.4,0.9,1.9,1.5s0.8,1.3,0.9,2h-1.4c-0.1-0.5-0.3-0.9-0.7-1.4
				c-0.4-0.4-0.8-0.8-1.4-1s-1.1-0.4-1.7-0.4c-0.8,0-1.5,0.2-2.2,0.6s-1.1,1-1.5,1.7c-0.4,0.7-0.5,1.5-0.5,2.4s0.2,1.7,0.5,2.4
				c0.4,0.7,0.9,1.3,1.5,1.7c0.6,0.4,1.4,0.6,2.2,0.6c0.6,0,1.2-0.1,1.7-0.4s1-0.6,1.4-1c0.4-0.4,0.6-0.9,0.7-1.4h1.4
				c-0.1,0.7-0.4,1.4-0.9,2s-1.1,1.1-1.9,1.5c-0.8,0.4-1.6,0.6-2.4,0.6C383.6,134.1,382.7,133.8,381.8,133.3z"/>
			<path class="st3" d="M393.1,133.9h-1.3v-11.5h1.3V133.9z"/>
			<path class="st3" d="M395.5,123.9v-1.6h1.5v1.6H395.5z M396.9,133.9h-1.3v-8.4h1.3V133.9z"/>
			<path class="st3" d="M406.8,130h-6.7c0,0.6,0.2,1.1,0.5,1.5c0.3,0.4,0.6,0.8,1,1s0.9,0.4,1.4,0.4c0.4,0,0.7-0.1,1-0.2
				c0.3-0.1,0.6-0.3,0.8-0.5s0.4-0.4,0.5-0.7h1.3c-0.1,0.5-0.3,0.9-0.7,1.2c-0.4,0.4-0.8,0.7-1.3,0.9c-0.5,0.2-1.1,0.3-1.7,0.3
				c-0.8,0-1.5-0.2-2.1-0.6c-0.6-0.4-1.1-0.9-1.5-1.6c-0.4-0.7-0.5-1.4-0.5-2.3c0-0.8,0.2-1.6,0.5-2.2c0.4-0.7,0.8-1.2,1.5-1.6
				c0.6-0.4,1.3-0.6,2.1-0.6c0.7,0,1.4,0.2,2,0.6c0.6,0.4,1.1,0.9,1.4,1.6c0.3,0.7,0.5,1.4,0.5,2.3V130z M401,127.1
				c-0.5,0.4-0.8,1-0.9,1.8h5.3c-0.1-0.8-0.4-1.4-0.8-1.8c-0.4-0.4-1-0.7-1.7-0.7C402.1,126.4,401.5,126.7,401,127.1z"/>
			<path class="st3" d="M414.2,125.7c0.5,0.3,0.8,0.7,1.1,1.2c0.3,0.5,0.4,1.1,0.4,1.7v5.3h-1.3v-5.2c0-0.7-0.2-1.3-0.6-1.7
				s-0.9-0.6-1.5-0.6c-0.5,0-0.9,0.1-1.2,0.3s-0.6,0.5-0.8,0.9c-0.2,0.4-0.3,0.8-0.3,1.3v5h-1.3v-8.4h1.3v1.3
				c0.3-0.5,0.6-0.9,1.1-1.1c0.5-0.2,1-0.4,1.6-0.4C413.2,125.3,413.7,125.4,414.2,125.7z"/>
			<path class="st3" d="M420.2,133.9c-0.6,0-1.1-0.2-1.4-0.5c-0.4-0.3-0.5-0.8-0.5-1.3l0-5.4h-1.5l0-1.2h0.9c0.2,0,0.4-0.1,0.5-0.2
				c0.1-0.1,0.2-0.3,0.2-0.5v-1.4h1.2v2.1h2l0,1.2h-2l0,5.3c0,0.2,0.1,0.4,0.2,0.5c0.1,0.1,0.3,0.2,0.5,0.2h1.3v1.2H420.2z"/>
			<path class="st3" d="M428.9,133.9h-1.4v-11.5h1.7l4.1,9.4l0.2,0.6l0.2-0.6l4-9.4h1.8v11.5h-1.4v-9.5l-4,9.5h-1.2l-4.1-9.5V133.9z
				"/>
			<path class="st3" d="M447.9,125.5h1.3v8.4h-1.3v-1.3c-0.3,0.5-0.6,0.9-1.1,1.1c-0.5,0.2-1,0.4-1.6,0.4c-0.6,0-1.2-0.1-1.6-0.4
				s-0.8-0.7-1.1-1.2c-0.3-0.5-0.4-1.1-0.4-1.7v-5.3h1.3v5.2c0,0.7,0.2,1.3,0.6,1.7c0.4,0.4,0.9,0.6,1.5,0.6c0.5,0,0.9-0.1,1.2-0.3
				c0.4-0.2,0.6-0.5,0.8-0.9s0.3-0.8,0.3-1.3V125.5z"/>
			<path class="st3" d="M453,133.9h-1.3v-11.5h1.3V133.9z"/>
			<path class="st3" d="M457.8,133.9c-0.6,0-1.1-0.2-1.4-0.5c-0.4-0.3-0.5-0.8-0.5-1.3l0-5.4h-1.5l0-1.2h0.9c0.2,0,0.4-0.1,0.5-0.2
				c0.1-0.1,0.2-0.3,0.2-0.5v-1.4h1.2v2.1h2l0,1.2h-2l0,5.3c0,0.2,0.1,0.4,0.2,0.5c0.1,0.1,0.3,0.2,0.5,0.2h1.3v1.2H457.8z"/>
			<path class="st3" d="M460.9,123.9v-1.6h1.5v1.6H460.9z M462.3,133.9H461v-8.4h1.3V133.9z"/>
			<path class="st3" d="M471.1,125.9c0.6,0.4,1.1,0.9,1.5,1.6s0.5,1.4,0.5,2.2c0,0.8-0.2,1.6-0.5,2.2s-0.8,1.2-1.5,1.6
				c-0.6,0.4-1.3,0.6-2.1,0.6c-0.6,0-1.2-0.1-1.7-0.4c-0.5-0.3-0.9-0.7-1.3-1.2v0.5l0,3.5h-1.3v-11.1h1.3v1.4
				c0.3-0.5,0.7-0.9,1.3-1.2s1.1-0.4,1.7-0.4C469.8,125.3,470.5,125.5,471.1,125.9z M470.4,132.5c0.4-0.3,0.8-0.7,1-1.2
				c0.2-0.5,0.4-1,0.4-1.6s-0.1-1.2-0.4-1.6c-0.2-0.5-0.6-0.9-1-1.2c-0.4-0.3-0.9-0.4-1.4-0.4c-0.5,0-1,0.1-1.4,0.4
				c-0.4,0.3-0.8,0.7-1,1.2c-0.2,0.5-0.4,1-0.4,1.6s0.1,1.2,0.4,1.6c0.2,0.5,0.6,0.9,1,1.2c0.4,0.3,0.9,0.4,1.4,0.4
				C469.5,132.9,469.9,132.8,470.4,132.5z"/>
			<path class="st3" d="M476.2,133.9h-1.3v-11.5h1.3V133.9z"/>
			<path class="st3" d="M483.6,125.6c0.5,0.2,0.8,0.6,1.1,1s0.4,1,0.4,1.6v5.6h-1.3v-1.2c-0.3,0.5-0.6,0.8-1.1,1.1
				c-0.5,0.2-1.1,0.4-1.7,0.4c-0.6,0-1-0.1-1.5-0.3c-0.4-0.2-0.8-0.5-1-0.9c-0.2-0.4-0.4-0.8-0.4-1.3c0-0.4,0.1-0.8,0.3-1.2
				c0.2-0.4,0.5-0.7,0.9-0.9c0.4-0.2,0.8-0.4,1.3-0.4l2.5-0.2c0.2,0,0.3-0.1,0.4-0.2c0.1-0.1,0.2-0.3,0.2-0.6c0-0.3-0.1-0.6-0.2-0.9
				s-0.4-0.4-0.7-0.6c-0.3-0.1-0.6-0.2-1-0.2c-0.4,0-0.7,0.1-1,0.2c-0.3,0.1-0.6,0.3-0.7,0.5c-0.2,0.2-0.3,0.5-0.3,0.7h-1.3
				c0-0.5,0.2-0.9,0.5-1.3c0.3-0.4,0.7-0.7,1.2-0.9c0.5-0.2,1.1-0.3,1.6-0.3C482.5,125.3,483.1,125.4,483.6,125.6z M482.6,132.8
				c0.4-0.2,0.7-0.5,0.9-0.8c0.2-0.4,0.3-0.8,0.3-1.2v-1l-2.9,0.3c-0.4,0-0.8,0.2-1.1,0.5s-0.4,0.6-0.4,1c0,0.3,0.1,0.5,0.2,0.8
				c0.1,0.2,0.4,0.4,0.6,0.5c0.3,0.1,0.6,0.2,0.9,0.2C481.7,133.1,482.2,133,482.6,132.8z"/>
			<path class="st3" d="M489.6,133.9c-0.6,0-1.1-0.2-1.4-0.5c-0.4-0.3-0.5-0.8-0.5-1.3l0-5.4h-1.5l0-1.2h0.9c0.2,0,0.4-0.1,0.5-0.2
				c0.1-0.1,0.2-0.3,0.2-0.5v-1.4h1.2v2.1h2l0,1.2h-2l0,5.3c0,0.2,0.1,0.4,0.2,0.5c0.1,0.1,0.3,0.2,0.5,0.2h1.3v1.2H489.6z"/>
			<path class="st3" d="M493.2,133.9v-7.2h-1.5v-1.2h1.5v-1.3c0-0.6,0.2-1,0.5-1.3c0.3-0.3,0.8-0.5,1.4-0.5h1.5v1.2h-1.4
				c-0.2,0-0.4,0.1-0.5,0.2s-0.2,0.3-0.2,0.5v1.2h2.1v1.2h-2.1v7.2H493.2z"/>
			<path class="st3" d="M499.6,133.5c-0.6-0.4-1.1-0.9-1.5-1.6c-0.4-0.7-0.5-1.4-0.5-2.3c0-0.8,0.2-1.6,0.5-2.3s0.9-1.2,1.5-1.6
				c0.6-0.4,1.4-0.6,2.2-0.6c0.8,0,1.5,0.2,2.2,0.6c0.6,0.4,1.2,0.9,1.5,1.6c0.4,0.7,0.5,1.4,0.5,2.3c0,0.8-0.2,1.6-0.6,2.3
				c-0.4,0.7-0.9,1.2-1.5,1.6c-0.6,0.4-1.4,0.6-2.2,0.6C500.9,134.1,500.2,133.9,499.6,133.5z M503.2,132.5c0.4-0.3,0.8-0.6,1-1.1
				c0.2-0.5,0.4-1,0.4-1.7c0-0.6-0.1-1.2-0.4-1.7c-0.2-0.5-0.6-0.9-1-1.1c-0.4-0.3-0.9-0.4-1.5-0.4s-1,0.1-1.5,0.4
				c-0.4,0.3-0.8,0.6-1,1.1c-0.2,0.5-0.4,1-0.4,1.7c0,0.6,0.1,1.2,0.4,1.7c0.2,0.5,0.6,0.9,1,1.1c0.4,0.3,0.9,0.4,1.5,0.4
				S502.8,132.7,503.2,132.5z"/>
			<path class="st3" d="M511.9,125.4v1.4h-0.3c-0.8,0-1.4,0.2-1.8,0.7s-0.7,1.1-0.7,1.9v4.5h-1.3v-8.4h1.3v1.7c0.2-0.6,0.6-1,1-1.3
				s0.9-0.5,1.5-0.5H511.9z"/>
			<path class="st3" d="M524.3,125.7c0.5,0.3,0.8,0.7,1.1,1.2c0.2,0.5,0.4,1.1,0.4,1.7v5.3h-1.3v-5.2c0-0.7-0.2-1.3-0.5-1.7
				s-0.8-0.6-1.4-0.6c-0.5,0-0.9,0.1-1.2,0.3c-0.3,0.2-0.6,0.5-0.8,0.9c-0.2,0.4-0.3,0.9-0.3,1.4v4.8h-1.3v-5.2
				c0-0.7-0.2-1.3-0.5-1.7c-0.4-0.4-0.8-0.6-1.5-0.6c-0.5,0-0.9,0.1-1.2,0.3s-0.6,0.5-0.8,0.9s-0.3,0.9-0.3,1.4v4.8h-1.3v-8.4h1.3
				v1.2c0.3-0.5,0.6-0.8,1-1.1c0.4-0.2,0.9-0.4,1.5-0.4c0.6,0,1.2,0.1,1.6,0.4c0.5,0.3,0.8,0.7,1.1,1.2c0.3-0.5,0.7-0.9,1.2-1.2
				c0.5-0.3,1-0.4,1.7-0.4C523.3,125.3,523.8,125.4,524.3,125.7z"/>
		</g>
	</g>
	<g>
		<g>
			<g>
				<g>
					<path d="M300.2,214.8h-0.4v-20.9c0-6.7,5.5-12.2,12.2-12.2h127.5c6.5,0,11.8-5.3,11.8-11.8v-16.2h0.4v16.2
						c0,6.7-5.5,12.2-12.2,12.2H312c-6.5,0-11.8,5.3-11.8,11.8V214.8z"/>
				</g>
				<g>
					<polygon points="454.6,154.6 451.5,149.2 448.3,154.6 					"/>
				</g>
			</g>
			<g>
				<g>
					<path d="M300.2,197h-0.4v-3.1c0-6.5-5.3-11.8-11.8-11.8H159.7c-6.7,0-12.2-5.5-12.2-12.2V44.2h0.4v125.7
						c0,6.5,5.3,11.8,11.8,11.8H288c6.7,0,12.2,5.5,12.2,12.2V197z"/>
				</g>
				<g>
					<polygon points="144.6,45.1 147.7,39.7 150.9,45.1 					"/>
				</g>
			</g>
		</g>
		<g>
			<g>
				<g>
					<g>
						<path d="M451.7,107.1h-0.4V86.3c0-6.5-5.3-11.8-11.8-11.8h-76.1c-6.7,0-12.2-5.5-12.2-12.2V44.2h0.4v18.1
							c0,6.5,5.3,11.8,11.8,11.8h76.1c6.7,0,12.2,5.5,12.2,12.2V107.1z"/>
					</g>
					<g>
						<polygon points="354.5,45.1 351.3,39.7 348.2,45.1 						"/>
					</g>
				</g>
			</g>
			<g>
				<g>
					<g>
						<path d="M451.7,107.1h-0.4V86.3c0-6.7,5.5-12.2,12.2-12.2h75.9c6.5,0,11.8-5.3,11.8-11.8V44.2h0.4v18.1
							c0,6.7-5.5,12.2-12.2,12.2h-75.9c-6.5,0-11.8,5.3-11.8,11.8V107.1z"/>
					</g>
					<g>
						<polygon points="554.5,45.1 551.4,39.7 548.2,45.1 						"/>
					</g>
				</g>
			</g>
		</g>
		<g>
			<g>
				<rect x="451.3" y="44.2" width="0.4" height="46.5"/>
			</g>
			<g>
				<polygon points="454.6,45.1 451.5,39.7 448.3,45.1 				"/>
			</g>
		</g>
	</g>
	<g>
		<path class="st0" d="M18.7,288.4c-0.6-0.3-1.1-0.7-1.4-1.2c-0.3-0.5-0.5-1.1-0.5-1.8h1.4c0,0.4,0.1,0.8,0.3,1.1s0.5,0.6,0.9,0.8
			c0.4,0.2,0.9,0.3,1.4,0.3c0.5,0,1-0.1,1.4-0.3c0.4-0.2,0.7-0.4,0.9-0.7c0.2-0.3,0.3-0.7,0.3-1.1c0-0.5-0.2-0.9-0.5-1.2
			s-0.7-0.6-1.2-0.7l-2-0.4c-0.5-0.1-1-0.3-1.4-0.6c-0.4-0.3-0.7-0.7-0.9-1.1c-0.2-0.4-0.3-0.9-0.3-1.4c0-0.6,0.2-1.2,0.5-1.6
			c0.3-0.5,0.8-0.8,1.3-1.1c0.6-0.3,1.2-0.4,1.9-0.4c0.7,0,1.4,0.1,1.9,0.4c0.6,0.3,1,0.6,1.3,1.1c0.3,0.5,0.5,1,0.5,1.7h-1.4
			c0-0.4-0.1-0.7-0.3-1c-0.2-0.3-0.5-0.5-0.8-0.7c-0.4-0.2-0.8-0.3-1.2-0.3c-0.5,0-0.9,0.1-1.2,0.2c-0.4,0.2-0.6,0.4-0.8,0.7
			s-0.3,0.6-0.3,1c0,0.5,0.1,0.8,0.4,1.2c0.3,0.3,0.7,0.5,1.2,0.6l2.1,0.4c0.5,0.1,1,0.3,1.4,0.6c0.4,0.3,0.7,0.7,0.9,1.1
			c0.2,0.4,0.3,0.9,0.3,1.4c0,0.7-0.2,1.2-0.5,1.7s-0.8,0.9-1.4,1.2c-0.6,0.3-1.3,0.4-2.1,0.4C20,288.9,19.3,288.7,18.7,288.4z"/>
		<path class="st0" d="M33.2,280.6c0.6,0.4,1.1,0.9,1.5,1.6s0.5,1.4,0.5,2.2c0,0.8-0.2,1.6-0.5,2.2s-0.8,1.2-1.5,1.6
			c-0.6,0.4-1.3,0.6-2.1,0.6c-0.6,0-1.2-0.1-1.7-0.4c-0.5-0.3-0.9-0.7-1.3-1.2v0.5l0,3.5h-1.3v-11.1h1.3v1.4
			c0.3-0.5,0.7-0.9,1.3-1.2s1.1-0.4,1.7-0.4C31.9,280.1,32.6,280.2,33.2,280.6z M32.5,287.3c0.4-0.3,0.8-0.7,1-1.2
			c0.2-0.5,0.4-1,0.4-1.6s-0.1-1.2-0.4-1.6c-0.2-0.5-0.6-0.9-1-1.2c-0.4-0.3-0.9-0.4-1.4-0.4c-0.5,0-1,0.1-1.4,0.4
			c-0.4,0.3-0.8,0.7-1,1.2c-0.2,0.5-0.4,1-0.4,1.6s0.1,1.2,0.4,1.6c0.2,0.5,0.6,0.9,1,1.2c0.4,0.3,0.9,0.4,1.4,0.4
			C31.6,287.7,32,287.5,32.5,287.3z"/>
		<path class="st0" d="M41.9,280.4c0.5,0.2,0.8,0.6,1.1,1s0.4,1,0.4,1.6v5.6h-1.3v-1.2c-0.3,0.5-0.6,0.8-1.1,1.1
			c-0.5,0.2-1.1,0.4-1.7,0.4c-0.6,0-1-0.1-1.5-0.3c-0.4-0.2-0.8-0.5-1-0.9c-0.2-0.4-0.4-0.8-0.4-1.3c0-0.4,0.1-0.8,0.3-1.2
			c0.2-0.4,0.5-0.7,0.9-0.9c0.4-0.2,0.8-0.4,1.3-0.4l2.5-0.2c0.2,0,0.3-0.1,0.4-0.2c0.1-0.1,0.2-0.3,0.2-0.6c0-0.3-0.1-0.6-0.2-0.9
			s-0.4-0.4-0.7-0.6c-0.3-0.1-0.6-0.2-1-0.2c-0.4,0-0.7,0.1-1,0.2c-0.3,0.1-0.6,0.3-0.7,0.5c-0.2,0.2-0.3,0.5-0.3,0.7h-1.3
			c0-0.5,0.2-0.9,0.5-1.3c0.3-0.4,0.7-0.7,1.2-0.9c0.5-0.2,1.1-0.3,1.6-0.3C40.8,280.1,41.4,280.2,41.9,280.4z M40.8,287.5
			c0.4-0.2,0.7-0.5,0.9-0.8c0.2-0.4,0.3-0.8,0.3-1.2v-1l-2.9,0.3c-0.4,0-0.8,0.2-1.1,0.5s-0.4,0.6-0.4,1c0,0.3,0.1,0.5,0.2,0.8
			c0.1,0.2,0.4,0.4,0.6,0.5c0.3,0.1,0.6,0.2,0.9,0.2C40,287.8,40.4,287.7,40.8,287.5z"/>
		<path class="st0" d="M47,288.3c-0.6-0.4-1.1-0.9-1.5-1.6s-0.5-1.4-0.5-2.2c0-0.8,0.2-1.6,0.5-2.2s0.9-1.2,1.5-1.6
			c0.6-0.4,1.4-0.6,2.1-0.6c0.7,0,1.3,0.1,1.9,0.4s1,0.6,1.4,1.1s0.6,1,0.6,1.6h-1.3c-0.1-0.4-0.2-0.7-0.5-1s-0.5-0.5-0.9-0.7
			s-0.8-0.2-1.2-0.2c-0.5,0-1,0.1-1.4,0.4c-0.4,0.3-0.8,0.7-1,1.2c-0.2,0.5-0.4,1-0.4,1.7s0.1,1.2,0.4,1.7c0.2,0.5,0.6,0.9,1,1.2
			c0.4,0.3,0.9,0.4,1.4,0.4c0.4,0,0.8-0.1,1.2-0.2c0.4-0.2,0.7-0.4,0.9-0.7s0.4-0.6,0.5-0.9H53c0,0.6-0.3,1.1-0.6,1.5
			c-0.4,0.5-0.8,0.8-1.4,1.1c-0.6,0.3-1.2,0.4-1.9,0.4C48.4,288.9,47.7,288.7,47,288.3z"/>
		<path class="st0" d="M62.2,284.8h-6.7c0,0.6,0.2,1.1,0.5,1.5c0.3,0.4,0.6,0.8,1,1s0.9,0.4,1.4,0.4c0.4,0,0.7-0.1,1-0.2
			c0.3-0.1,0.6-0.3,0.8-0.5s0.4-0.4,0.5-0.7H62c-0.1,0.5-0.3,0.9-0.7,1.2c-0.4,0.4-0.8,0.7-1.3,0.9c-0.5,0.2-1.1,0.3-1.7,0.3
			c-0.8,0-1.5-0.2-2.1-0.6c-0.6-0.4-1.1-0.9-1.5-1.6c-0.4-0.7-0.5-1.4-0.5-2.3c0-0.8,0.2-1.6,0.5-2.2c0.4-0.7,0.8-1.2,1.5-1.6
			c0.6-0.4,1.3-0.6,2.1-0.6c0.7,0,1.4,0.2,2,0.6c0.6,0.4,1.1,0.9,1.4,1.6c0.3,0.7,0.5,1.4,0.5,2.3V284.8z M56.5,281.9
			c-0.5,0.4-0.8,1-0.9,1.8h5.3c-0.1-0.8-0.4-1.4-0.8-1.8c-0.4-0.4-1-0.7-1.7-0.7C57.6,281.2,57,281.4,56.5,281.9z"/>
		<path class="st0" d="M78.5,280.5c0.5,0.3,0.8,0.7,1.1,1.2c0.2,0.5,0.4,1.1,0.4,1.7v5.3h-1.3v-5.2c0-0.7-0.2-1.3-0.5-1.7
			s-0.8-0.6-1.4-0.6c-0.5,0-0.9,0.1-1.2,0.3c-0.3,0.2-0.6,0.5-0.8,0.9c-0.2,0.4-0.3,0.9-0.3,1.4v4.8H73v-5.2c0-0.7-0.2-1.3-0.5-1.7
			c-0.4-0.4-0.8-0.6-1.5-0.6c-0.5,0-0.9,0.1-1.2,0.3s-0.6,0.5-0.8,0.9s-0.3,0.9-0.3,1.4v4.8h-1.3v-8.4h1.3v1.2
			c0.3-0.5,0.6-0.8,1-1.1c0.4-0.2,0.9-0.4,1.5-0.4c0.6,0,1.2,0.1,1.6,0.4c0.5,0.3,0.8,0.7,1.1,1.2c0.3-0.5,0.7-0.9,1.2-1.2
			c0.5-0.3,1-0.4,1.7-0.4C77.5,280.1,78,280.2,78.5,280.5z"/>
		<path class="st0" d="M87.8,280.2h1.3v8.4h-1.3v-1.3c-0.3,0.5-0.6,0.9-1.1,1.1c-0.5,0.2-1,0.4-1.6,0.4c-0.6,0-1.2-0.1-1.6-0.4
			s-0.8-0.7-1.1-1.2c-0.3-0.5-0.4-1.1-0.4-1.7v-5.3h1.3v5.2c0,0.7,0.2,1.3,0.6,1.7c0.4,0.4,0.9,0.6,1.5,0.6c0.5,0,0.9-0.1,1.2-0.3
			c0.4-0.2,0.6-0.5,0.8-0.9s0.3-0.8,0.3-1.3V280.2z"/>
		<path class="st0" d="M92.9,288.7h-1.3v-11.5h1.3V288.7z"/>
		<path class="st0" d="M97.6,288.7c-0.6,0-1.1-0.2-1.4-0.5c-0.4-0.3-0.5-0.8-0.5-1.3l0-5.4h-1.5l0-1.2h0.9c0.2,0,0.4-0.1,0.5-0.2
			c0.1-0.1,0.2-0.3,0.2-0.5v-1.4H97v2.1h2l0,1.2h-2l0,5.3c0,0.2,0.1,0.4,0.2,0.5c0.1,0.1,0.3,0.2,0.5,0.2H99v1.2H97.6z"/>
		<path class="st0" d="M100.8,278.7v-1.6h1.5v1.6H100.8z M102.2,288.7h-1.3v-8.4h1.3V288.7z"/>
		<path class="st0" d="M111,280.6c0.6,0.4,1.1,0.9,1.5,1.6s0.5,1.4,0.5,2.2c0,0.8-0.2,1.6-0.5,2.2s-0.8,1.2-1.5,1.6
			c-0.6,0.4-1.3,0.6-2.1,0.6c-0.6,0-1.2-0.1-1.7-0.4c-0.5-0.3-0.9-0.7-1.3-1.2v0.5l0,3.5h-1.3v-11.1h1.3v1.4
			c0.3-0.5,0.7-0.9,1.3-1.2s1.1-0.4,1.7-0.4C109.7,280.1,110.4,280.2,111,280.6z M110.2,287.3c0.4-0.3,0.8-0.7,1-1.2
			c0.2-0.5,0.4-1,0.4-1.6s-0.1-1.2-0.4-1.6c-0.2-0.5-0.6-0.9-1-1.2c-0.4-0.3-0.9-0.4-1.4-0.4c-0.5,0-1,0.1-1.4,0.4
			c-0.4,0.3-0.8,0.7-1,1.2c-0.2,0.5-0.4,1-0.4,1.6s0.1,1.2,0.4,1.6c0.2,0.5,0.6,0.9,1,1.2c0.4,0.3,0.9,0.4,1.4,0.4
			C109.3,287.7,109.8,287.5,110.2,287.3z"/>
		<path class="st0" d="M116.1,288.7h-1.3v-11.5h1.3V288.7z"/>
		<path class="st0" d="M123.4,280.4c0.5,0.2,0.8,0.6,1.1,1s0.4,1,0.4,1.6v5.6h-1.3v-1.2c-0.3,0.5-0.6,0.8-1.1,1.1
			c-0.5,0.2-1.1,0.4-1.7,0.4c-0.6,0-1-0.1-1.5-0.3c-0.4-0.2-0.8-0.5-1-0.9c-0.2-0.4-0.4-0.8-0.4-1.3c0-0.4,0.1-0.8,0.3-1.2
			c0.2-0.4,0.5-0.7,0.9-0.9c0.4-0.2,0.8-0.4,1.3-0.4l2.5-0.2c0.2,0,0.3-0.1,0.4-0.2c0.1-0.1,0.2-0.3,0.2-0.6c0-0.3-0.1-0.6-0.2-0.9
			s-0.4-0.4-0.7-0.6c-0.3-0.1-0.6-0.2-1-0.2c-0.4,0-0.7,0.1-1,0.2c-0.3,0.1-0.6,0.3-0.7,0.5c-0.2,0.2-0.3,0.5-0.3,0.7h-1.3
			c0-0.5,0.2-0.9,0.5-1.3c0.3-0.4,0.7-0.7,1.2-0.9c0.5-0.2,1.1-0.3,1.6-0.3C122.4,280.1,123,280.2,123.4,280.4z M122.4,287.5
			c0.4-0.2,0.7-0.5,0.9-0.8c0.2-0.4,0.3-0.8,0.3-1.2v-1l-2.9,0.3c-0.4,0-0.8,0.2-1.1,0.5s-0.4,0.6-0.4,1c0,0.3,0.1,0.5,0.2,0.8
			c0.1,0.2,0.4,0.4,0.6,0.5c0.3,0.1,0.6,0.2,0.9,0.2C121.6,287.8,122,287.7,122.4,287.5z"/>
		<path class="st0" d="M129.5,288.7c-0.6,0-1.1-0.2-1.4-0.5c-0.4-0.3-0.5-0.8-0.5-1.3l0-5.4h-1.5l0-1.2h0.9c0.2,0,0.4-0.1,0.5-0.2
			c0.1-0.1,0.2-0.3,0.2-0.5v-1.4h1.2v2.1h2l0,1.2h-2l0,5.3c0,0.2,0.1,0.4,0.2,0.5c0.1,0.1,0.3,0.2,0.5,0.2h1.3v1.2H129.5z"/>
		<path class="st0" d="M133.1,288.7v-7.2h-1.5v-1.2h1.5V279c0-0.6,0.2-1,0.5-1.3c0.3-0.3,0.8-0.5,1.4-0.5h1.5v1.2h-1.4
			c-0.2,0-0.4,0.1-0.5,0.2s-0.2,0.3-0.2,0.5v1.2h2.1v1.2h-2.1v7.2H133.1z"/>
		<path class="st0" d="M139.4,288.3c-0.6-0.4-1.1-0.9-1.5-1.6c-0.4-0.7-0.5-1.4-0.5-2.3c0-0.8,0.2-1.6,0.5-2.3s0.9-1.2,1.5-1.6
			c0.6-0.4,1.4-0.6,2.2-0.6c0.8,0,1.5,0.2,2.2,0.6c0.6,0.4,1.2,0.9,1.5,1.6c0.4,0.7,0.5,1.4,0.5,2.3c0,0.8-0.2,1.6-0.6,2.3
			c-0.4,0.7-0.9,1.2-1.5,1.6c-0.6,0.4-1.4,0.6-2.2,0.6C140.8,288.9,140.1,288.7,139.4,288.3z M143.1,287.2c0.4-0.3,0.8-0.6,1-1.1
			c0.2-0.5,0.4-1,0.4-1.7c0-0.6-0.1-1.2-0.4-1.7c-0.2-0.5-0.6-0.9-1-1.1c-0.4-0.3-0.9-0.4-1.5-0.4s-1,0.1-1.5,0.4
			c-0.4,0.3-0.8,0.6-1,1.1c-0.2,0.5-0.4,1-0.4,1.7c0,0.6,0.1,1.2,0.4,1.7c0.2,0.5,0.6,0.9,1,1.1c0.4,0.3,0.9,0.4,1.5,0.4
			S142.6,287.5,143.1,287.2z"/>
		<path class="st0" d="M151.7,280.2v1.4h-0.3c-0.8,0-1.4,0.2-1.8,0.7s-0.7,1.1-0.7,1.9v4.5h-1.3v-8.4h1.3v1.7c0.2-0.6,0.6-1,1-1.3
			s0.9-0.5,1.5-0.5H151.7z"/>
		<path class="st0" d="M164.2,280.5c0.5,0.3,0.8,0.7,1.1,1.2c0.2,0.5,0.4,1.1,0.4,1.7v5.3h-1.3v-5.2c0-0.7-0.2-1.3-0.5-1.7
			s-0.8-0.6-1.4-0.6c-0.5,0-0.9,0.1-1.2,0.3c-0.3,0.2-0.6,0.5-0.8,0.9c-0.2,0.4-0.3,0.9-0.3,1.4v4.8h-1.3v-5.2
			c0-0.7-0.2-1.3-0.5-1.7c-0.4-0.4-0.8-0.6-1.5-0.6c-0.5,0-0.9,0.1-1.2,0.3s-0.6,0.5-0.8,0.9s-0.3,0.9-0.3,1.4v4.8h-1.3v-8.4h1.3
			v1.2c0.3-0.5,0.6-0.8,1-1.1c0.4-0.2,0.9-0.4,1.5-0.4c0.6,0,1.2,0.1,1.6,0.4c0.5,0.3,0.8,0.7,1.1,1.2c0.3-0.5,0.7-0.9,1.2-1.2
			c0.5-0.3,1-0.4,1.7-0.4C163.2,280.1,163.7,280.2,164.2,280.5z"/>
		<path class="st0" d="M176.5,280.4c0.5,0.2,0.8,0.6,1.1,1s0.4,1,0.4,1.6v5.6h-1.3v-1.2c-0.3,0.5-0.6,0.8-1.1,1.1
			c-0.5,0.2-1.1,0.4-1.7,0.4c-0.6,0-1-0.1-1.5-0.3c-0.4-0.2-0.8-0.5-1-0.9c-0.2-0.4-0.4-0.8-0.4-1.3c0-0.4,0.1-0.8,0.3-1.2
			c0.2-0.4,0.5-0.7,0.9-0.9c0.4-0.2,0.8-0.4,1.3-0.4l2.5-0.2c0.2,0,0.3-0.1,0.4-0.2c0.1-0.1,0.2-0.3,0.2-0.6c0-0.3-0.1-0.6-0.2-0.9
			s-0.4-0.4-0.7-0.6c-0.3-0.1-0.6-0.2-1-0.2c-0.4,0-0.7,0.1-1,0.2c-0.3,0.1-0.6,0.3-0.7,0.5c-0.2,0.2-0.3,0.5-0.3,0.7h-1.3
			c0-0.5,0.2-0.9,0.5-1.3c0.3-0.4,0.7-0.7,1.2-0.9c0.5-0.2,1.1-0.3,1.6-0.3C175.4,280.1,176,280.2,176.5,280.4z M175.5,287.5
			c0.4-0.2,0.7-0.5,0.9-0.8c0.2-0.4,0.3-0.8,0.3-1.2v-1l-2.9,0.3c-0.4,0-0.8,0.2-1.1,0.5s-0.4,0.6-0.4,1c0,0.3,0.1,0.5,0.2,0.8
			c0.1,0.2,0.4,0.4,0.6,0.5c0.3,0.1,0.6,0.2,0.9,0.2C174.6,287.8,175.1,287.7,175.5,287.5z"/>
		<path class="st0" d="M186.6,280.6c0.6,0.4,1.1,0.9,1.5,1.6s0.5,1.4,0.5,2.2c0,0.8-0.2,1.6-0.5,2.2s-0.8,1.2-1.5,1.6
			c-0.6,0.4-1.3,0.6-2.1,0.6c-0.6,0-1.2-0.1-1.7-0.4c-0.5-0.3-0.9-0.7-1.3-1.2v0.5l0,3.5h-1.3v-11.1h1.3v1.4
			c0.3-0.5,0.7-0.9,1.3-1.2s1.1-0.4,1.7-0.4C185.3,280.1,186,280.2,186.6,280.6z M185.8,287.3c0.4-0.3,0.8-0.7,1-1.2
			c0.2-0.5,0.4-1,0.4-1.6s-0.1-1.2-0.4-1.6c-0.2-0.5-0.6-0.9-1-1.2c-0.4-0.3-0.9-0.4-1.4-0.4c-0.5,0-1,0.1-1.4,0.4
			c-0.4,0.3-0.8,0.7-1,1.2c-0.2,0.5-0.4,1-0.4,1.6s0.1,1.2,0.4,1.6c0.2,0.5,0.6,0.9,1,1.2c0.4,0.3,0.9,0.4,1.4,0.4
			C184.9,287.7,185.4,287.5,185.8,287.3z"/>
		<path class="st0" d="M196.7,280.6c0.6,0.4,1.1,0.9,1.5,1.6s0.5,1.4,0.5,2.2c0,0.8-0.2,1.6-0.5,2.2s-0.8,1.2-1.5,1.6
			c-0.6,0.4-1.3,0.6-2.1,0.6c-0.6,0-1.2-0.1-1.7-0.4c-0.5-0.3-0.9-0.7-1.3-1.2v0.5l0,3.5h-1.3v-11.1h1.3v1.4
			c0.3-0.5,0.7-0.9,1.3-1.2s1.1-0.4,1.7-0.4C195.4,280.1,196.1,280.2,196.7,280.6z M195.9,287.3c0.4-0.3,0.8-0.7,1-1.2
			c0.2-0.5,0.4-1,0.4-1.6s-0.1-1.2-0.4-1.6c-0.2-0.5-0.6-0.9-1-1.2c-0.4-0.3-0.9-0.4-1.4-0.4c-0.5,0-1,0.1-1.4,0.4
			c-0.4,0.3-0.8,0.7-1,1.2c-0.2,0.5-0.4,1-0.4,1.6s0.1,1.2,0.4,1.6c0.2,0.5,0.6,0.9,1,1.2c0.4,0.3,0.9,0.4,1.4,0.4
			C195,287.7,195.5,287.5,195.9,287.3z"/>
		<path class="st0" d="M201.8,288.7h-1.3v-11.5h1.3V288.7z"/>
		<path class="st0" d="M204.2,278.7v-1.6h1.5v1.6H204.2z M205.6,288.7h-1.3v-8.4h1.3V288.7z"/>
		<path class="st0" d="M209.5,288.3c-0.6-0.4-1.1-0.9-1.5-1.6s-0.5-1.4-0.5-2.2c0-0.8,0.2-1.6,0.5-2.2s0.9-1.2,1.5-1.6
			c0.6-0.4,1.4-0.6,2.1-0.6c0.7,0,1.3,0.1,1.9,0.4s1,0.6,1.4,1.1s0.6,1,0.6,1.6h-1.3c-0.1-0.4-0.2-0.7-0.5-1s-0.5-0.5-0.9-0.7
			s-0.8-0.2-1.2-0.2c-0.5,0-1,0.1-1.4,0.4c-0.4,0.3-0.8,0.7-1,1.2c-0.2,0.5-0.4,1-0.4,1.7s0.1,1.2,0.4,1.7c0.2,0.5,0.6,0.9,1,1.2
			c0.4,0.3,0.9,0.4,1.4,0.4c0.4,0,0.8-0.1,1.2-0.2c0.4-0.2,0.7-0.4,0.9-0.7s0.4-0.6,0.5-0.9h1.3c0,0.6-0.3,1.1-0.6,1.5
			c-0.4,0.5-0.8,0.8-1.4,1.1c-0.6,0.3-1.2,0.4-1.9,0.4C210.8,288.9,210.1,288.7,209.5,288.3z"/>
		<path class="st0" d="M222.2,280.4c0.5,0.2,0.8,0.6,1.1,1s0.4,1,0.4,1.6v5.6h-1.3v-1.2c-0.3,0.5-0.6,0.8-1.1,1.1
			c-0.5,0.2-1.1,0.4-1.7,0.4c-0.6,0-1-0.1-1.5-0.3c-0.4-0.2-0.8-0.5-1-0.9c-0.2-0.4-0.4-0.8-0.4-1.3c0-0.4,0.1-0.8,0.3-1.2
			c0.2-0.4,0.5-0.7,0.9-0.9c0.4-0.2,0.8-0.4,1.3-0.4l2.5-0.2c0.2,0,0.3-0.1,0.4-0.2c0.1-0.1,0.2-0.3,0.2-0.6c0-0.3-0.1-0.6-0.2-0.9
			s-0.4-0.4-0.7-0.6c-0.3-0.1-0.6-0.2-1-0.2c-0.4,0-0.7,0.1-1,0.2c-0.3,0.1-0.6,0.3-0.7,0.5c-0.2,0.2-0.3,0.5-0.3,0.7h-1.3
			c0-0.5,0.2-0.9,0.5-1.3c0.3-0.4,0.7-0.7,1.2-0.9c0.5-0.2,1.1-0.3,1.6-0.3C221.1,280.1,221.7,280.2,222.2,280.4z M221.1,287.5
			c0.4-0.2,0.7-0.5,0.9-0.8c0.2-0.4,0.3-0.8,0.3-1.2v-1l-2.9,0.3c-0.4,0-0.8,0.2-1.1,0.5s-0.4,0.6-0.4,1c0,0.3,0.1,0.5,0.2,0.8
			c0.1,0.2,0.4,0.4,0.6,0.5c0.3,0.1,0.6,0.2,0.9,0.2C220.3,287.8,220.7,287.7,221.1,287.5z"/>
		<path class="st0" d="M228.2,288.7c-0.6,0-1.1-0.2-1.4-0.5c-0.4-0.3-0.5-0.8-0.5-1.3l0-5.4h-1.5l0-1.2h0.9c0.2,0,0.4-0.1,0.5-0.2
			c0.1-0.1,0.2-0.3,0.2-0.5v-1.4h1.2v2.1h2l0,1.2h-2l0,5.3c0,0.2,0.1,0.4,0.2,0.5c0.1,0.1,0.3,0.2,0.5,0.2h1.3v1.2H228.2z"/>
		<path class="st0" d="M231.4,278.7v-1.6h1.5v1.6H231.4z M232.8,288.7h-1.3v-8.4h1.3V288.7z"/>
		<path class="st0" d="M236.6,288.3c-0.6-0.4-1.1-0.9-1.5-1.6c-0.4-0.7-0.5-1.4-0.5-2.3c0-0.8,0.2-1.6,0.5-2.3s0.9-1.2,1.5-1.6
			c0.6-0.4,1.4-0.6,2.2-0.6c0.8,0,1.5,0.2,2.2,0.6c0.6,0.4,1.2,0.9,1.5,1.6c0.4,0.7,0.5,1.4,0.5,2.3c0,0.8-0.2,1.6-0.6,2.3
			c-0.4,0.7-0.9,1.2-1.5,1.6c-0.6,0.4-1.4,0.6-2.2,0.6C238,288.9,237.3,288.7,236.6,288.3z M240.3,287.2c0.4-0.3,0.8-0.6,1-1.1
			c0.2-0.5,0.4-1,0.4-1.7c0-0.6-0.1-1.2-0.4-1.7c-0.2-0.5-0.6-0.9-1-1.1c-0.4-0.3-0.9-0.4-1.5-0.4s-1,0.1-1.5,0.4
			c-0.4,0.3-0.8,0.6-1,1.1c-0.2,0.5-0.4,1-0.4,1.7c0,0.6,0.1,1.2,0.4,1.7c0.2,0.5,0.6,0.9,1,1.1c0.4,0.3,0.9,0.4,1.5,0.4
			S239.9,287.5,240.3,287.2z"/>
		<path class="st0" d="M250.5,280.5c0.5,0.3,0.8,0.7,1.1,1.2c0.3,0.5,0.4,1.1,0.4,1.7v5.3h-1.3v-5.2c0-0.7-0.2-1.3-0.6-1.7
			s-0.9-0.6-1.5-0.6c-0.5,0-0.9,0.1-1.2,0.3s-0.6,0.5-0.8,0.9c-0.2,0.4-0.3,0.8-0.3,1.3v5h-1.3v-8.4h1.3v1.3
			c0.3-0.5,0.6-0.9,1.1-1.1c0.5-0.2,1-0.4,1.6-0.4C249.4,280.1,250,280.2,250.5,280.5z"/>
		<path class="st0" d="M262.8,280.4c0.5,0.2,0.8,0.6,1.1,1s0.4,1,0.4,1.6v5.6H263v-1.2c-0.3,0.5-0.6,0.8-1.1,1.1
			c-0.5,0.2-1.1,0.4-1.7,0.4c-0.6,0-1-0.1-1.5-0.3c-0.4-0.2-0.8-0.5-1-0.9c-0.2-0.4-0.4-0.8-0.4-1.3c0-0.4,0.1-0.8,0.3-1.2
			c0.2-0.4,0.5-0.7,0.9-0.9c0.4-0.2,0.8-0.4,1.3-0.4l2.5-0.2c0.2,0,0.3-0.1,0.4-0.2c0.1-0.1,0.2-0.3,0.2-0.6c0-0.3-0.1-0.6-0.2-0.9
			s-0.4-0.4-0.7-0.6c-0.3-0.1-0.6-0.2-1-0.2c-0.4,0-0.7,0.1-1,0.2c-0.3,0.1-0.6,0.3-0.7,0.5c-0.2,0.2-0.3,0.5-0.3,0.7h-1.3
			c0-0.5,0.2-0.9,0.5-1.3c0.3-0.4,0.7-0.7,1.2-0.9c0.5-0.2,1.1-0.3,1.6-0.3C261.8,280.1,262.3,280.2,262.8,280.4z M261.8,287.5
			c0.4-0.2,0.7-0.5,0.9-0.8c0.2-0.4,0.3-0.8,0.3-1.2v-1l-2.9,0.3c-0.4,0-0.8,0.2-1.1,0.5s-0.4,0.6-0.4,1c0,0.3,0.1,0.5,0.2,0.8
			c0.1,0.2,0.4,0.4,0.6,0.5c0.3,0.1,0.6,0.2,0.9,0.2C261,287.8,261.4,287.7,261.8,287.5z"/>
		<path class="st0" d="M270.7,280.2v1.4h-0.3c-0.8,0-1.4,0.2-1.8,0.7s-0.7,1.1-0.7,1.9v4.5h-1.3v-8.4h1.3v1.7c0.2-0.6,0.6-1,1-1.3
			s0.9-0.5,1.5-0.5H270.7z"/>
		<path class="st0" d="M273.5,288.3c-0.6-0.4-1.1-0.9-1.5-1.6s-0.5-1.4-0.5-2.2c0-0.8,0.2-1.6,0.5-2.2s0.9-1.2,1.5-1.6
			c0.6-0.4,1.4-0.6,2.1-0.6c0.7,0,1.3,0.1,1.9,0.4s1,0.6,1.4,1.1s0.6,1,0.6,1.6h-1.3c-0.1-0.4-0.2-0.7-0.5-1s-0.5-0.5-0.9-0.7
			s-0.8-0.2-1.2-0.2c-0.5,0-1,0.1-1.4,0.4c-0.4,0.3-0.8,0.7-1,1.2c-0.2,0.5-0.4,1-0.4,1.7s0.1,1.2,0.4,1.7c0.2,0.5,0.6,0.9,1,1.2
			c0.4,0.3,0.9,0.4,1.4,0.4c0.4,0,0.8-0.1,1.2-0.2c0.4-0.2,0.7-0.4,0.9-0.7s0.4-0.6,0.5-0.9h1.3c0,0.6-0.3,1.1-0.6,1.5
			c-0.4,0.5-0.8,0.8-1.4,1.1c-0.6,0.3-1.2,0.4-1.9,0.4C274.8,288.9,274.1,288.7,273.5,288.3z"/>
		<path class="st0" d="M286.9,280.5c0.5,0.3,0.8,0.7,1.1,1.2c0.3,0.5,0.4,1.1,0.4,1.7v5.3h-1.3v-5.2c0-0.7-0.2-1.3-0.5-1.7
			c-0.4-0.4-0.9-0.6-1.5-0.6c-0.5,0-0.9,0.1-1.3,0.3s-0.6,0.5-0.8,0.9c-0.2,0.4-0.3,0.9-0.3,1.4v4.8h-1.3v-11.5h1.3v2.7l0,1.7
			c0.3-0.5,0.6-0.8,1.1-1.1s1-0.4,1.6-0.4C285.9,280.1,286.4,280.2,286.9,280.5z"/>
		<path class="st0" d="M290.6,278.7v-1.6h1.5v1.6H290.6z M292,288.7h-1.3v-8.4h1.3V288.7z"/>
		<path class="st0" d="M296.7,288.7c-0.6,0-1.1-0.2-1.4-0.5c-0.4-0.3-0.5-0.8-0.5-1.3l0-5.4h-1.5l0-1.2h0.9c0.2,0,0.4-0.1,0.5-0.2
			c0.1-0.1,0.2-0.3,0.2-0.5v-1.4h1.2v2.1h2l0,1.2h-2l0,5.3c0,0.2,0.1,0.4,0.2,0.5c0.1,0.1,0.3,0.2,0.5,0.2h1.3v1.2H296.7z"/>
		<path class="st0" d="M307.3,284.8h-6.7c0,0.6,0.2,1.1,0.5,1.5c0.3,0.4,0.6,0.8,1,1s0.9,0.4,1.4,0.4c0.4,0,0.7-0.1,1-0.2
			c0.3-0.1,0.6-0.3,0.8-0.5s0.4-0.4,0.5-0.7h1.3c-0.1,0.5-0.3,0.9-0.7,1.2c-0.4,0.4-0.8,0.7-1.3,0.9c-0.5,0.2-1.1,0.3-1.7,0.3
			c-0.8,0-1.5-0.2-2.1-0.6c-0.6-0.4-1.1-0.9-1.5-1.6c-0.4-0.7-0.5-1.4-0.5-2.3c0-0.8,0.2-1.6,0.5-2.2c0.4-0.7,0.8-1.2,1.5-1.6
			c0.6-0.4,1.3-0.6,2.1-0.6c0.7,0,1.4,0.2,2,0.6c0.6,0.4,1.1,0.9,1.4,1.6c0.3,0.7,0.5,1.4,0.5,2.3V284.8z M301.6,281.9
			c-0.5,0.4-0.8,1-0.9,1.8h5.3c-0.1-0.8-0.4-1.4-0.8-1.8c-0.4-0.4-1-0.7-1.7-0.7C302.7,281.2,302.1,281.4,301.6,281.9z"/>
		<path class="st0" d="M310.5,288.3c-0.6-0.4-1.1-0.9-1.5-1.6s-0.5-1.4-0.5-2.2c0-0.8,0.2-1.6,0.5-2.2s0.9-1.2,1.5-1.6
			c0.6-0.4,1.4-0.6,2.1-0.6c0.7,0,1.3,0.1,1.9,0.4s1,0.6,1.4,1.1s0.6,1,0.6,1.6h-1.3c-0.1-0.4-0.2-0.7-0.5-1s-0.5-0.5-0.9-0.7
			s-0.8-0.2-1.2-0.2c-0.5,0-1,0.1-1.4,0.4c-0.4,0.3-0.8,0.7-1,1.2c-0.2,0.5-0.4,1-0.4,1.7s0.1,1.2,0.4,1.7c0.2,0.5,0.6,0.9,1,1.2
			c0.4,0.3,0.9,0.4,1.4,0.4c0.4,0,0.8-0.1,1.2-0.2c0.4-0.2,0.7-0.4,0.9-0.7s0.4-0.6,0.5-0.9h1.3c0,0.6-0.3,1.1-0.6,1.5
			c-0.4,0.5-0.8,0.8-1.4,1.1c-0.6,0.3-1.2,0.4-1.9,0.4C311.9,288.9,311.2,288.7,310.5,288.3z"/>
		<path class="st0" d="M320.6,288.7c-0.6,0-1.1-0.2-1.4-0.5c-0.4-0.3-0.5-0.8-0.5-1.3l0-5.4h-1.5l0-1.2h0.9c0.2,0,0.4-0.1,0.5-0.2
			c0.1-0.1,0.2-0.3,0.2-0.5v-1.4h1.2v2.1h2l0,1.2h-2l0,5.3c0,0.2,0.1,0.4,0.2,0.5c0.1,0.1,0.3,0.2,0.5,0.2h1.3v1.2H320.6z"/>
		<path class="st0" d="M329.4,280.2h1.3v8.4h-1.3v-1.3c-0.3,0.5-0.6,0.9-1.1,1.1c-0.5,0.2-1,0.4-1.6,0.4c-0.6,0-1.2-0.1-1.6-0.4
			s-0.8-0.7-1.1-1.2c-0.3-0.5-0.4-1.1-0.4-1.7v-5.3h1.3v5.2c0,0.7,0.2,1.3,0.6,1.7c0.4,0.4,0.9,0.6,1.5,0.6c0.5,0,0.9-0.1,1.2-0.3
			c0.4-0.2,0.6-0.5,0.8-0.9s0.3-0.8,0.3-1.3V280.2z"/>
		<path class="st0" d="M337.3,280.2v1.4H337c-0.8,0-1.4,0.2-1.8,0.7s-0.7,1.1-0.7,1.9v4.5h-1.3v-8.4h1.3v1.7c0.2-0.6,0.6-1,1-1.3
			s0.9-0.5,1.5-0.5H337.3z"/>
		<path class="st0" d="M346,284.8h-6.7c0,0.6,0.2,1.1,0.5,1.5c0.3,0.4,0.6,0.8,1,1s0.9,0.4,1.4,0.4c0.4,0,0.7-0.1,1-0.2
			c0.3-0.1,0.6-0.3,0.8-0.5s0.4-0.4,0.5-0.7h1.3c-0.1,0.5-0.3,0.9-0.7,1.2c-0.4,0.4-0.8,0.7-1.3,0.9c-0.5,0.2-1.1,0.3-1.7,0.3
			c-0.8,0-1.5-0.2-2.1-0.6c-0.6-0.4-1.1-0.9-1.5-1.6c-0.4-0.7-0.5-1.4-0.5-2.3c0-0.8,0.2-1.6,0.5-2.2c0.4-0.7,0.8-1.2,1.5-1.6
			c0.6-0.4,1.3-0.6,2.1-0.6c0.7,0,1.4,0.2,2,0.6c0.6,0.4,1.1,0.9,1.4,1.6c0.3,0.7,0.5,1.4,0.5,2.3V284.8z M340.3,281.9
			c-0.5,0.4-0.8,1-0.9,1.8h5.3c-0.1-0.8-0.4-1.4-0.8-1.8c-0.4-0.4-1-0.7-1.7-0.7C341.4,281.2,340.8,281.4,340.3,281.9z"/>
		<path class="st0" d="M354.3,288.7h-1.4l-2.8-8.4h1.4l1.9,6.2l0.2,0.7l0.2-0.7l2-6.2h1.4l2,6.2l0.2,0.7l0.2-0.7l1.9-6.2h1.4
			l-2.8,8.4h-1.4l-2-6.5l-0.2-0.5l-0.1,0.5L354.3,288.7z"/>
		<path class="st0" d="M364.1,278.7v-1.6h1.5v1.6H364.1z M365.5,288.7h-1.3v-8.4h1.3V288.7z"/>
		<path class="st0" d="M370.3,288.7c-0.6,0-1.1-0.2-1.4-0.5c-0.4-0.3-0.5-0.8-0.5-1.3l0-5.4h-1.5l0-1.2h0.9c0.2,0,0.4-0.1,0.5-0.2
			c0.1-0.1,0.2-0.3,0.2-0.5v-1.4h1.2v2.1h2l0,1.2h-2l0,5.3c0,0.2,0.1,0.4,0.2,0.5c0.1,0.1,0.3,0.2,0.5,0.2h1.3v1.2H370.3z"/>
		<path class="st0" d="M379.1,280.5c0.5,0.3,0.8,0.7,1.1,1.2c0.3,0.5,0.4,1.1,0.4,1.7v5.3h-1.3v-5.2c0-0.7-0.2-1.3-0.5-1.7
			c-0.4-0.4-0.9-0.6-1.5-0.6c-0.5,0-0.9,0.1-1.3,0.3s-0.6,0.5-0.8,0.9c-0.2,0.4-0.3,0.9-0.3,1.4v4.8h-1.3v-11.5h1.3v2.7l0,1.7
			c0.3-0.5,0.6-0.8,1.1-1.1s1-0.4,1.6-0.4C378.1,280.1,378.7,280.2,379.1,280.5z"/>
		<path class="st0" d="M18.6,306c-0.6-0.4-1.1-0.9-1.5-1.6s-0.5-1.4-0.5-2.2c0-0.8,0.2-1.6,0.5-2.2s0.9-1.2,1.5-1.6
			c0.6-0.4,1.4-0.6,2.1-0.6c0.7,0,1.3,0.1,1.9,0.4s1,0.6,1.4,1.1s0.6,1,0.6,1.6h-1.3c-0.1-0.4-0.2-0.7-0.5-1s-0.5-0.5-0.9-0.7
			s-0.8-0.2-1.2-0.2c-0.5,0-1,0.1-1.4,0.4c-0.4,0.3-0.8,0.7-1,1.2c-0.2,0.5-0.4,1-0.4,1.7s0.1,1.2,0.4,1.7c0.2,0.5,0.6,0.9,1,1.2
			c0.4,0.3,0.9,0.4,1.4,0.4c0.4,0,0.8-0.1,1.2-0.2c0.4-0.2,0.7-0.4,0.9-0.7s0.4-0.6,0.5-0.9h1.3c0,0.6-0.3,1.1-0.6,1.5
			c-0.4,0.5-0.8,0.8-1.4,1.1c-0.6,0.3-1.2,0.4-1.9,0.4C20,306.6,19.3,306.4,18.6,306z"/>
		<path class="st0" d="M27.9,306c-0.6-0.4-1.1-0.9-1.5-1.6c-0.4-0.7-0.5-1.4-0.5-2.3c0-0.8,0.2-1.6,0.5-2.3s0.9-1.2,1.5-1.6
			c0.6-0.4,1.4-0.6,2.2-0.6c0.8,0,1.5,0.2,2.2,0.6c0.6,0.4,1.2,0.9,1.5,1.6c0.4,0.7,0.5,1.4,0.5,2.3c0,0.8-0.2,1.6-0.6,2.3
			c-0.4,0.7-0.9,1.2-1.5,1.6c-0.6,0.4-1.4,0.6-2.2,0.6C29.2,306.6,28.5,306.4,27.9,306z M31.5,304.9c0.4-0.3,0.8-0.6,1-1.1
			c0.2-0.5,0.4-1,0.4-1.7c0-0.6-0.1-1.2-0.4-1.7c-0.2-0.5-0.6-0.9-1-1.1c-0.4-0.3-0.9-0.4-1.5-0.4s-1,0.1-1.5,0.4
			c-0.4,0.3-0.8,0.6-1,1.1c-0.2,0.5-0.4,1-0.4,1.7c0,0.6,0.1,1.2,0.4,1.7c0.2,0.5,0.6,0.9,1,1.1c0.4,0.3,0.9,0.4,1.5,0.4
			S31.1,305.2,31.5,304.9z"/>
		<path class="st0" d="M43.7,297.9L43.7,297.9l0,8.4h-1.3v-1.4c-0.3,0.5-0.7,0.9-1.3,1.2c-0.5,0.3-1.1,0.4-1.7,0.4
			c-0.8,0-1.4-0.2-2.1-0.6c-0.6-0.4-1.1-0.9-1.5-1.6c-0.4-0.7-0.5-1.4-0.5-2.2c0-0.8,0.2-1.6,0.5-2.2c0.3-0.7,0.8-1.2,1.5-1.6
			c0.6-0.4,1.3-0.6,2.1-0.6c0.6,0,1.2,0.1,1.7,0.4c0.5,0.3,0.9,0.7,1.3,1.2l0-4.5h1.3V297.9z M41,305c0.4-0.3,0.8-0.7,1-1.2
			c0.2-0.5,0.4-1,0.4-1.6s-0.1-1.2-0.4-1.6c-0.2-0.5-0.6-0.9-1-1.2c-0.4-0.3-0.9-0.4-1.4-0.4c-0.5,0-1,0.1-1.4,0.4
			c-0.4,0.3-0.8,0.7-1,1.2c-0.2,0.5-0.4,1-0.4,1.6s0.1,1.2,0.4,1.6c0.2,0.5,0.6,0.9,1,1.2c0.4,0.3,0.9,0.4,1.4,0.4
			C40.1,305.4,40.6,305.2,41,305z"/>
		<path class="st0" d="M53.4,302.5h-6.7c0,0.6,0.2,1.1,0.5,1.5c0.3,0.4,0.6,0.8,1,1s0.9,0.4,1.4,0.4c0.4,0,0.7-0.1,1-0.2
			c0.3-0.1,0.6-0.3,0.8-0.5s0.4-0.4,0.5-0.7h1.3c-0.1,0.5-0.3,0.9-0.7,1.2c-0.4,0.4-0.8,0.7-1.3,0.9c-0.5,0.2-1.1,0.3-1.7,0.3
			c-0.8,0-1.5-0.2-2.1-0.6c-0.6-0.4-1.1-0.9-1.5-1.6c-0.4-0.7-0.5-1.4-0.5-2.3c0-0.8,0.2-1.6,0.5-2.2c0.4-0.7,0.8-1.2,1.5-1.6
			c0.6-0.4,1.3-0.6,2.1-0.6c0.7,0,1.4,0.2,2,0.6c0.6,0.4,1.1,0.9,1.4,1.6c0.3,0.7,0.5,1.4,0.5,2.3V302.5z M47.7,299.6
			c-0.5,0.4-0.8,1-0.9,1.8h5.3c-0.1-0.8-0.4-1.4-0.8-1.8c-0.4-0.4-1-0.7-1.7-0.7C48.8,298.9,48.2,299.1,47.7,299.6z"/>
		<path class="st0" d="M59.7,306.2c-0.5-0.2-0.9-0.5-1.2-0.9c-0.3-0.4-0.4-0.8-0.4-1.3h1.3c0,0.3,0.1,0.5,0.3,0.8
			c0.2,0.2,0.4,0.4,0.7,0.5c0.3,0.1,0.7,0.2,1.1,0.2c0.6,0,1.1-0.1,1.5-0.4c0.3-0.3,0.5-0.6,0.5-1.1c0-0.4-0.1-0.6-0.3-0.9
			s-0.5-0.4-0.9-0.4l-1.5-0.2c-0.7-0.1-1.3-0.4-1.7-0.8c-0.4-0.4-0.6-0.9-0.6-1.6c0-0.5,0.1-0.9,0.4-1.2c0.3-0.4,0.6-0.6,1.1-0.8
			c0.5-0.2,1-0.3,1.6-0.3c0.6,0,1.1,0.1,1.6,0.3c0.5,0.2,0.9,0.5,1.1,0.8c0.3,0.4,0.4,0.8,0.4,1.2h-1.3c0-0.2-0.1-0.5-0.3-0.7
			c-0.2-0.2-0.4-0.4-0.7-0.5c-0.3-0.1-0.6-0.2-1-0.2c-0.3,0-0.6,0.1-0.9,0.2c-0.3,0.1-0.5,0.3-0.6,0.4s-0.2,0.4-0.2,0.7
			c0,0.3,0.1,0.6,0.3,0.8c0.2,0.2,0.5,0.3,0.9,0.4l1.6,0.3c0.8,0.1,1.4,0.4,1.8,0.8c0.4,0.4,0.6,1,0.6,1.6c0,0.5-0.1,1-0.4,1.4
			c-0.3,0.4-0.6,0.7-1.1,0.9c-0.5,0.2-1,0.3-1.7,0.3C60.8,306.6,60.2,306.4,59.7,306.2z"/>
		<path class="st0" d="M72.2,298.2c0.5,0.3,0.8,0.7,1.1,1.2c0.3,0.5,0.4,1.1,0.4,1.7v5.3h-1.3v-5.2c0-0.7-0.2-1.3-0.5-1.7
			c-0.4-0.4-0.9-0.6-1.5-0.6c-0.5,0-0.9,0.1-1.3,0.3s-0.6,0.5-0.8,0.9c-0.2,0.4-0.3,0.9-0.3,1.4v4.8h-1.3v-11.5h1.3v2.7l0,1.7
			c0.3-0.5,0.6-0.8,1.1-1.1s1-0.4,1.6-0.4C71.2,297.7,71.7,297.9,72.2,298.2z"/>
		<path class="st0" d="M80.8,298.1c0.5,0.2,0.8,0.6,1.1,1s0.4,1,0.4,1.6v5.6h-1.3v-1.2c-0.3,0.5-0.6,0.8-1.1,1.1
			c-0.5,0.2-1.1,0.4-1.7,0.4c-0.6,0-1-0.1-1.5-0.3c-0.4-0.2-0.8-0.5-1-0.9c-0.2-0.4-0.4-0.8-0.4-1.3c0-0.4,0.1-0.8,0.3-1.2
			c0.2-0.4,0.5-0.7,0.9-0.9c0.4-0.2,0.8-0.4,1.3-0.4l2.5-0.2c0.2,0,0.3-0.1,0.4-0.2c0.1-0.1,0.2-0.3,0.2-0.6c0-0.3-0.1-0.6-0.2-0.9
			s-0.4-0.4-0.7-0.6c-0.3-0.1-0.6-0.2-1-0.2c-0.4,0-0.7,0.1-1,0.2c-0.3,0.1-0.6,0.3-0.7,0.5c-0.2,0.2-0.3,0.5-0.3,0.7h-1.3
			c0-0.5,0.2-0.9,0.5-1.3c0.3-0.4,0.7-0.7,1.2-0.9c0.5-0.2,1.1-0.3,1.6-0.3C79.8,297.7,80.3,297.9,80.8,298.1z M79.8,305.2
			c0.4-0.2,0.7-0.5,0.9-0.8c0.2-0.4,0.3-0.8,0.3-1.2v-1l-2.9,0.3c-0.4,0-0.8,0.2-1.1,0.5s-0.4,0.6-0.4,1c0,0.3,0.1,0.5,0.2,0.8
			c0.1,0.2,0.4,0.4,0.6,0.5c0.3,0.1,0.6,0.2,0.9,0.2C79,305.5,79.4,305.4,79.8,305.2z"/>
		<path class="st0" d="M88.7,297.9v1.4h-0.3c-0.8,0-1.4,0.2-1.8,0.7s-0.7,1.1-0.7,1.9v4.5h-1.3v-8.4h1.3v1.7c0.2-0.6,0.6-1,1-1.3
			s0.9-0.5,1.5-0.5H88.7z"/>
		<path class="st0" d="M97.5,302.5h-6.7c0,0.6,0.2,1.1,0.5,1.5c0.3,0.4,0.6,0.8,1,1s0.9,0.4,1.4,0.4c0.4,0,0.7-0.1,1-0.2
			c0.3-0.1,0.6-0.3,0.8-0.5s0.4-0.4,0.5-0.7h1.3c-0.1,0.5-0.3,0.9-0.7,1.2c-0.4,0.4-0.8,0.7-1.3,0.9c-0.5,0.2-1.1,0.3-1.7,0.3
			c-0.8,0-1.5-0.2-2.1-0.6c-0.6-0.4-1.1-0.9-1.5-1.6c-0.4-0.7-0.5-1.4-0.5-2.3c0-0.8,0.2-1.6,0.5-2.2c0.4-0.7,0.8-1.2,1.5-1.6
			c0.6-0.4,1.3-0.6,2.1-0.6c0.7,0,1.4,0.2,2,0.6c0.6,0.4,1.1,0.9,1.4,1.6c0.3,0.7,0.5,1.4,0.5,2.3V302.5z M91.7,299.6
			c-0.5,0.4-0.8,1-0.9,1.8h5.3c-0.1-0.8-0.4-1.4-0.8-1.8c-0.4-0.4-1-0.7-1.7-0.7C92.8,298.9,92.2,299.1,91.7,299.6z"/>
		<path class="st0" d="M106.9,297.9L106.9,297.9l0,8.4h-1.3v-1.4c-0.3,0.5-0.7,0.9-1.3,1.2c-0.5,0.3-1.1,0.4-1.7,0.4
			c-0.8,0-1.4-0.2-2.1-0.6c-0.6-0.4-1.1-0.9-1.5-1.6c-0.4-0.7-0.5-1.4-0.5-2.2c0-0.8,0.2-1.6,0.5-2.2c0.3-0.7,0.8-1.2,1.5-1.6
			c0.6-0.4,1.3-0.6,2.1-0.6c0.6,0,1.2,0.1,1.7,0.4c0.5,0.3,0.9,0.7,1.3,1.2l0-4.5h1.3V297.9z M104.2,305c0.4-0.3,0.8-0.7,1-1.2
			c0.2-0.5,0.4-1,0.4-1.6s-0.1-1.2-0.4-1.6c-0.2-0.5-0.6-0.9-1-1.2c-0.4-0.3-0.9-0.4-1.4-0.4c-0.5,0-1,0.1-1.4,0.4
			c-0.4,0.3-0.8,0.7-1,1.2c-0.2,0.5-0.4,1-0.4,1.6s0.1,1.2,0.4,1.6c0.2,0.5,0.6,0.9,1,1.2c0.4,0.3,0.9,0.4,1.4,0.4
			C103.3,305.4,103.8,305.2,104.2,305z"/>
		<path class="st0" d="M119.4,298.3c0.6,0.4,1.1,0.9,1.5,1.6s0.5,1.4,0.5,2.2c0,0.8-0.2,1.6-0.5,2.2s-0.8,1.2-1.5,1.6
			c-0.6,0.4-1.3,0.6-2.1,0.6c-0.6,0-1.2-0.1-1.7-0.4c-0.5-0.3-0.9-0.7-1.3-1.2v1.4H113v-8.4h0v-3.1h1.3l0,4.5
			c0.3-0.5,0.7-0.9,1.3-1.2c0.5-0.3,1.1-0.4,1.7-0.4C118.1,297.7,118.7,297.9,119.4,298.3z M118.6,305c0.4-0.3,0.8-0.7,1-1.2
			c0.2-0.5,0.4-1,0.4-1.6s-0.1-1.2-0.4-1.6c-0.2-0.5-0.6-0.9-1-1.2c-0.4-0.3-0.9-0.4-1.4-0.4c-0.5,0-1,0.1-1.4,0.4
			c-0.4,0.3-0.8,0.7-1,1.2c-0.2,0.5-0.4,1-0.4,1.6s0.1,1.2,0.4,1.6c0.2,0.5,0.6,0.9,1,1.2c0.4,0.3,0.9,0.4,1.4,0.4
			C117.7,305.4,118.2,305.2,118.6,305z"/>
		<path class="st0" d="M130.5,302.5h-6.7c0,0.6,0.2,1.1,0.5,1.5c0.3,0.4,0.6,0.8,1,1s0.9,0.4,1.4,0.4c0.4,0,0.7-0.1,1-0.2
			c0.3-0.1,0.6-0.3,0.8-0.5s0.4-0.4,0.5-0.7h1.3c-0.1,0.5-0.3,0.9-0.7,1.2c-0.4,0.4-0.8,0.7-1.3,0.9c-0.5,0.2-1.1,0.3-1.7,0.3
			c-0.8,0-1.5-0.2-2.1-0.6c-0.6-0.4-1.1-0.9-1.5-1.6c-0.4-0.7-0.5-1.4-0.5-2.3c0-0.8,0.2-1.6,0.5-2.2c0.4-0.7,0.8-1.2,1.5-1.6
			c0.6-0.4,1.3-0.6,2.1-0.6c0.7,0,1.4,0.2,2,0.6c0.6,0.4,1.1,0.9,1.4,1.6c0.3,0.7,0.5,1.4,0.5,2.3V302.5z M124.8,299.6
			c-0.5,0.4-0.8,1-0.9,1.8h5.3c-0.1-0.8-0.4-1.4-0.8-1.8c-0.4-0.4-1-0.7-1.7-0.7C125.9,298.9,125.3,299.1,124.8,299.6z"/>
		<path class="st0" d="M134.6,306.4c-0.6,0-1.1-0.2-1.4-0.5c-0.4-0.3-0.5-0.8-0.5-1.3l0-5.4h-1.5l0-1.2h0.9c0.2,0,0.4-0.1,0.5-0.2
			c0.1-0.1,0.2-0.3,0.2-0.5v-1.4h1.2v2.1h2l0,1.2h-2l0,5.3c0,0.2,0.1,0.4,0.2,0.5c0.1,0.1,0.3,0.2,0.5,0.2h1.3v1.2H134.6z"/>
		<path class="st0" d="M140.9,306.4h-1.4l-2.8-8.4h1.4l1.9,6.2l0.2,0.7l0.2-0.7l2-6.2h1.4l2,6.2l0.2,0.7l0.2-0.7l1.9-6.2h1.4
			l-2.8,8.4h-1.4l-2-6.5l-0.2-0.5l-0.1,0.5L140.9,306.4z"/>
		<path class="st0" d="M158.1,302.5h-6.7c0,0.6,0.2,1.1,0.5,1.5c0.3,0.4,0.6,0.8,1,1s0.9,0.4,1.4,0.4c0.4,0,0.7-0.1,1-0.2
			c0.3-0.1,0.6-0.3,0.8-0.5s0.4-0.4,0.5-0.7h1.3c-0.1,0.5-0.3,0.9-0.7,1.2c-0.4,0.4-0.8,0.7-1.3,0.9c-0.5,0.2-1.1,0.3-1.7,0.3
			c-0.8,0-1.5-0.2-2.1-0.6c-0.6-0.4-1.1-0.9-1.5-1.6c-0.4-0.7-0.5-1.4-0.5-2.3c0-0.8,0.2-1.6,0.5-2.2c0.4-0.7,0.8-1.2,1.5-1.6
			c0.6-0.4,1.3-0.6,2.1-0.6c0.7,0,1.4,0.2,2,0.6c0.6,0.4,1.1,0.9,1.4,1.6c0.3,0.7,0.5,1.4,0.5,2.3V302.5z M152.4,299.6
			c-0.5,0.4-0.8,1-0.9,1.8h5.3c-0.1-0.8-0.4-1.4-0.8-1.8c-0.4-0.4-1-0.7-1.7-0.7C153.5,298.9,152.9,299.1,152.4,299.6z"/>
		<path class="st0" d="M167.3,302.5h-6.7c0,0.6,0.2,1.1,0.5,1.5c0.3,0.4,0.6,0.8,1,1s0.9,0.4,1.4,0.4c0.4,0,0.7-0.1,1-0.2
			c0.3-0.1,0.6-0.3,0.8-0.5s0.4-0.4,0.5-0.7h1.3c-0.1,0.5-0.3,0.9-0.7,1.2c-0.4,0.4-0.8,0.7-1.3,0.9c-0.5,0.2-1.1,0.3-1.7,0.3
			c-0.8,0-1.5-0.2-2.1-0.6c-0.6-0.4-1.1-0.9-1.5-1.6c-0.4-0.7-0.5-1.4-0.5-2.3c0-0.8,0.2-1.6,0.5-2.2c0.4-0.7,0.8-1.2,1.5-1.6
			c0.6-0.4,1.3-0.6,2.1-0.6c0.7,0,1.4,0.2,2,0.6c0.6,0.4,1.1,0.9,1.4,1.6c0.3,0.7,0.5,1.4,0.5,2.3V302.5z M161.6,299.6
			c-0.5,0.4-0.8,1-0.9,1.8h5.3c-0.1-0.8-0.4-1.4-0.8-1.8c-0.4-0.4-1-0.7-1.7-0.7C162.7,298.9,162,299.1,161.6,299.6z"/>
		<path class="st0" d="M174.7,298.2c0.5,0.3,0.8,0.7,1.1,1.2c0.3,0.5,0.4,1.1,0.4,1.7v5.3h-1.3v-5.2c0-0.7-0.2-1.3-0.6-1.7
			s-0.9-0.6-1.5-0.6c-0.5,0-0.9,0.1-1.2,0.3s-0.6,0.5-0.8,0.9c-0.2,0.4-0.3,0.8-0.3,1.3v5h-1.3v-8.4h1.3v1.3
			c0.3-0.5,0.6-0.9,1.1-1.1c0.5-0.2,1-0.4,1.6-0.4C173.7,297.7,174.2,297.9,174.7,298.2z"/>
		<path class="st0" d="M184.5,306.4c-0.6,0-1.1-0.2-1.4-0.5c-0.4-0.3-0.5-0.8-0.5-1.3l0-5.4H181l0-1.2h0.9c0.2,0,0.4-0.1,0.5-0.2
			c0.1-0.1,0.2-0.3,0.2-0.5v-1.4h1.2v2.1h2l0,1.2h-2l0,5.3c0,0.2,0.1,0.4,0.2,0.5c0.1,0.1,0.3,0.2,0.5,0.2h1.3v1.2H184.5z"/>
		<path class="st0" d="M193.3,298.2c0.5,0.3,0.8,0.7,1.1,1.2c0.3,0.5,0.4,1.1,0.4,1.7v5.3h-1.3v-5.2c0-0.7-0.2-1.3-0.5-1.7
			c-0.4-0.4-0.9-0.6-1.5-0.6c-0.5,0-0.9,0.1-1.3,0.3s-0.6,0.5-0.8,0.9c-0.2,0.4-0.3,0.9-0.3,1.4v4.8h-1.3v-11.5h1.3v2.7l0,1.7
			c0.3-0.5,0.6-0.8,1.1-1.1s1-0.4,1.6-0.4C192.3,297.7,192.8,297.9,193.3,298.2z"/>
		<path class="st0" d="M204.4,302.5h-6.7c0,0.6,0.2,1.1,0.5,1.5c0.3,0.4,0.6,0.8,1,1s0.9,0.4,1.4,0.4c0.4,0,0.7-0.1,1-0.2
			c0.3-0.1,0.6-0.3,0.8-0.5s0.4-0.4,0.5-0.7h1.3c-0.1,0.5-0.3,0.9-0.7,1.2c-0.4,0.4-0.8,0.7-1.3,0.9c-0.5,0.2-1.1,0.3-1.7,0.3
			c-0.8,0-1.5-0.2-2.1-0.6c-0.6-0.4-1.1-0.9-1.5-1.6c-0.4-0.7-0.5-1.4-0.5-2.3c0-0.8,0.2-1.6,0.5-2.2c0.4-0.7,0.8-1.2,1.5-1.6
			c0.6-0.4,1.3-0.6,2.1-0.6c0.7,0,1.4,0.2,2,0.6c0.6,0.4,1.1,0.9,1.4,1.6c0.3,0.7,0.5,1.4,0.5,2.3V302.5z M198.7,299.6
			c-0.5,0.4-0.8,1-0.9,1.8h5.3c-0.1-0.8-0.4-1.4-0.8-1.8c-0.4-0.4-1-0.7-1.7-0.7C199.8,298.9,199.2,299.1,198.7,299.6z"/>
		<path class="st0" d="M210.7,306.2c-0.5-0.2-0.9-0.5-1.2-0.9c-0.3-0.4-0.4-0.8-0.4-1.3h1.3c0,0.3,0.1,0.5,0.3,0.8
			c0.2,0.2,0.4,0.4,0.7,0.5c0.3,0.1,0.7,0.2,1.1,0.2c0.6,0,1.1-0.1,1.5-0.4c0.3-0.3,0.5-0.6,0.5-1.1c0-0.4-0.1-0.6-0.3-0.9
			s-0.5-0.4-0.9-0.4l-1.5-0.2c-0.7-0.1-1.3-0.4-1.7-0.8c-0.4-0.4-0.6-0.9-0.6-1.6c0-0.5,0.1-0.9,0.4-1.2c0.3-0.4,0.6-0.6,1.1-0.8
			c0.5-0.2,1-0.3,1.6-0.3c0.6,0,1.1,0.1,1.6,0.3c0.5,0.2,0.9,0.5,1.1,0.8s0.4,0.8,0.4,1.2h-1.3c0-0.2-0.1-0.5-0.3-0.7
			c-0.2-0.2-0.4-0.4-0.7-0.5c-0.3-0.1-0.6-0.2-1-0.2c-0.3,0-0.6,0.1-0.9,0.2c-0.3,0.1-0.5,0.3-0.6,0.4s-0.2,0.4-0.2,0.7
			c0,0.3,0.1,0.6,0.3,0.8c0.2,0.2,0.5,0.3,0.9,0.4l1.6,0.3c0.8,0.1,1.4,0.4,1.8,0.8c0.4,0.4,0.6,1,0.6,1.6c0,0.5-0.1,1-0.4,1.4
			c-0.3,0.4-0.6,0.7-1.1,0.9c-0.5,0.2-1,0.3-1.7,0.3C211.8,306.6,211.2,306.4,210.7,306.2z"/>
		<path class="st0" d="M224.9,302.5h-6.7c0,0.6,0.2,1.1,0.5,1.5c0.3,0.4,0.6,0.8,1,1s0.9,0.4,1.4,0.4c0.4,0,0.7-0.1,1-0.2
			c0.3-0.1,0.6-0.3,0.8-0.5s0.4-0.4,0.5-0.7h1.3c-0.1,0.5-0.3,0.9-0.7,1.2c-0.4,0.4-0.8,0.7-1.3,0.9c-0.5,0.2-1.1,0.3-1.7,0.3
			c-0.8,0-1.5-0.2-2.1-0.6c-0.6-0.4-1.1-0.9-1.5-1.6c-0.4-0.7-0.5-1.4-0.5-2.3c0-0.8,0.2-1.6,0.5-2.2c0.4-0.7,0.8-1.2,1.5-1.6
			c0.6-0.4,1.3-0.6,2.1-0.6c0.7,0,1.4,0.2,2,0.6c0.6,0.4,1.1,0.9,1.4,1.6c0.3,0.7,0.5,1.4,0.5,2.3V302.5z M219.2,299.6
			c-0.5,0.4-0.8,1-0.9,1.8h5.3c-0.1-0.8-0.4-1.4-0.8-1.8c-0.4-0.4-1-0.7-1.7-0.7C220.3,298.9,219.7,299.1,219.2,299.6z"/>
		<path class="st0" d="M230.8,297.9v1.4h-0.3c-0.8,0-1.4,0.2-1.8,0.7s-0.7,1.1-0.7,1.9v4.5h-1.3v-8.4h1.3v1.7c0.2-0.6,0.6-1,1-1.3
			s0.9-0.5,1.5-0.5H230.8z"/>
		<path class="st0" d="M235.9,306.4h-1.4l-3.3-8.4h1.4l2.6,6.9l2.5-6.9h1.4L235.9,306.4z"/>
		<path class="st0" d="M247.8,302.5h-6.7c0,0.6,0.2,1.1,0.5,1.5c0.3,0.4,0.6,0.8,1,1s0.9,0.4,1.4,0.4c0.4,0,0.7-0.1,1-0.2
			c0.3-0.1,0.6-0.3,0.8-0.5s0.4-0.4,0.5-0.7h1.3c-0.1,0.5-0.3,0.9-0.7,1.2c-0.4,0.4-0.8,0.7-1.3,0.9c-0.5,0.2-1.1,0.3-1.7,0.3
			c-0.8,0-1.5-0.2-2.1-0.6c-0.6-0.4-1.1-0.9-1.5-1.6c-0.4-0.7-0.5-1.4-0.5-2.3c0-0.8,0.2-1.6,0.5-2.2c0.4-0.7,0.8-1.2,1.5-1.6
			c0.6-0.4,1.3-0.6,2.1-0.6c0.7,0,1.4,0.2,2,0.6c0.6,0.4,1.1,0.9,1.4,1.6c0.3,0.7,0.5,1.4,0.5,2.3V302.5z M242.1,299.6
			c-0.5,0.4-0.8,1-0.9,1.8h5.3c-0.1-0.8-0.4-1.4-0.8-1.8c-0.4-0.4-1-0.7-1.7-0.7C243.2,298.9,242.6,299.1,242.1,299.6z"/>
		<path class="st0" d="M253.7,297.9v1.4h-0.3c-0.8,0-1.4,0.2-1.8,0.7s-0.7,1.1-0.7,1.9v4.5h-1.3v-8.4h1.3v1.7c0.2-0.6,0.6-1,1-1.3
			s0.9-0.5,1.5-0.5H253.7z"/>
		<path class="st0" d="M263.5,298.1c0.5,0.2,0.8,0.6,1.1,1s0.4,1,0.4,1.6v5.6h-1.3v-1.2c-0.3,0.5-0.6,0.8-1.1,1.1
			c-0.5,0.2-1.1,0.4-1.7,0.4c-0.6,0-1-0.1-1.5-0.3c-0.4-0.2-0.8-0.5-1-0.9c-0.2-0.4-0.4-0.8-0.4-1.3c0-0.4,0.1-0.8,0.3-1.2
			c0.2-0.4,0.5-0.7,0.9-0.9c0.4-0.2,0.8-0.4,1.3-0.4l2.5-0.2c0.2,0,0.3-0.1,0.4-0.2c0.1-0.1,0.2-0.3,0.2-0.6c0-0.3-0.1-0.6-0.2-0.9
			s-0.4-0.4-0.7-0.6c-0.3-0.1-0.6-0.2-1-0.2c-0.4,0-0.7,0.1-1,0.2c-0.3,0.1-0.6,0.3-0.7,0.5c-0.2,0.2-0.3,0.5-0.3,0.7h-1.3
			c0-0.5,0.2-0.9,0.5-1.3c0.3-0.4,0.7-0.7,1.2-0.9c0.5-0.2,1.1-0.3,1.6-0.3C262.5,297.7,263,297.9,263.5,298.1z M262.5,305.2
			c0.4-0.2,0.7-0.5,0.9-0.8c0.2-0.4,0.3-0.8,0.3-1.2v-1l-2.9,0.3c-0.4,0-0.8,0.2-1.1,0.5s-0.4,0.6-0.4,1c0,0.3,0.1,0.5,0.2,0.8
			c0.1,0.2,0.4,0.4,0.6,0.5c0.3,0.1,0.6,0.2,0.9,0.2C261.7,305.5,262.1,305.4,262.5,305.2z"/>
		<path class="st0" d="M272.9,298.2c0.5,0.3,0.8,0.7,1.1,1.2c0.3,0.5,0.4,1.1,0.4,1.7v5.3h-1.3v-5.2c0-0.7-0.2-1.3-0.6-1.7
			s-0.9-0.6-1.5-0.6c-0.5,0-0.9,0.1-1.2,0.3s-0.6,0.5-0.8,0.9c-0.2,0.4-0.3,0.8-0.3,1.3v5h-1.3v-8.4h1.3v1.3
			c0.3-0.5,0.6-0.9,1.1-1.1c0.5-0.2,1-0.4,1.6-0.4C271.9,297.7,272.4,297.9,272.9,298.2z"/>
		<path class="st0" d="M284.3,297.9L284.3,297.9l0,8.4H283v-1.4c-0.3,0.5-0.7,0.9-1.3,1.2c-0.5,0.3-1.1,0.4-1.7,0.4
			c-0.8,0-1.4-0.2-2.1-0.6c-0.6-0.4-1.1-0.9-1.5-1.6c-0.4-0.7-0.5-1.4-0.5-2.2c0-0.8,0.2-1.6,0.5-2.2c0.3-0.7,0.8-1.2,1.5-1.6
			c0.6-0.4,1.3-0.6,2.1-0.6c0.6,0,1.2,0.1,1.7,0.4c0.5,0.3,0.9,0.7,1.3,1.2l0-4.5h1.3V297.9z M281.6,305c0.4-0.3,0.8-0.7,1-1.2
			c0.2-0.5,0.4-1,0.4-1.6s-0.1-1.2-0.4-1.6c-0.2-0.5-0.6-0.9-1-1.2c-0.4-0.3-0.9-0.4-1.4-0.4c-0.5,0-1,0.1-1.4,0.4
			c-0.4,0.3-0.8,0.7-1,1.2c-0.2,0.5-0.4,1-0.4,1.6s0.1,1.2,0.4,1.6c0.2,0.5,0.6,0.9,1,1.2c0.4,0.3,0.9,0.4,1.4,0.4
			C280.7,305.4,281.2,305.2,281.6,305z"/>
		<path class="st0" d="M295.3,298.1c0.5,0.2,0.8,0.6,1.1,1s0.4,1,0.4,1.6v5.6h-1.3v-1.2c-0.3,0.5-0.6,0.8-1.1,1.1
			c-0.5,0.2-1.1,0.4-1.7,0.4c-0.6,0-1-0.1-1.5-0.3c-0.4-0.2-0.8-0.5-1-0.9c-0.2-0.4-0.4-0.8-0.4-1.3c0-0.4,0.1-0.8,0.3-1.2
			c0.2-0.4,0.5-0.7,0.9-0.9c0.4-0.2,0.8-0.4,1.3-0.4l2.5-0.2c0.2,0,0.3-0.1,0.4-0.2c0.1-0.1,0.2-0.3,0.2-0.6c0-0.3-0.1-0.6-0.2-0.9
			s-0.4-0.4-0.7-0.6c-0.3-0.1-0.6-0.2-1-0.2c-0.4,0-0.7,0.1-1,0.2c-0.3,0.1-0.6,0.3-0.7,0.5c-0.2,0.2-0.3,0.5-0.3,0.7h-1.3
			c0-0.5,0.2-0.9,0.5-1.3c0.3-0.4,0.7-0.7,1.2-0.9c0.5-0.2,1.1-0.3,1.6-0.3C294.3,297.7,294.8,297.9,295.3,298.1z M294.3,305.2
			c0.4-0.2,0.7-0.5,0.9-0.8c0.2-0.4,0.3-0.8,0.3-1.2v-1l-2.9,0.3c-0.4,0-0.8,0.2-1.1,0.5s-0.4,0.6-0.4,1c0,0.3,0.1,0.5,0.2,0.8
			c0.1,0.2,0.4,0.4,0.6,0.5c0.3,0.1,0.6,0.2,0.9,0.2C293.5,305.5,293.9,305.4,294.3,305.2z"/>
		<path class="st0" d="M300.4,306.4h-1.3v-11.5h1.3V306.4z"/>
		<path class="st0" d="M304.2,306.4h-1.3v-11.5h1.3V306.4z"/>
		<path class="st0" d="M312.7,306.4c-0.6,0-1.1-0.2-1.4-0.5c-0.4-0.3-0.5-0.8-0.5-1.3l0-5.4h-1.5l0-1.2h0.9c0.2,0,0.4-0.1,0.5-0.2
			c0.1-0.1,0.2-0.3,0.2-0.5v-1.4h1.2v2.1h2l0,1.2h-2l0,5.3c0,0.2,0.1,0.4,0.2,0.5c0.1,0.1,0.3,0.2,0.5,0.2h1.3v1.2H312.7z"/>
		<path class="st0" d="M321.6,298.2c0.5,0.3,0.8,0.7,1.1,1.2c0.3,0.5,0.4,1.1,0.4,1.7v5.3h-1.3v-5.2c0-0.7-0.2-1.3-0.5-1.7
			c-0.4-0.4-0.9-0.6-1.5-0.6c-0.5,0-0.9,0.1-1.3,0.3s-0.6,0.5-0.8,0.9c-0.2,0.4-0.3,0.9-0.3,1.4v4.8H316v-11.5h1.3v2.7l0,1.7
			c0.3-0.5,0.6-0.8,1.1-1.1s1-0.4,1.6-0.4C320.5,297.7,321.1,297.9,321.6,298.2z"/>
		<path class="st0" d="M332.7,302.5H326c0,0.6,0.2,1.1,0.5,1.5c0.3,0.4,0.6,0.8,1,1s0.9,0.4,1.4,0.4c0.4,0,0.7-0.1,1-0.2
			c0.3-0.1,0.6-0.3,0.8-0.5s0.4-0.4,0.5-0.7h1.3c-0.1,0.5-0.3,0.9-0.7,1.2c-0.4,0.4-0.8,0.7-1.3,0.9c-0.5,0.2-1.1,0.3-1.7,0.3
			c-0.8,0-1.5-0.2-2.1-0.6c-0.6-0.4-1.1-0.9-1.5-1.6c-0.4-0.7-0.5-1.4-0.5-2.3c0-0.8,0.2-1.6,0.5-2.2c0.4-0.7,0.8-1.2,1.5-1.6
			c0.6-0.4,1.3-0.6,2.1-0.6c0.7,0,1.4,0.2,2,0.6c0.6,0.4,1.1,0.9,1.4,1.6c0.3,0.7,0.5,1.4,0.5,2.3V302.5z M326.9,299.6
			c-0.5,0.4-0.8,1-0.9,1.8h5.3c-0.1-0.8-0.4-1.4-0.8-1.8c-0.4-0.4-1-0.7-1.7-0.7C328,298.9,327.4,299.1,326.9,299.6z"/>
		<path class="st0" d="M339.1,306c-0.6-0.4-1.1-0.9-1.5-1.6s-0.5-1.4-0.5-2.2c0-0.8,0.2-1.6,0.5-2.2s0.9-1.2,1.5-1.6
			c0.6-0.4,1.4-0.6,2.1-0.6c0.7,0,1.3,0.1,1.9,0.4s1,0.6,1.4,1.1s0.6,1,0.6,1.6h-1.3c-0.1-0.4-0.2-0.7-0.5-1s-0.5-0.5-0.9-0.7
			s-0.8-0.2-1.2-0.2c-0.5,0-1,0.1-1.4,0.4c-0.4,0.3-0.8,0.7-1,1.2c-0.2,0.5-0.4,1-0.4,1.7s0.1,1.2,0.4,1.7c0.2,0.5,0.6,0.9,1,1.2
			c0.4,0.3,0.9,0.4,1.4,0.4c0.4,0,0.8-0.1,1.2-0.2c0.4-0.2,0.7-0.4,0.9-0.7s0.4-0.6,0.5-0.9h1.3c0,0.6-0.3,1.1-0.6,1.5
			c-0.4,0.5-0.8,0.8-1.4,1.1c-0.6,0.3-1.2,0.4-1.9,0.4C340.4,306.6,339.7,306.4,339.1,306z"/>
		<path class="st0" d="M348.2,306.4h-1.3v-11.5h1.3V306.4z"/>
		<path class="st0" d="M350.6,296.4v-1.6h1.5v1.6H350.6z M352,306.4h-1.3v-8.4h1.3V306.4z"/>
		<path class="st0" d="M361.9,302.5h-6.7c0,0.6,0.2,1.1,0.5,1.5c0.3,0.4,0.6,0.8,1,1s0.9,0.4,1.4,0.4c0.4,0,0.7-0.1,1-0.2
			c0.3-0.1,0.6-0.3,0.8-0.5s0.4-0.4,0.5-0.7h1.3c-0.1,0.5-0.3,0.9-0.7,1.2c-0.4,0.4-0.8,0.7-1.3,0.9c-0.5,0.2-1.1,0.3-1.7,0.3
			c-0.8,0-1.5-0.2-2.1-0.6c-0.6-0.4-1.1-0.9-1.5-1.6c-0.4-0.7-0.5-1.4-0.5-2.3c0-0.8,0.2-1.6,0.5-2.2c0.4-0.7,0.8-1.2,1.5-1.6
			c0.6-0.4,1.3-0.6,2.1-0.6c0.7,0,1.4,0.2,2,0.6c0.6,0.4,1.1,0.9,1.4,1.6c0.3,0.7,0.5,1.4,0.5,2.3V302.5z M356.1,299.6
			c-0.5,0.4-0.8,1-0.9,1.8h5.3c-0.1-0.8-0.4-1.4-0.8-1.8c-0.4-0.4-1-0.7-1.7-0.7C357.2,298.9,356.6,299.1,356.1,299.6z"/>
		<path class="st0" d="M369.3,298.2c0.5,0.3,0.8,0.7,1.1,1.2c0.3,0.5,0.4,1.1,0.4,1.7v5.3h-1.3v-5.2c0-0.7-0.2-1.3-0.6-1.7
			s-0.9-0.6-1.5-0.6c-0.5,0-0.9,0.1-1.2,0.3s-0.6,0.5-0.8,0.9c-0.2,0.4-0.3,0.8-0.3,1.3v5h-1.3v-8.4h1.3v1.3
			c0.3-0.5,0.6-0.9,1.1-1.1c0.5-0.2,1-0.4,1.6-0.4C368.3,297.7,368.8,297.9,369.3,298.2z"/>
		<path class="st0" d="M375.3,306.4c-0.6,0-1.1-0.2-1.4-0.5c-0.4-0.3-0.5-0.8-0.5-1.3l0-5.4h-1.5l0-1.2h0.9c0.2,0,0.4-0.1,0.5-0.2
			c0.1-0.1,0.2-0.3,0.2-0.5v-1.4h1.2v2.1h2l0,1.2h-2l0,5.3c0,0.2,0.1,0.4,0.2,0.5c0.1,0.1,0.3,0.2,0.5,0.2h1.3v1.2H375.3z"/>
		<path class="st0" d="M388.6,298.3c0.6,0.4,1.1,0.9,1.5,1.6s0.5,1.4,0.5,2.2c0,0.8-0.2,1.6-0.5,2.2s-0.8,1.2-1.5,1.6
			c-0.6,0.4-1.3,0.6-2.1,0.6c-0.6,0-1.2-0.1-1.7-0.4c-0.5-0.3-0.9-0.7-1.3-1.2v0.5l0,3.5h-1.3v-11.1h1.3v1.4
			c0.3-0.5,0.7-0.9,1.3-1.2s1.1-0.4,1.7-0.4C387.3,297.7,388,297.9,388.6,298.3z M387.8,305c0.4-0.3,0.8-0.7,1-1.2
			c0.2-0.5,0.4-1,0.4-1.6s-0.1-1.2-0.4-1.6c-0.2-0.5-0.6-0.9-1-1.2c-0.4-0.3-0.9-0.4-1.4-0.4c-0.5,0-1,0.1-1.4,0.4
			c-0.4,0.3-0.8,0.7-1,1.2c-0.2,0.5-0.4,1-0.4,1.6s0.1,1.2,0.4,1.6c0.2,0.5,0.6,0.9,1,1.2c0.4,0.3,0.9,0.4,1.4,0.4
			C386.9,305.4,387.4,305.2,387.8,305z"/>
		<path class="st0" d="M393.7,306.4h-1.3v-11.5h1.3V306.4z"/>
		<path class="st0" d="M401,298.1c0.5,0.2,0.8,0.6,1.1,1s0.4,1,0.4,1.6v5.6h-1.3v-1.2c-0.3,0.5-0.6,0.8-1.1,1.1
			c-0.5,0.2-1.1,0.4-1.7,0.4c-0.6,0-1-0.1-1.5-0.3c-0.4-0.2-0.8-0.5-1-0.9c-0.2-0.4-0.4-0.8-0.4-1.3c0-0.4,0.1-0.8,0.3-1.2
			c0.2-0.4,0.5-0.7,0.9-0.9c0.4-0.2,0.8-0.4,1.3-0.4l2.5-0.2c0.2,0,0.3-0.1,0.4-0.2c0.1-0.1,0.2-0.3,0.2-0.6c0-0.3-0.1-0.6-0.2-0.9
			s-0.4-0.4-0.7-0.6c-0.3-0.1-0.6-0.2-1-0.2c-0.4,0-0.7,0.1-1,0.2c-0.3,0.1-0.6,0.3-0.7,0.5c-0.2,0.2-0.3,0.5-0.3,0.7H396
			c0-0.5,0.2-0.9,0.5-1.3c0.3-0.4,0.7-0.7,1.2-0.9c0.5-0.2,1.1-0.3,1.6-0.3C400,297.7,400.6,297.9,401,298.1z M400,305.2
			c0.4-0.2,0.7-0.5,0.9-0.8c0.2-0.4,0.3-0.8,0.3-1.2v-1l-2.9,0.3c-0.4,0-0.8,0.2-1.1,0.5s-0.4,0.6-0.4,1c0,0.3,0.1,0.5,0.2,0.8
			c0.1,0.2,0.4,0.4,0.6,0.5c0.3,0.1,0.6,0.2,0.9,0.2C399.2,305.5,399.6,305.4,400,305.2z"/>
		<path class="st0" d="M407.1,306.4c-0.6,0-1.1-0.2-1.4-0.5c-0.4-0.3-0.5-0.8-0.5-1.3l0-5.4h-1.5l0-1.2h0.9c0.2,0,0.4-0.1,0.5-0.2
			c0.1-0.1,0.2-0.3,0.2-0.5v-1.4h1.2v2.1h2l0,1.2h-2l0,5.3c0,0.2,0.1,0.4,0.2,0.5c0.1,0.1,0.3,0.2,0.5,0.2h1.3v1.2H407.1z"/>
		<path class="st0" d="M410.7,306.4v-7.2h-1.5v-1.2h1.5v-1.3c0-0.6,0.2-1,0.5-1.3c0.3-0.3,0.8-0.5,1.4-0.5h1.5v1.2h-1.4
			c-0.2,0-0.4,0.1-0.5,0.2s-0.2,0.3-0.2,0.5v1.2h2.1v1.2H412v7.2H410.7z"/>
		<path class="st0" d="M417,306c-0.6-0.4-1.1-0.9-1.5-1.6c-0.4-0.7-0.5-1.4-0.5-2.3c0-0.8,0.2-1.6,0.5-2.3s0.9-1.2,1.5-1.6
			c0.6-0.4,1.4-0.6,2.2-0.6c0.8,0,1.5,0.2,2.2,0.6c0.6,0.4,1.2,0.9,1.5,1.6c0.4,0.7,0.5,1.4,0.5,2.3c0,0.8-0.2,1.6-0.6,2.3
			c-0.4,0.7-0.9,1.2-1.5,1.6c-0.6,0.4-1.4,0.6-2.2,0.6C418.4,306.6,417.7,306.4,417,306z M420.7,304.9c0.4-0.3,0.8-0.6,1-1.1
			c0.2-0.5,0.4-1,0.4-1.7c0-0.6-0.1-1.2-0.4-1.7c-0.2-0.5-0.6-0.9-1-1.1c-0.4-0.3-0.9-0.4-1.5-0.4s-1,0.1-1.5,0.4
			c-0.4,0.3-0.8,0.6-1,1.1c-0.2,0.5-0.4,1-0.4,1.7c0,0.6,0.1,1.2,0.4,1.7c0.2,0.5,0.6,0.9,1,1.1c0.4,0.3,0.9,0.4,1.5,0.4
			S420.2,305.2,420.7,304.9z"/>
		<path class="st0" d="M429.3,297.9v1.4H429c-0.8,0-1.4,0.2-1.8,0.7s-0.7,1.1-0.7,1.9v4.5h-1.3v-8.4h1.3v1.7c0.2-0.6,0.6-1,1-1.3
			s0.9-0.5,1.5-0.5H429.3z"/>
		<path class="st0" d="M441.8,298.2c0.5,0.3,0.8,0.7,1.1,1.2c0.2,0.5,0.4,1.1,0.4,1.7v5.3h-1.3v-5.2c0-0.7-0.2-1.3-0.5-1.7
			s-0.8-0.6-1.4-0.6c-0.5,0-0.9,0.1-1.2,0.3c-0.3,0.2-0.6,0.5-0.8,0.9c-0.2,0.4-0.3,0.9-0.3,1.4v4.8h-1.3v-5.2
			c0-0.7-0.2-1.3-0.5-1.7c-0.4-0.4-0.8-0.6-1.5-0.6c-0.5,0-0.9,0.1-1.2,0.3s-0.6,0.5-0.8,0.9s-0.3,0.9-0.3,1.4v4.8h-1.3v-8.4h1.3
			v1.2c0.3-0.5,0.6-0.8,1-1.1c0.4-0.2,0.9-0.4,1.5-0.4c0.6,0,1.2,0.1,1.6,0.4c0.5,0.3,0.8,0.7,1.1,1.2c0.3-0.5,0.7-0.9,1.2-1.2
			c0.5-0.3,1-0.4,1.7-0.4C440.8,297.7,441.3,297.9,441.8,298.2z"/>
		<path class="st0" d="M446.5,306.2c-0.5-0.2-0.9-0.5-1.2-0.9c-0.3-0.4-0.4-0.8-0.4-1.3h1.3c0,0.3,0.1,0.5,0.3,0.8
			c0.2,0.2,0.4,0.4,0.7,0.5c0.3,0.1,0.7,0.2,1.1,0.2c0.6,0,1.1-0.1,1.5-0.4c0.3-0.3,0.5-0.6,0.5-1.1c0-0.4-0.1-0.6-0.3-0.9
			s-0.5-0.4-0.9-0.4l-1.5-0.2c-0.7-0.1-1.3-0.4-1.7-0.8c-0.4-0.4-0.6-0.9-0.6-1.6c0-0.5,0.1-0.9,0.4-1.2c0.3-0.4,0.6-0.6,1.1-0.8
			c0.5-0.2,1-0.3,1.6-0.3c0.6,0,1.1,0.1,1.6,0.3c0.5,0.2,0.9,0.5,1.1,0.8s0.4,0.8,0.4,1.2H450c0-0.2-0.1-0.5-0.3-0.7
			c-0.2-0.2-0.4-0.4-0.7-0.5c-0.3-0.1-0.6-0.2-1-0.2c-0.3,0-0.6,0.1-0.9,0.2c-0.3,0.1-0.5,0.3-0.6,0.4s-0.2,0.4-0.2,0.7
			c0,0.3,0.1,0.6,0.3,0.8c0.2,0.2,0.5,0.3,0.9,0.4l1.6,0.3c0.8,0.1,1.4,0.4,1.8,0.8c0.4,0.4,0.6,1,0.6,1.6c0,0.5-0.1,1-0.4,1.4
			c-0.3,0.4-0.6,0.7-1.1,0.9c-0.5,0.2-1,0.3-1.7,0.3C447.6,306.6,447,306.4,446.5,306.2z"/>
	</g>
	<path class="st1" d="M278,0L18.6,0C8.3,0,0,8.3,0,18.6v0c0,10.3,8.3,18.6,18.6,18.6l259.3,0c10.3,0,18.6-8.3,18.6-18.6v0
		C296.6,8.3,288.3,0,278,0z"/>
	<g>
		<path d="M127.5,23.6c-0.6-0.3-1.1-0.7-1.4-1.2c-0.3-0.5-0.5-1.1-0.5-1.8h1.4c0,0.4,0.1,0.8,0.3,1.1c0.2,0.3,0.5,0.6,0.9,0.8
			c0.4,0.2,0.9,0.3,1.4,0.3c0.5,0,1-0.1,1.4-0.3c0.4-0.2,0.7-0.4,0.9-0.7c0.2-0.3,0.3-0.7,0.3-1.1c0-0.5-0.2-0.9-0.5-1.2
			s-0.7-0.6-1.2-0.7l-2-0.4c-0.5-0.1-1-0.3-1.4-0.6c-0.4-0.3-0.7-0.7-0.9-1.1c-0.2-0.4-0.3-0.9-0.3-1.4c0-0.6,0.2-1.2,0.5-1.6
			c0.3-0.5,0.8-0.8,1.3-1.1s1.2-0.4,1.9-0.4c0.7,0,1.4,0.1,1.9,0.4s1,0.6,1.3,1.1c0.3,0.5,0.5,1,0.5,1.7h-1.4c0-0.4-0.1-0.7-0.3-1
			s-0.5-0.5-0.8-0.7s-0.8-0.3-1.2-0.3c-0.5,0-0.9,0.1-1.2,0.2s-0.6,0.4-0.8,0.7c-0.2,0.3-0.3,0.6-0.3,1c0,0.5,0.1,0.8,0.4,1.2
			c0.3,0.3,0.7,0.5,1.2,0.6l2.1,0.4c0.5,0.1,1,0.3,1.4,0.6c0.4,0.3,0.7,0.7,0.9,1.1c0.2,0.4,0.3,0.9,0.3,1.4c0,0.7-0.2,1.2-0.5,1.7
			s-0.8,0.9-1.4,1.2c-0.6,0.3-1.3,0.4-2.1,0.4C128.8,24,128.1,23.8,127.5,23.6z"/>
		<path d="M143,19.9h-6.7c0,0.6,0.2,1.1,0.5,1.5c0.3,0.4,0.6,0.8,1,1s0.9,0.4,1.4,0.4c0.4,0,0.7-0.1,1-0.2c0.3-0.1,0.6-0.3,0.8-0.5
			c0.2-0.2,0.4-0.4,0.5-0.7h1.3c-0.1,0.5-0.3,0.9-0.7,1.2c-0.4,0.4-0.8,0.7-1.3,0.9c-0.5,0.2-1.1,0.3-1.7,0.3
			c-0.8,0-1.5-0.2-2.1-0.6c-0.6-0.4-1.1-0.9-1.5-1.6c-0.4-0.7-0.5-1.4-0.5-2.3c0-0.8,0.2-1.6,0.5-2.2s0.8-1.2,1.5-1.6
			c0.6-0.4,1.3-0.6,2.1-0.6c0.7,0,1.4,0.2,2,0.6c0.6,0.4,1.1,0.9,1.4,1.6c0.3,0.7,0.5,1.4,0.5,2.3V19.9z M137.3,17
			c-0.5,0.4-0.8,1-0.9,1.8h5.3c-0.1-0.8-0.4-1.4-0.8-1.8c-0.4-0.4-1-0.7-1.7-0.7C138.4,16.3,137.8,16.6,137.3,17z"/>
		<path d="M148.9,15.3v1.4h-0.3c-0.8,0-1.4,0.2-1.8,0.7s-0.7,1.1-0.7,1.9v4.5h-1.3v-8.4h1.3v1.7c0.2-0.6,0.6-1,1-1.3
			c0.4-0.3,0.9-0.5,1.5-0.5H148.9z"/>
		<path d="M154,23.8h-1.4l-3.3-8.4h1.4l2.6,6.9l2.5-6.9h1.4L154,23.8z"/>
		<path d="M165.9,19.9h-6.7c0,0.6,0.2,1.1,0.5,1.5c0.3,0.4,0.6,0.8,1,1s0.9,0.4,1.4,0.4c0.4,0,0.7-0.1,1-0.2
			c0.3-0.1,0.6-0.3,0.8-0.5c0.2-0.2,0.4-0.4,0.5-0.7h1.3c-0.1,0.5-0.3,0.9-0.7,1.2c-0.4,0.4-0.8,0.7-1.3,0.9
			c-0.5,0.2-1.1,0.3-1.7,0.3c-0.8,0-1.5-0.2-2.1-0.6c-0.6-0.4-1.1-0.9-1.5-1.6c-0.4-0.7-0.5-1.4-0.5-2.3c0-0.8,0.2-1.6,0.5-2.2
			s0.8-1.2,1.5-1.6c0.6-0.4,1.3-0.6,2.1-0.6c0.7,0,1.4,0.2,2,0.6c0.6,0.4,1.1,0.9,1.4,1.6c0.3,0.7,0.5,1.4,0.5,2.3V19.9z M160.2,17
			c-0.5,0.4-0.8,1-0.9,1.8h5.3c-0.1-0.8-0.4-1.4-0.8-1.8c-0.4-0.4-1-0.7-1.7-0.7C161.3,16.3,160.7,16.6,160.2,17z"/>
		<path d="M171.8,15.3v1.4h-0.3c-0.8,0-1.4,0.2-1.8,0.7s-0.7,1.1-0.7,1.9v4.5h-1.3v-8.4h1.3v1.7c0.2-0.6,0.6-1,1-1.3
			c0.4-0.3,0.9-0.5,1.5-0.5H171.8z"/>
	</g>
</g>
</svg>
