<svg width="1500" height="500" viewBox="0 0 1500 500" fill="none" xmlns="http://www.w3.org/2000/svg">
<g id="Twitter header - FINAL" clip-path="url(#clip0)">
<rect width="1500" height="500" fill="#F7FAF4"/>
<g id="Instagram post - 2" clip-path="url(#clip1)">
<rect width="1080" height="1080" transform="translate(210 -185)" fill="#F7FAF4"/>
<g id="LOGO">
<g id="Group 3">
<path id="Ellipse 6" d="M841 221C841 274.572 797.572 318 744 318C690.428 318 647 274.572 647 221C647 167.428 690.428 124 744 124C797.572 124 841 167.428 841 221Z" fill="black"/>
<ellipse id="Ellipse 7" cx="744" cy="221.5" rx="81" ry="44.5" fill="black"/>
<path id="LITERARY FESTIVAL" d="M702.24 213V195.8H704.115V211.3H709.665V213H702.24ZM712.287 213V195.8H714.162V213H712.287ZM720.681 213V197.5H716.856V195.8H726.381V197.5H722.556V213H720.681ZM729.033 213V195.8H737.158V197.45H730.908V203.475H736.333V205.125H730.908V211.35H737.158V213H729.033ZM747.948 213L745.798 206.075H745.448H742.223V213H740.348V195.8H745.598C746.781 195.8 747.665 196.017 748.248 196.45C748.831 196.883 749.206 197.458 749.373 198.175C749.556 198.892 749.648 199.817 749.648 200.95C749.648 202.2 749.515 203.233 749.248 204.05C748.998 204.85 748.448 205.417 747.598 205.75L749.923 213H747.948ZM745.123 204.45C745.906 204.45 746.49 204.325 746.873 204.075C747.256 203.825 747.498 203.467 747.598 203C747.715 202.517 747.773 201.833 747.773 200.95C747.773 200.05 747.715 199.367 747.598 198.9C747.498 198.433 747.265 198.075 746.898 197.825C746.531 197.575 745.948 197.45 745.148 197.45H742.223V204.45H745.123ZM761.402 213L760.202 208.225H754.927L753.752 213H751.877L756.377 195.8H758.827L763.327 213H761.402ZM757.627 198.075H757.502L755.377 206.575H759.752L757.627 198.075ZM773.631 213L771.481 206.075H771.131H767.906V213H766.031V195.8H771.281C772.464 195.8 773.347 196.017 773.931 196.45C774.514 196.883 774.889 197.458 775.056 198.175C775.239 198.892 775.331 199.817 775.331 200.95C775.331 202.2 775.197 203.233 774.931 204.05C774.681 204.85 774.131 205.417 773.281 205.75L775.606 213H773.631ZM770.806 204.45C771.589 204.45 772.172 204.325 772.556 204.075C772.939 203.825 773.181 203.467 773.281 203C773.397 202.517 773.456 201.833 773.456 200.95C773.456 200.05 773.397 199.367 773.281 198.9C773.181 198.433 772.947 198.075 772.581 197.825C772.214 197.575 771.631 197.45 770.831 197.45H767.906V204.45H770.806ZM781.17 213V206.375L776.745 195.8H778.72L782.07 204.15H782.22L785.57 195.8H787.47L783.02 206.375V213H781.17ZM706.469 252V234.8H714.219V236.45H708.344V242.875H713.569V244.5H708.344V252H706.469ZM717.174 252V234.8H725.299V236.45H719.049V242.475H724.474V244.125H719.049V250.35H725.299V252H717.174ZM732.365 252.2C730.815 252.2 729.39 252.092 728.09 251.875V250.25C728.673 250.333 729.315 250.408 730.015 250.475C730.715 250.525 731.306 250.55 731.79 250.55C732.456 250.55 732.981 250.508 733.365 250.425C733.765 250.325 734.09 250.158 734.34 249.925C734.573 249.708 734.723 249.392 734.79 248.975C734.873 248.558 734.915 248 734.915 247.3C734.915 246.383 734.881 245.742 734.815 245.375C734.748 245.008 734.59 244.75 734.34 244.6C734.106 244.433 733.681 244.3 733.065 244.2L730.165 243.75C729.465 243.633 728.94 243.4 728.59 243.05C728.24 242.683 728.006 242.217 727.89 241.65C727.79 241.083 727.74 240.325 727.74 239.375C727.74 237.642 728.106 236.417 728.84 235.7C729.573 234.967 730.748 234.6 732.365 234.6C733.915 234.6 735.181 234.733 736.165 235V236.55C735.048 236.35 733.923 236.25 732.79 236.25C732.073 236.25 731.506 236.317 731.09 236.45C730.673 236.567 730.356 236.75 730.14 237C729.923 237.25 729.781 237.558 729.715 237.925C729.648 238.292 729.615 238.758 729.615 239.325C729.615 240.092 729.648 240.65 729.715 241C729.781 241.333 729.915 241.567 730.115 241.7C730.315 241.833 730.648 241.942 731.115 242.025L733.915 242.475C734.615 242.592 735.165 242.767 735.565 243C735.965 243.233 736.273 243.633 736.49 244.2C736.69 244.683 736.79 245.642 736.79 247.075C736.79 248.358 736.648 249.367 736.365 250.1C736.098 250.833 735.64 251.367 734.99 251.7C734.356 252.033 733.481 252.2 732.365 252.2ZM742.549 252V236.5H738.724V234.8H748.249V236.5H744.424V252H742.549ZM750.976 252V234.8H752.851V252H750.976ZM759.694 252L755.394 234.8H757.344L760.869 249.525H761.019L764.544 234.8H766.419L762.144 252H759.694ZM776.239 252L775.039 247.225H769.764L768.589 252H766.714L771.214 234.8H773.664L778.164 252H776.239ZM772.464 237.075H772.339L770.214 245.575H774.589L772.464 237.075ZM780.868 252V234.8H782.743V250.3H788.293V252H780.868Z" fill="#F7FAF4"/>
</g>
<g id="Group">
<path id="C" d="M605.034 136.956C604.596 137.368 604.028 137.824 603.332 138.324C602.673 138.834 602.021 139.278 601.377 139.655C599.306 140.869 597.606 141.448 596.276 141.393C594.968 141.324 593.664 140.574 592.361 139.143C591.068 137.675 589.377 135.158 587.288 131.592C585.211 128.049 583.856 125.366 583.221 123.544C582.595 121.685 582.572 120.169 583.151 118.995C583.74 117.784 585.07 116.572 587.141 115.359C587.785 114.982 588.491 114.63 589.258 114.304C590.025 113.978 590.679 113.749 591.22 113.618L592.454 115.723C591.044 116.271 589.902 116.801 589.028 117.313C587.44 118.243 586.445 119.104 586.044 119.896C585.642 120.688 585.716 121.788 586.263 123.198C586.834 124.594 588.05 126.88 589.91 130.055C591.771 133.23 593.171 135.408 594.11 136.589C595.072 137.756 595.996 138.358 596.883 138.394C597.77 138.431 599.007 137.984 600.595 137.054C601.745 136.38 602.8 135.622 603.76 134.782L605.034 136.956Z" fill="black"/>
<path id="O" d="M644.332 116.987C641.879 117.889 640.003 118.196 638.704 117.907C637.404 117.618 636.291 116.678 635.364 115.087C634.429 113.47 633.22 110.648 631.737 106.618C630.255 102.589 629.35 99.6682 629.025 97.8559C628.69 96.0186 628.923 94.5687 629.726 93.5063C630.528 92.4438 632.156 91.4614 634.609 90.559C637.061 89.6566 638.937 89.3499 640.237 89.6389C641.537 89.9279 642.654 90.8806 643.59 92.4969C644.517 94.0882 645.721 96.8985 647.203 100.928C648.686 104.957 649.595 107.89 649.93 109.728C650.256 111.54 650.017 112.977 649.215 114.04C648.412 115.102 646.785 116.085 644.332 116.987ZM643.42 114.509C645.022 113.92 646.067 113.323 646.554 112.717C647.042 112.111 647.128 111.071 646.813 109.596C646.497 108.121 645.676 105.581 644.35 101.977C643.025 98.3737 642.004 95.9078 641.288 94.58C640.572 93.2522 639.832 92.5157 639.068 92.3705C638.305 92.2253 637.122 92.4473 635.52 93.0366C633.918 93.6259 632.874 94.2234 632.386 94.829C631.899 95.4346 631.813 96.475 632.128 97.9501C632.444 99.4253 633.264 101.965 634.59 105.569C635.916 109.172 636.937 111.638 637.653 112.966C638.369 114.294 639.108 115.03 639.872 115.176C640.636 115.321 641.819 115.099 643.42 114.509Z" fill="black"/>
<path id="D" d="M679.957 75.6614L686.422 74.5462C689.05 74.0929 690.974 74.1127 692.196 74.6055C693.444 75.0938 694.379 76.2042 695.003 77.9368C695.648 79.6385 696.327 82.5522 697.039 86.678C697.75 90.8037 698.09 93.7895 698.056 95.6354C698.045 97.4504 697.533 98.797 696.521 99.6752C695.535 100.549 693.728 101.212 691.1 101.666L684.636 102.781L679.957 75.6614ZM690.533 99.0845C692.346 98.7717 693.55 98.3747 694.143 97.8934C694.758 97.3814 695.062 96.3955 695.053 94.9356C695.045 93.4758 694.721 90.8932 694.082 87.188C693.448 83.509 692.89 80.9803 692.408 79.6021C691.922 78.1976 691.306 77.3703 690.559 77.1203C689.808 76.844 688.539 76.8599 686.752 77.1682L683.323 77.7598L687.104 99.6761L690.533 99.0845Z" fill="black"/>
<path id="E" d="M734.735 95.4115L734.508 67.8924L747.508 67.7854L747.529 70.4253L737.53 70.5076L737.609 80.1473L746.289 80.0758L746.31 82.7157L737.631 82.7872L737.713 92.7469L747.712 92.6645L747.734 95.3044L734.735 95.4115Z" fill="black"/>
<path id="B" d="M778.772 68.2824L787.033 69.559C789.274 69.9051 790.792 70.7333 791.587 72.0435C792.383 73.3538 792.61 75.1158 792.268 77.3295C791.979 79.2006 791.424 80.6124 790.602 81.5647C789.811 82.4948 788.692 83.01 787.247 83.1105L787.222 83.2686C788.803 83.8637 789.809 84.7746 790.24 86.0015C790.675 87.202 790.748 88.7379 790.459 90.609C790.117 92.8227 789.372 94.502 788.224 95.6467C787.08 96.7651 785.229 97.1268 782.673 96.7318L774.569 95.4797L778.772 68.2824ZM784.334 81.5272C785.731 81.743 786.831 81.5217 787.634 80.8633C788.438 80.2049 788.966 79.0588 789.218 77.4248C789.401 76.2389 789.425 75.2982 789.29 74.6027C789.158 73.8808 788.814 73.3149 788.257 72.905C787.726 72.4992 786.907 72.2108 785.8 72.0398L781.294 71.3434L779.828 80.8309L784.334 81.5272ZM782.523 94.0373C784.157 94.2897 785.321 94.0918 786.014 93.4435C786.734 92.7992 787.233 91.5811 787.51 89.789C787.791 87.9706 787.672 86.6435 787.154 85.8079C786.639 84.9459 785.605 84.3948 784.05 84.1545L779.425 83.4399L777.898 93.3226L782.523 94.0373Z" fill="black"/>
<path id="A" d="M836.49 108.398L837.139 100.548L829.15 97.8235L824.905 104.448L822.066 103.479L837.763 79.7563L841.473 81.0215L839.405 109.393L836.49 108.398ZM838.481 83.847L838.292 83.7824L830.684 95.5571L837.309 97.8165L838.481 83.847Z" fill="black"/>
<path id="R" d="M879.263 126.043L881.589 114.677L881.099 114.407L876.578 111.92L871.237 121.628L868.609 120.182L881.873 96.0701L889.233 100.119C890.892 101.031 891.963 102.016 892.447 103.074C892.93 104.131 893.013 105.226 892.694 106.36C892.398 107.506 891.813 108.873 890.939 110.462C889.975 112.214 888.991 113.56 887.988 114.499C887.02 115.428 885.812 115.798 884.363 115.61L882.032 127.567L879.263 126.043ZM881.896 111.879C882.995 112.483 883.909 112.758 884.639 112.703C885.369 112.648 885.984 112.332 886.484 111.755C887.021 111.167 887.629 110.254 888.311 109.016C889.005 107.754 889.45 106.751 889.646 106.007C889.866 105.276 889.815 104.593 889.494 103.96C889.173 103.327 888.451 102.702 887.33 102.085L883.229 99.8292L877.831 109.642L881.896 111.879Z" fill="black"/>
</g>
<path id="THE PRAGMATIC BOOKSHELF" d="M590.186 382V363.4H585.596V361.36H597.026V363.4H592.436V382H590.186ZM608.999 382V372.61H601.829V382H599.609V361.36H601.829V370.57H608.999V361.36H611.219V382H608.999ZM615.429 382V361.36H625.179V363.34H617.679V370.57H624.189V372.55H617.679V380.02H625.179V382H615.429ZM639.951 361.36H646.071C647.471 361.36 648.521 361.64 649.221 362.2C649.921 362.74 650.371 363.46 650.571 364.36C650.791 365.24 650.901 366.4 650.901 367.84C650.901 369.24 650.791 370.39 650.571 371.29C650.371 372.17 649.921 372.89 649.221 373.45C648.521 374.01 647.471 374.29 646.071 374.29H642.201V382H639.951V361.36ZM645.471 372.34C646.431 372.34 647.131 372.18 647.571 371.86C648.031 371.54 648.321 371.08 648.441 370.48C648.581 369.86 648.651 368.98 648.651 367.84C648.651 366.68 648.581 365.8 648.441 365.2C648.321 364.58 648.041 364.12 647.601 363.82C647.161 363.5 646.461 363.34 645.501 363.34H642.201V372.34H645.471ZM663.016 382L660.436 373.69H660.016H656.146V382H653.896V361.36H660.196C661.616 361.36 662.676 361.62 663.376 362.14C664.076 362.66 664.526 363.35 664.726 364.21C664.946 365.07 665.056 366.18 665.056 367.54C665.056 369.04 664.896 370.28 664.576 371.26C664.276 372.22 663.616 372.9 662.596 373.3L665.386 382H663.016ZM659.626 371.74C660.566 371.74 661.266 371.59 661.726 371.29C662.186 370.99 662.476 370.56 662.596 370C662.736 369.42 662.806 368.6 662.806 367.54C662.806 366.46 662.736 365.64 662.596 365.08C662.476 364.52 662.196 364.09 661.756 363.79C661.316 363.49 660.616 363.34 659.656 363.34H656.146V371.74H659.626ZM678.561 382L677.121 376.27H670.791L669.381 382H667.131L672.531 361.36H675.471L680.871 382H678.561ZM674.031 364.09H673.881L671.331 374.29H676.581L674.031 364.09ZM688.975 372.94V371.02H694.225V381.67C693.525 381.83 692.715 381.96 691.795 382.06C690.895 382.18 690.095 382.24 689.395 382.24C687.575 382.24 686.225 381.98 685.345 381.46C684.465 380.92 683.855 379.92 683.515 378.46C683.175 377 683.005 374.74 683.005 371.68C683.005 368.66 683.175 366.42 683.515 364.96C683.855 363.5 684.465 362.5 685.345 361.96C686.225 361.4 687.585 361.12 689.425 361.12C690.225 361.12 691.075 361.18 691.975 361.3C692.895 361.42 693.625 361.55 694.165 361.69V363.55C693.625 363.43 692.965 363.33 692.185 363.25C691.425 363.15 690.815 363.1 690.355 363.1C688.735 363.1 687.605 363.25 686.965 363.55C686.325 363.85 685.885 364.57 685.645 365.71C685.405 366.85 685.285 368.84 685.285 371.68C685.285 374.28 685.375 376.16 685.555 377.32C685.735 378.46 686.105 379.24 686.665 379.66C687.225 380.08 688.145 380.29 689.425 380.29C690.465 380.29 691.335 380.21 692.035 380.05V372.94H688.975ZM711.577 382V365.29H711.457L706.867 382H704.827L700.267 365.29H700.147V382H698.017V361.36H701.257L705.817 378.13H705.997L710.587 361.36H713.767V382H711.577ZM727.838 382L726.398 376.27H720.068L718.658 382H716.408L721.808 361.36H724.748L730.148 382H727.838ZM723.308 364.09H723.158L720.608 374.29H725.858L723.308 364.09ZM734.21 382V363.4H729.62V361.36H741.05V363.4H736.46V382H734.21ZM743.722 382V361.36H745.972V382H743.722ZM759.164 381.88C758.724 381.98 758.184 382.06 757.544 382.12C756.924 382.2 756.334 382.24 755.774 382.24C753.974 382.24 752.654 381.97 751.814 381.43C750.994 380.89 750.434 379.91 750.134 378.49C749.854 377.05 749.714 374.78 749.714 371.68C749.714 368.6 749.854 366.35 750.134 364.93C750.434 363.49 750.994 362.5 751.814 361.96C752.654 361.4 753.974 361.12 755.774 361.12C756.334 361.12 756.924 361.16 757.544 361.24C758.164 361.32 758.674 361.42 759.074 361.54V363.37C757.954 363.19 757.014 363.1 756.254 363.1C754.874 363.1 753.904 363.28 753.344 363.64C752.784 364 752.414 364.74 752.234 365.86C752.074 366.98 751.994 368.92 751.994 371.68C751.994 374.44 752.074 376.38 752.234 377.5C752.414 378.62 752.784 379.36 753.344 379.72C753.904 380.08 754.874 380.26 756.254 380.26C757.254 380.26 758.224 380.17 759.164 379.99V381.88ZM768.007 361.36H774.277C775.977 361.36 777.197 361.8 777.937 362.68C778.677 363.56 779.047 364.84 779.047 366.52C779.047 367.94 778.797 369.05 778.297 369.85C777.817 370.63 777.047 371.14 775.987 371.38V371.5C777.227 371.76 778.077 372.32 778.537 373.18C778.997 374.02 779.227 375.15 779.227 376.57C779.227 378.25 778.867 379.58 778.147 380.56C777.427 381.52 776.097 382 774.157 382H768.007V361.36ZM773.647 370.54C774.707 370.54 775.497 370.25 776.017 369.67C776.537 369.09 776.797 368.18 776.797 366.94C776.797 366.04 776.707 365.34 776.527 364.84C776.347 364.32 776.027 363.94 775.567 363.7C775.127 363.46 774.487 363.34 773.647 363.34H770.227V370.54H773.647ZM773.737 380.02C774.977 380.02 775.817 379.74 776.257 379.18C776.717 378.62 776.947 377.66 776.947 376.3C776.947 374.92 776.707 373.95 776.227 373.39C775.747 372.81 774.917 372.52 773.737 372.52H770.227V380.02H773.737ZM788.443 382.24C786.483 382.24 785.083 381.97 784.243 381.43C783.403 380.89 782.863 379.94 782.623 378.58C782.383 377.2 782.263 374.9 782.263 371.68C782.263 368.46 782.383 366.17 782.623 364.81C782.863 363.43 783.403 362.47 784.243 361.93C785.083 361.39 786.483 361.12 788.443 361.12C790.403 361.12 791.803 361.39 792.643 361.93C793.483 362.47 794.023 363.43 794.263 364.81C794.503 366.17 794.623 368.46 794.623 371.68C794.623 374.9 794.503 377.2 794.263 378.58C794.023 379.94 793.483 380.89 792.643 381.43C791.803 381.97 790.403 382.24 788.443 382.24ZM788.443 380.26C789.723 380.26 790.613 380.11 791.113 379.81C791.613 379.51 791.943 378.8 792.103 377.68C792.263 376.56 792.343 374.56 792.343 371.68C792.343 368.8 792.263 366.8 792.103 365.68C791.943 364.56 791.613 363.85 791.113 363.55C790.613 363.25 789.723 363.1 788.443 363.1C787.163 363.1 786.273 363.25 785.773 363.55C785.273 363.85 784.943 364.56 784.783 365.68C784.623 366.8 784.543 368.8 784.543 371.68C784.543 374.56 784.623 376.56 784.783 377.68C784.943 378.8 785.273 379.51 785.773 379.81C786.273 380.11 787.163 380.26 788.443 380.26ZM803.97 382.24C802.01 382.24 800.61 381.97 799.77 381.43C798.93 380.89 798.39 379.94 798.15 378.58C797.91 377.2 797.79 374.9 797.79 371.68C797.79 368.46 797.91 366.17 798.15 364.81C798.39 363.43 798.93 362.47 799.77 361.93C800.61 361.39 802.01 361.12 803.97 361.12C805.93 361.12 807.33 361.39 808.17 361.93C809.01 362.47 809.55 363.43 809.79 364.81C810.03 366.17 810.15 368.46 810.15 371.68C810.15 374.9 810.03 377.2 809.79 378.58C809.55 379.94 809.01 380.89 808.17 381.43C807.33 381.97 805.93 382.24 803.97 382.24ZM803.97 380.26C805.25 380.26 806.14 380.11 806.64 379.81C807.14 379.51 807.47 378.8 807.63 377.68C807.79 376.56 807.87 374.56 807.87 371.68C807.87 368.8 807.79 366.8 807.63 365.68C807.47 364.56 807.14 363.85 806.64 363.55C806.14 363.25 805.25 363.1 803.97 363.1C802.69 363.1 801.8 363.25 801.3 363.55C800.8 363.85 800.47 364.56 800.31 365.68C800.15 366.8 800.07 368.8 800.07 371.68C800.07 374.56 800.15 376.56 800.31 377.68C800.47 378.8 800.8 379.51 801.3 379.81C801.8 380.11 802.69 380.26 803.97 380.26ZM823.248 382L818.388 372.52H816.078V382H813.828V361.36H816.078V370.54H818.388L823.248 361.36H825.678L820.248 371.41L825.738 382H823.248ZM832.921 382.24C831.061 382.24 829.351 382.11 827.791 381.85V379.9C828.491 380 829.261 380.09 830.101 380.17C830.941 380.23 831.651 380.26 832.231 380.26C833.031 380.26 833.661 380.21 834.121 380.11C834.601 379.99 834.991 379.79 835.291 379.51C835.571 379.25 835.751 378.87 835.831 378.37C835.931 377.87 835.981 377.2 835.981 376.36C835.981 375.26 835.941 374.49 835.861 374.05C835.781 373.61 835.591 373.3 835.291 373.12C835.011 372.92 834.501 372.76 833.761 372.64L830.281 372.1C829.441 371.96 828.811 371.68 828.391 371.26C827.971 370.82 827.691 370.26 827.551 369.58C827.431 368.9 827.371 367.99 827.371 366.85C827.371 364.77 827.811 363.3 828.691 362.44C829.571 361.56 830.981 361.12 832.921 361.12C834.781 361.12 836.301 361.28 837.481 361.6V363.46C836.141 363.22 834.791 363.1 833.431 363.1C832.571 363.1 831.891 363.18 831.391 363.34C830.891 363.48 830.511 363.7 830.251 364C829.991 364.3 829.821 364.67 829.741 365.11C829.661 365.55 829.621 366.11 829.621 366.79C829.621 367.71 829.661 368.38 829.741 368.8C829.821 369.2 829.981 369.48 830.221 369.64C830.461 369.8 830.861 369.93 831.421 370.03L834.781 370.57C835.621 370.71 836.281 370.92 836.761 371.2C837.241 371.48 837.611 371.96 837.871 372.64C838.111 373.22 838.231 374.37 838.231 376.09C838.231 377.63 838.061 378.84 837.721 379.72C837.401 380.6 836.851 381.24 836.071 381.64C835.311 382.04 834.261 382.24 832.921 382.24ZM850.962 382V372.61H843.792V382H841.572V361.36H843.792V370.57H850.962V361.36H853.182V382H850.962ZM857.392 382V361.36H867.142V363.34H859.642V370.57H866.152V372.55H859.642V380.02H867.142V382H857.392ZM870.371 382V361.36H872.621V379.96H879.281V382H870.371ZM881.738 382V361.36H891.038V363.34H883.988V371.05H890.258V373H883.988V382H881.738Z" fill="black"/>
</g>
<circle id="Ellipse 10" cx="744" cy="221" r="81.5" stroke="#F7FAF4" stroke-width="7" stroke-dasharray="3 3"/>
</g>
<g id="circle-shade">
<ellipse id="Ellipse 10_2" cx="736" cy="104.5" rx="779" ry="714.5" fill="black" fill-opacity="0.02"/>
<ellipse id="Ellipse 8" cx="755.5" cy="-15" rx="431.5" ry="400" fill="black" fill-opacity="0.02"/>
<ellipse id="Ellipse 9" cx="753" cy="66" rx="629" ry="583" fill="black" fill-opacity="0.02"/>
</g>
<path id="Star 5" d="M1334.43 -103.344C1354.44 -164.928 1441.56 -164.928 1461.57 -103.344V-103.344C1470.52 -75.8028 1496.19 -57.1559 1525.14 -57.1559V-57.1559C1589.9 -57.1559 1616.82 25.705 1564.43 63.7661V63.7661C1541.01 80.7875 1531.2 110.959 1540.15 138.5V138.5C1560.16 200.084 1489.68 251.295 1437.29 213.234V213.234C1413.86 196.212 1382.14 196.212 1358.71 213.234V213.234C1306.32 251.295 1235.84 200.084 1255.85 138.5V138.5C1264.8 110.959 1254.99 80.7875 1231.57 63.7661V63.7661C1179.18 25.705 1206.1 -57.1559 1270.86 -57.1559V-57.1559C1299.81 -57.1559 1325.48 -75.8028 1334.43 -103.344V-103.344Z" fill="#262123"/>
<path id="Star 6" d="M-7.57247 299.656C12.4374 238.072 99.5626 238.072 119.572 299.656V299.656C128.521 327.197 154.186 345.844 183.145 345.844V345.844C247.898 345.844 274.822 428.705 222.435 466.766V466.766C199.007 483.788 189.204 513.959 198.152 541.5V541.5C218.162 603.084 147.677 654.295 95.2899 616.234V616.234C71.8619 599.212 40.1381 599.212 16.7101 616.234V616.234C-35.6766 654.295 -106.162 603.084 -86.1524 541.5V541.5C-77.2037 513.959 -87.0069 483.788 -110.435 466.766V466.766C-162.821 428.705 -135.898 345.844 -71.1449 345.844V345.844C-42.1863 345.844 -16.5212 327.197 -7.57247 299.656V299.656Z" fill="#262123"/>
</g>
<defs>
<clipPath id="clip0">
<rect width="1500" height="500" fill="white"/>
</clipPath>
<clipPath id="clip1">
<rect width="1080" height="1080" fill="white" transform="translate(210 -185)"/>
</clipPath>
</defs>
</svg>
