<?xml version="1.0" encoding="iso-8859-1"?>
<!-- Generator: Adobe Illustrator 19.0.0, SVG Export Plug-In . SVG Version: 6.00 Build 0)  -->
<svg version="1.1" id="Capa_1" xmlns="http://www.w3.org/2000/svg" xmlns:xlink="http://www.w3.org/1999/xlink" x="0px" y="0px"
	 viewBox="0 0 512.001 512.001" style="enable-background:new 0 0 512.001 512.001;" xml:space="preserve">
<path style="fill:#5DDCF9;" d="M362.017,91.016c0-44.728-47.453-80.988-105.988-80.988S150.042,46.288,150.042,91.016
	c0,41.044,39.959,74.952,91.771,80.26l14.216,30.842l14.216-30.842C322.058,165.969,362.017,132.061,362.017,91.016z"/>
<path style="fill:#F1F2F2;" d="M327.686,501.972l-5.167-49.315c-1.747-16.666,2.051-33.434,10.77-47.746
	c10.257-16.837,16.171-38.788,15.846-57.957c-0.814-47.884-39.985-85.716-87.87-84.943c-47.094,0.76-85.035,39.173-85.035,86.448
	c0,12.795-11.503,43.858-16.328,53.852h25.875l-0.123,17.082c-0.146,20.368,16.371,36.933,36.74,36.844l0,0
	c14.312-0.062,25.947,11.523,25.947,25.835v19.901H327.686z"/>
<polygon style="fill:#0049A0;" points="239.031,171.093 239.031,141.514 273.028,141.514 273.028,171.093 256.029,202.119 "/>
<circle style="fill:#FFC639;" cx="256.03" cy="92.27" r="47.759"/>
<path style="fill:#72DD90;" d="M161.981,229.867c0-36.999-34.022-66.992-75.991-66.992S9.999,192.869,9.999,229.867
	S44.021,296.86,85.99,296.86c10.989,0,21.422-2.073,30.852-5.772l27.7,4.918l-2.531-20.883
	C154.409,263.202,161.981,247.315,161.981,229.867z"/>
<path style="fill:#FFC639;" d="M350.019,212.006c0-36.999,34.022-66.992,75.991-66.992s75.991,29.994,75.991,66.992
	s-34.022,66.992-75.991,66.992c-10.989,0-21.422-2.073-30.852-5.772l-28.391,5.522l3.222-21.487
	C357.59,245.34,350.019,229.455,350.019,212.006z"/>
<path d="M329.8,279.047c-18.469-17.849-42.87-27.447-68.696-27.033c-25.433,0.411-49.276,10.625-67.139,28.762
	c-17.884,18.158-27.733,42.195-27.733,67.683c0,10.07-10.22,38.911-15.334,49.505c-1.496,3.099-1.293,6.748,0.536,9.663
	s5.027,4.683,8.469,4.683h15.804l-0.051,7.011c-0.09,12.544,4.738,24.343,13.596,33.225c8.809,8.833,20.513,13.69,32.978,13.689
	c0.092,0,0.183,0,0.279,0c4.216,0,8.181,1.637,11.171,4.613c3.007,2.994,4.662,6.978,4.662,11.222v19.901
	c0,5.522,4.477,9.999,9.999,9.999h79.346c2.834,0,5.533-1.202,7.43-3.308s2.811-4.916,2.515-7.733l-5.167-49.315
	c-1.507-14.377,1.819-29.117,9.364-41.501c11.197-18.379,17.666-42.054,17.305-63.329C358.693,320.96,348.276,296.903,329.8,279.047
	z M324.75,399.71c-9.812,16.105-14.136,35.279-12.175,53.99l4.011,38.274h-58.246v-9.902c0-9.601-3.747-18.62-10.551-25.393
	c-6.767-6.736-15.737-10.44-25.277-10.44c-0.095,0-0.188,0-0.28,0.001c-7.113,0-13.793-2.772-18.82-7.812
	c-5.055-5.069-7.811-11.803-7.759-18.961l0.123-17.081c0.019-2.665-1.026-5.226-2.903-7.116c-1.878-1.891-4.432-2.955-7.096-2.955
	H174.88c5.296-13.997,11.35-33.123,11.35-43.853c0-41.485,33.733-75.781,75.197-76.45c42.161-0.674,76.996,33.016,77.712,75.116
	C339.433,364.509,333.92,384.658,324.75,399.71z"/>
<path d="M255.128,286.061l-0.329,0.045c-5.467,0.776-9.27,5.838-8.493,11.306c0.709,4.991,4.987,8.594,9.887,8.594
	c0.468,0,0.942-0.033,1.419-0.101l0.188-0.026c5.473-0.738,9.312-5.772,8.573-11.246
	C265.634,289.161,260.596,285.316,255.128,286.061z"/>
<path d="M291.564,292.019c-4.95-2.454-10.947-0.429-13.398,4.519s-0.429,10.947,4.519,13.398c4.98,2.469,9.377,5.837,13.065,10.013
	c6.715,7.603,10.51,17.427,10.683,27.66c0.093,5.463,4.551,9.83,9.995,9.83c0.057,0,0.115,0,0.173-0.001
	c5.52-0.094,9.921-4.645,9.828-10.167c-0.255-14.987-5.826-29.392-15.69-40.559C305.327,300.586,298.876,295.643,291.564,292.019z"
	/>
<path d="M169.949,152.103c17.146,14.86,40.091,24.843,65.115,28.418l11.885,25.783c1.634,3.544,5.179,5.813,9.081,5.813
	s7.447-2.27,9.081-5.813l11.885-25.783c25.023-3.575,47.968-13.557,65.115-28.418c19.286-16.714,29.907-38.409,29.907-61.087
	c0-24.82-12.42-47.979-34.972-65.211C315.293,9.184,286.521,0.03,256.029,0.03s-59.264,9.154-81.015,25.775
	c-22.552,17.232-34.972,40.391-34.972,65.211C140.043,113.695,150.664,135.389,169.949,152.103z M266.028,128.675v-20.912
	l5.578-5.578c3.905-3.905,3.905-10.236,0-14.141c-3.906-3.905-10.235-3.905-14.141,0l-1.581,1.581l-1.437-1.437
	c-3.905-3.905-10.234-3.905-14.141,0c-3.905,3.905-3.905,10.236,0,14.14l5.723,5.723v20.624
	c-15.982-4.396-27.762-19.047-27.762-36.407c0-20.822,16.939-37.761,37.761-37.761c20.822,0,37.761,16.939,37.761,37.761
	C293.789,109.628,282.01,124.28,266.028,128.675z M261.164,167.091l-5.135,11.142l-5.135-11.142
	c-1.053-2.284-2.916-4.035-5.163-4.994v-13.008c3.345,0.605,6.782,0.938,10.299,0.938c3.517,0,6.954-0.333,10.299-0.938v13.008
	C264.08,163.056,262.217,164.808,261.164,167.091z M256.029,20.028c52.929,0,95.989,31.845,95.989,70.989
	c0,30.846-27.255,57.847-65.692,67.352v-16.952c16.465-10.187,27.462-28.404,27.462-49.147c0-31.848-25.91-57.758-57.758-57.758
	s-57.758,25.91-57.758,57.758c0,20.744,10.997,38.961,27.462,49.147v16.952c-38.438-9.505-65.692-36.506-65.692-67.352
	C160.041,51.873,203.101,20.028,256.029,20.028z"/>
<path d="M154.468,294.803l-1.955-16.13c12.592-13.737,19.467-30.887,19.467-48.805c0-42.453-38.575-76.991-85.99-76.991
	S0,187.414,0,229.867s38.575,76.991,85.99,76.991c10.98,0,21.662-1.832,31.795-5.448l25.009,4.44
	c3.121,0.554,6.318-0.404,8.621-2.583C153.716,301.09,154.849,297.949,154.468,294.803z M135.08,267.916
	c-2.264,2.177-3.374,5.291-2.996,8.41l0.906,7.474l-14.4-2.558c-1.814-0.321-3.683-0.137-5.399,0.537
	c-8.595,3.372-17.746,5.081-27.2,5.081c-36.389,0-65.992-25.567-65.992-56.993s29.604-56.993,65.992-56.993
	s65.992,25.567,65.992,56.993C151.982,243.923,145.98,257.435,135.08,267.916z"/>
<path d="M95.747,192.197c-1.74-3.25-5.127-5.277-8.813-5.277c-3.686,0-7.073,2.028-8.813,5.277l-20.837,38.896
	c-0.014,0.026-0.028,0.052-0.042,0.077l-9.118,17.021c-2.608,4.867-0.776,10.928,4.092,13.535
	c4.871,2.609,10.929,0.776,13.535-4.092l6.291-11.744h29.785l6.291,11.744c1.803,3.365,5.254,5.279,8.822,5.279
	c1.594,0,3.211-0.382,4.713-1.187c4.867-2.608,6.699-8.668,4.092-13.535L95.747,192.197z M82.754,225.892l4.179-7.8l4.179,7.8
	H82.754z"/>
<path d="M426.01,135.014c-47.416,0-85.99,34.538-85.99,76.991c0,17.86,6.832,34.958,19.346,48.673l-2.487,16.586
	c-0.481,3.212,0.627,6.457,2.974,8.704c2.347,2.246,5.638,3.214,8.824,2.593l25.624-4.984c10.108,3.597,20.762,5.418,31.71,5.418
	c47.415,0,85.99-34.538,85.99-76.991S473.424,135.014,426.01,135.014z M426.01,268.999c-9.454,0-18.605-1.71-27.202-5.082
	c-1.168-0.458-2.407-0.69-3.651-0.69c-0.638,0-1.277,0.061-1.909,0.184l-14.494,2.819l1.123-7.486
	c0.48-3.205-0.622-6.443-2.958-8.689c-10.899-10.48-16.901-23.992-16.901-38.049c0-31.426,29.604-56.993,65.992-56.993
	s65.992,25.567,65.992,56.993S462.398,268.999,426.01,268.999z"/>
<path d="M437.509,198.478c0-5.522-4.477-9.999-9.999-9.999h-5.999v-5.999c0-5.522-4.477-9.999-9.999-9.999
	c-5.521,0-9.999,4.476-9.999,9.999v5.999h-5.999c-5.521,0-9.999,4.476-9.999,9.999s4.477,9.999,9.999,9.999h5.999v5.999
	c0,5.522,4.477,9.999,9.999,9.999c5.521,0,9.999-4.476,9.999-9.999v-5.999h5.999C433.031,208.477,437.509,204,437.509,198.478z"/>
<path d="M456.545,218.672h-16.204c-5.521,0-9.999,4.476-9.999,9.999s4.477,9.999,9.999,9.999h16.204
	c5.521,0,9.999-4.476,9.999-9.999S462.067,218.672,456.545,218.672z"/>
<g>
</g>
<g>
</g>
<g>
</g>
<g>
</g>
<g>
</g>
<g>
</g>
<g>
</g>
<g>
</g>
<g>
</g>
<g>
</g>
<g>
</g>
<g>
</g>
<g>
</g>
<g>
</g>
<g>
</g>
</svg>
