<?xml version="1.0" encoding="utf-8"?>
<!-- Generator: Adobe Illustrator 22.0.1, SVG Export Plug-In . SVG Version: 6.00 Build 0)  -->
<svg version="1.1" id="Layer_1" xmlns="http://www.w3.org/2000/svg" xmlns:xlink="http://www.w3.org/1999/xlink" x="0px" y="0px"
	 viewBox="0 0 141 30" style="enable-background:new 0 0 141 30;" xml:space="preserve">
<style type="text/css">
	.st0{fill:#003E7A;}
	.st1{fill:#231F20;}
	.st2{fill:#FFFFFF;}
	.st3{fill:none;}
	.st4{fill:none;stroke:#231F20;stroke-width:0.5618;stroke-miterlimit:10;}
	.st5{fill:none;stroke:#231F20;stroke-width:0.5618;stroke-linecap:round;stroke-miterlimit:10;}
</style>
<g>
	<g>
		<rect class="st0" width="30.8" height="30"/>
		<path class="st1" d="M22.6,18.4"/>
		<g>
			<path class="st1" d="M36.3,3.3h0.8L39.1,9l1.9-5.7h0.6L43.4,9l1.9-5.7h0.8l-2.4,6.8h-0.7l-1.9-5.5l-1.9,5.5h-0.6L36.3,3.3z"/>
			<path class="st1" d="M48.5,3.2h0.7l3.1,6.8h-0.8l-0.8-1.8H47l-0.8,1.8h-0.8L48.5,3.2z M50.4,7.6l-1.5-3.5l-1.6,3.5H50.4z"/>
			<path class="st1" d="M52.8,7.2v-4h0.8v3.9c0,1.5,0.8,2.3,2.1,2.3c1.3,0,2-0.8,2-2.2v-4h0.8v3.9c0,2-1.1,3-2.8,3
				C54,10.2,52.8,9.2,52.8,7.2z"/>
			<path class="st1" d="M59.9,3.3h0.8v4.1l3.9-4.1h1l-2.9,3l3,3.8h-1l-2.6-3.3l-1.4,1.5v1.8h-0.8V3.3z"/>
			<path class="st1" d="M66.5,3.3h4.9V4h-4.1v2.3H71V7h-3.7v2.4h4.2v0.7h-5V3.3z"/>
			<path class="st1" d="M72.2,9.1l0.5-0.6c0.7,0.6,1.4,1,2.3,1c0.9,0,1.5-0.5,1.5-1.2v0c0-0.6-0.3-1-1.8-1.3c-1.6-0.3-2.3-0.8-2.3-2
				v0c0-1.1,0.9-1.9,2.2-1.9c1,0,1.7,0.3,2.4,0.8l-0.4,0.6c-0.6-0.5-1.3-0.7-2-0.7c-0.9,0-1.4,0.5-1.4,1.1v0c0,0.6,0.4,1,1.8,1.3
				c1.5,0.3,2.2,0.9,2.2,1.9v0c0,1.2-1,1.9-2.3,1.9C73.9,10.2,73,9.8,72.2,9.1z"/>
			<path class="st1" d="M78.4,3.3h0.8v3h3.9v-3h0.8v6.8h-0.8V7h-3.9v3.1h-0.8V3.3z"/>
			<path class="st1" d="M87.6,3.2h0.7l3.1,6.8h-0.8l-0.8-1.8h-3.7l-0.8,1.8h-0.8L87.6,3.2z M89.5,7.6l-1.5-3.5l-1.6,3.5H89.5z"/>
			<path class="st1" d="M36.7,14.5L36.7,14.5c0-1,0.8-1.9,1.8-1.9c0.7,0,1.1,0.2,1.4,0.6l-0.3,0.3C39.4,13.2,39,13,38.5,13
				c-0.8,0-1.4,0.7-1.4,1.5v0c0,0.8,0.6,1.5,1.4,1.5c0.5,0,0.8-0.2,1.2-0.5l0.3,0.3c-0.4,0.4-0.8,0.6-1.4,0.6
				C37.5,16.4,36.7,15.5,36.7,14.5z"/>
			<path class="st1" d="M40.4,14.5L40.4,14.5c0-1,0.8-1.9,1.9-1.9c1.1,0,1.8,0.9,1.8,1.9v0c0,1-0.8,1.9-1.9,1.9
				C41.1,16.4,40.4,15.5,40.4,14.5z M43.7,14.5L43.7,14.5c0-0.8-0.6-1.5-1.4-1.5c-0.8,0-1.4,0.7-1.4,1.5v0c0,0.8,0.6,1.5,1.4,1.5
				C43.1,16,43.7,15.3,43.7,14.5z"/>
			<path class="st1" d="M44.8,14.8v-2.1h0.4v2.1c0,0.8,0.4,1.2,1.1,1.2c0.7,0,1.1-0.4,1.1-1.2v-2.1h0.4v2.1c0,1.1-0.6,1.6-1.5,1.6
				C45.4,16.3,44.8,15.8,44.8,14.8z"/>
			<path class="st1" d="M48.8,12.7h0.4l2.3,2.9v-2.9h0.4v3.6h-0.3l-2.3-3v3h-0.4V12.7z"/>
			<path class="st1" d="M53.8,13h-1.2v-0.4h2.8V13h-1.2v3.2h-0.4V13z"/>
			<path class="st1" d="M57.2,14.9l-1.5-2.2h0.5l1.2,1.8l1.2-1.8h0.5l-1.5,2.2v1.4h-0.4V14.9z"/>
			<path class="st1" d="M62.2,13H61v-0.4h2.8V13h-1.2v3.2h-0.4V13z"/>
			<path class="st1" d="M64.5,12.7h2.6V13H65v1.2h2v0.4h-2v1.3h2.2v0.4h-2.6V12.7z"/>
			<path class="st1" d="M67.8,14.5L67.8,14.5c0-1,0.8-1.9,1.8-1.9c0.7,0,1.1,0.2,1.4,0.6l-0.3,0.3c-0.3-0.3-0.6-0.5-1.1-0.5
				c-0.8,0-1.4,0.7-1.4,1.5v0c0,0.8,0.6,1.5,1.4,1.5c0.5,0,0.8-0.2,1.2-0.5l0.3,0.3c-0.4,0.4-0.8,0.6-1.4,0.6
				C68.6,16.4,67.8,15.5,67.8,14.5z"/>
			<path class="st1" d="M71.7,12.7h0.4v1.6h2.1v-1.6h0.4v3.6h-0.4v-1.6h-2.1v1.6h-0.4V12.7z"/>
			<path class="st1" d="M75.6,12.7H76l2.3,2.9v-2.9h0.4v3.6h-0.3l-2.3-3v3h-0.4V12.7z"/>
			<path class="st1" d="M79.7,12.7h0.4v3.6h-0.4V12.7z"/>
			<path class="st1" d="M80.9,14.5L80.9,14.5c0-1,0.8-1.9,1.8-1.9c0.7,0,1.1,0.2,1.4,0.6l-0.3,0.3c-0.3-0.3-0.6-0.5-1.1-0.5
				c-0.8,0-1.4,0.7-1.4,1.5v0c0,0.8,0.6,1.5,1.4,1.5c0.5,0,0.8-0.2,1.2-0.5l0.3,0.3c-0.4,0.4-0.8,0.6-1.4,0.6
				C81.7,16.4,80.9,15.5,80.9,14.5z"/>
			<path class="st1" d="M86.2,12.6h0.4l1.7,3.6h-0.4l-0.4-1h-2l-0.4,1h-0.4L86.2,12.6z M87.2,15l-0.8-1.8L85.6,15H87.2z"/>
			<path class="st1" d="M88.9,12.7h0.4v3.2h2v0.4h-2.4V12.7z"/>
			<path class="st1" d="M36.6,22.6L36.6,22.6c0-2.3,1.7-4.2,4.1-4.2c1.5,0,2.3,0.5,3.2,1.3l-0.6,0.7c-0.7-0.6-1.4-1.1-2.5-1.1
				c-1.8,0-3.1,1.5-3.1,3.3v0c0,1.9,1.4,3.3,3.1,3.3c1.1,0,1.8-0.4,2.6-1.2l0.6,0.6c-0.8,0.9-1.8,1.4-3.2,1.4
				C38.4,26.7,36.6,24.9,36.6,22.6z"/>
			<path class="st1" d="M44.8,22.6L44.8,22.6c0-2.3,1.7-4.2,4.1-4.2c2.5,0,4.1,1.9,4.1,4.2v0c0,2.2-1.7,4.2-4.1,4.2
				C46.5,26.7,44.8,24.8,44.8,22.6z M52.1,22.6L52.1,22.6c0-1.9-1.3-3.4-3.2-3.4c-1.8,0-3.2,1.5-3.2,3.3v0c0,1.8,1.3,3.3,3.2,3.3
				C50.8,25.9,52.1,24.4,52.1,22.6z"/>
			<path class="st1" d="M54.8,18.5h0.9v7.2h4.6v0.8h-5.5V18.5z"/>
			<path class="st1" d="M61.9,18.5h0.9v7.2h4.6v0.8h-5.5V18.5z"/>
			<path class="st1" d="M68.9,18.5h5.8v0.8h-4.9v2.8h4.4v0.8h-4.4v2.8h5v0.8h-5.9V18.5z"/>
			<path class="st1" d="M76.2,22.6L76.2,22.6c0-2.2,1.6-4.2,4.1-4.2c1.4,0,2.2,0.4,3,1.1l-0.6,0.7c-0.6-0.5-1.3-0.9-2.5-0.9
				c-1.8,0-3.1,1.5-3.1,3.3v0c0,1.9,1.2,3.4,3.2,3.4c0.9,0,1.8-0.4,2.3-0.8v-2h-2.5v-0.8h3.3v3.2c-0.8,0.7-1.9,1.2-3.2,1.2
				C77.7,26.7,76.2,24.9,76.2,22.6z"/>
			<path class="st1" d="M85.5,18.5h5.8v0.8h-4.9v2.8h4.4v0.8h-4.4v2.8h5v0.8h-5.9V18.5z"/>
		</g>
		<rect x="1" y="1" class="st2" width="28.8" height="28.1"/>
		<rect x="1.4" y="1.4" class="st0" width="28" height="27.2"/>
		<g>
			<path class="st2" d="M4.8,21.5h0.6l1.5,4.2l1.4-4.3h0.5l1.4,4.3l1.5-4.2h0.6l-1.8,5.1H9.9l-1.4-4.1l-1.4,4.1H6.6L4.8,21.5z"/>
			<path class="st2" d="M12.3,24L12.3,24c0-1.5,1.1-2.6,2.6-2.6c0.9,0,1.5,0.3,2,0.8l-0.4,0.4c-0.4-0.4-0.9-0.7-1.6-0.7
				c-1.1,0-2,0.9-2,2.1v0c0,1.2,0.9,2.1,2,2.1c0.7,0,1.2-0.3,1.6-0.7l0.4,0.4c-0.5,0.5-1.1,0.9-2,0.9C13.4,26.7,12.3,25.5,12.3,24z"
				/>
			<path class="st2" d="M19,22h-1.7v-0.5h4V22h-1.7v4.6H19V22z"/>
			<path class="st2" d="M21.4,24L21.4,24c0-1.5,1.1-2.6,2.6-2.6c0.9,0,1.5,0.3,2,0.8l-0.4,0.4c-0.4-0.4-0.9-0.7-1.6-0.7
				c-1.1,0-2,0.9-2,2.1v0c0,1.2,0.9,2.1,2,2.1c0.7,0,1.2-0.3,1.6-0.7l0.4,0.4c-0.5,0.5-1.1,0.9-2,0.9C22.5,26.7,21.4,25.5,21.4,24z"
				/>
		</g>
		<g>
			<polygon class="st3" points="6.4,17.9 8.2,17.9 8.2,11.1 6.4,11.8 			"/>
			<polygon class="st3" points="14.2,10.6 9.5,10.9 9.5,17.9 14.2,17.9 			"/>
			<g>
				<polygon class="st3" points="6.4,17.9 8.2,17.9 8.2,11.1 6.4,11.8 				"/>
				<polygon class="st3" points="9.5,17.9 14.2,17.9 14.2,10.6 9.5,10.9 				"/>
				<path class="st2" d="M22.6,8.8l-7-0.7l0,0V4.4l5.7,2.8l-5.7-3.8v0L6,10.3l2.6-1.5l7-0.7v0.9h0l-7,0.5l-2.9,1.2v7.5L5,18.3V19
					h3.7h6.8V8.9l7,0.5l2.9,1.2v-0.2L22.6,8.8z M8.2,17.9H6.4v-6.2l1.8-0.7V17.9z M14.2,17.9H9.5v-7.1l4.7-0.2V17.9z"/>
				<polygon class="st2" points="16.9,11.5 21.4,11.7 21.4,18.1 21.9,18.1 21.9,10.8 16.9,10.6 				"/>
				<polygon class="st2" points="23,11.7 24.6,12.3 24.6,18.1 24.9,18.1 24.9,11.7 23,10.9 				"/>
			</g>
		</g>
	</g>
	<g>
		<line class="st4" x1="100.6" y1="10.2" x2="100.6" y2="0.1"/>
		<line class="st4" x1="100.6" y1="29.9" x2="100.6" y2="19.3"/>
		<line class="st5" x1="105.5" y1="14.6" x2="100.6" y2="10.2"/>
		<line class="st5" x1="105.5" y1="14.7" x2="100.6" y2="19.1"/>
	</g>
	<g>
		<path class="st0" d="M113,12.4c0,0.2,0,0.3-0.4,0.3c-0.4,0-0.4,0-0.4-0.3V8.7c0-0.2,0-0.4-0.1-0.5c-0.1-0.1-1.2,0-1.2,0
			c-0.1,0.1-0.1,0.3-0.1,0.5v3.7c0,0.2-0.1,0.2-0.5,0.2c-0.4,0-0.4,0-0.4-0.2v-9c0-0.2,0.1-0.2,0.4-0.2c0.4,0,0.5,0.1,0.5,0.3v3.2
			c0,0.2,0,0.5,0.2,0.6c0.1,0,1,0.1,1.1,0c0.1-0.1,0.1-0.4,0.1-0.6V3.4c0-0.2,0.1-0.2,0.4-0.2c0.4,0,0.4,0,0.4,0.2V12.4z"/>
		<path class="st0" d="M117.1,12.5c0,0.1,0,0.1-0.4,0.1c-0.3,0-0.4,0-0.4-0.1c0-0.1,0-0.2-0.1-0.2c-0.1,0-0.1,0.4-0.6,0.4
			c-0.9,0-1.6-0.6-1.6-1.7V7.8c0-1,0.7-1.6,1.6-1.6c0.1,0,0.3,0,0.5,0.2c0.1,0.1,0.1,0.1,0.1-0.1c0-0.1,0.1-0.1,0.4-0.1
			c0.4,0,0.5,0,0.5,0.2V12.5z M116.2,10.9V7.8c0-0.4-0.3-0.8-0.7-0.8c-0.4,0-0.7,0.4-0.7,0.8v3.1c0,0.6,0.3,0.8,0.7,0.8
			C116,11.8,116.2,11.5,116.2,10.9z"/>
		<path class="st0" d="M121.3,12.5c0,0.1-0.1,0.1-0.4,0.1c-0.4,0-0.5,0-0.5-0.1V7.9c0-0.4-0.1-0.9-0.5-0.9c-0.5,0-0.9,0.3-0.9,0.8
			v4.7c0,0.1-0.1,0.1-0.5,0.1c-0.4,0-0.4,0-0.4-0.1V6.3c0-0.1,0-0.1,0.4-0.1c0.4,0,0.4,0,0.4,0.1c0,0.5,0,0.6,0.1,0.5
			c0.2-0.3,0.5-0.6,0.9-0.6c0.9,0,1.3,0.5,1.3,1.7V12.5z"/>
		<path class="st0" d="M125.3,12.6c0,0.1-0.2,0.1-0.5,0.1c-0.2,0-0.4,0-0.4-0.1c0-0.1,0-0.3-0.1-0.3c-0.1,0-0.1,0.4-0.6,0.4
			c-1.1,0-1.6-0.7-1.6-1.6V7.9c0-1,0.6-1.7,1.6-1.7c0.1,0,0.2,0.1,0.5,0.2c0.1,0,0.2,0,0.2-0.2V3.3c0-0.1,0.1-0.1,0.4-0.1
			c0.4,0,0.4,0,0.4,0.1V12.6z M124.4,10.9V7.8c0-0.4-0.3-0.8-0.7-0.8c-0.4,0-0.7,0.4-0.7,0.8v3.1c0,0.6,0.3,0.8,0.7,0.8
			C124.2,11.8,124.4,11.5,124.4,10.9z"/>
		<path class="st0" d="M129.2,11.1c0,0.9-0.6,1.6-1.5,1.6c-0.9,0-1.5-0.5-1.5-1.6c0-0.1,0.1-0.1,0.4-0.1c0.2,0,0.5,0,0.5,0.1
			c0,0.3,0.1,0.7,0.6,0.7c0.6,0,0.6-0.4,0.6-0.7c0-0.7-0.5-1.1-1-1.5c-0.6-0.4-1.1-0.9-1.1-1.7c0-0.7,0.3-1.6,1.4-1.6
			c1,0,1.4,0.9,1.4,1.6c0,0.1-0.1,0.1-0.5,0.1c-0.3,0-0.4,0-0.4-0.1c0-0.4-0.2-0.7-0.5-0.7c-0.4,0-0.6,0.4-0.6,0.7
			c0,0.5,0.4,0.8,0.9,1.2C128.6,9.4,129.2,10,129.2,11.1z"/>
		<path class="st0" d="M132.2,9.5c0,0.1,0,0.2-0.3,0.2c-0.9,0-0.9,0-1.7,0c-0.1,0-0.4-0.1-0.3-0.3c0-0.1,0-0.2,0-0.4
			c0-0.2,0.1-0.2,0.4-0.2c0.5,0,0.7,0,1.2,0c0.4,0,0.6,0.1,0.6,0.2C132.1,9.2,132.1,9.3,132.2,9.5z"/>
		<path class="st0" d="M136.2,11c0,1.2-0.7,1.7-1.6,1.7c-0.9,0-1.6-0.6-1.6-1.7V7.8c0-1,0.7-1.6,1.6-1.6c0.9,0,1.6,0.7,1.6,1.6V11z
			 M135.3,10.9V7.8c0-0.4-0.3-0.8-0.7-0.8c-0.4,0-0.7,0.4-0.7,0.8v3.1c0,0.6,0.3,0.8,0.7,0.8C135.1,11.8,135.3,11.5,135.3,10.9z"/>
		<path class="st0" d="M140.3,12.5c0,0.1-0.1,0.1-0.4,0.1c-0.4,0-0.5,0-0.5-0.1V7.9c0-0.4-0.1-0.9-0.5-0.9c-0.5,0-0.9,0.3-0.9,0.8
			v4.7c0,0.1-0.1,0.1-0.5,0.1c-0.4,0-0.4,0-0.4-0.1V6.3c0-0.1,0-0.1,0.4-0.1c0.4,0,0.4,0,0.4,0.1c0,0.5,0,0.6,0.1,0.5
			c0.2-0.3,0.5-0.6,0.9-0.6c0.9,0,1.3,0.5,1.3,1.7V12.5z"/>
		<path class="st0" d="M113.3,25.3c0,0.2,0,0.3-0.4,0.3c-0.4,0-0.4,0-0.4-0.3v-3.7c0-0.2,0-0.4-0.1-0.5c-0.1-0.1-1.2,0-1.2,0
			c-0.1,0.1-0.1,0.3-0.1,0.5v3.7c0,0.2-0.1,0.2-0.5,0.2c-0.4,0-0.4,0-0.4-0.2v-9c0-0.2,0.1-0.2,0.4-0.2c0.4,0,0.5,0.1,0.5,0.3v3.2
			c0,0.2,0,0.5,0.2,0.6c0.1,0,1,0.1,1.1,0c0.1-0.1,0.1-0.4,0.1-0.6v-3.3c0-0.2,0.1-0.2,0.4-0.2c0.4,0,0.4,0,0.4,0.2V25.3z"/>
		<path class="st0" d="M115.4,17.3c0,0.3,0,0.6-0.5,0.6c-0.3,0-0.6-0.3-0.6-0.7c0-0.3,0.1-0.6,0.6-0.6
			C115.2,16.7,115.4,17,115.4,17.3z M115.3,25.3c0,0.2,0,0.2-0.5,0.2c-0.4,0-0.4,0-0.4-0.2v-6.1c0-0.2,0.1-0.2,0.4-0.2
			c0.4,0,0.5,0,0.5,0.2V25.3z"/>
		<path class="st0" d="M117.8,28.3c-1,0-1.6-0.7-1.6-1.7c0-0.1,0.1-0.1,0.4-0.1c0.3,0,0.5,0,0.5,0.1c0,0.5,0.2,0.8,0.7,0.8
			c0.5,0,0.7-0.4,0.7-0.8v-0.9c0-0.3,0-0.3-0.1-0.3c-0.1,0.1-0.2,0.2-0.6,0.2c-0.8,0-1.6-0.6-1.6-1.6v-3.2c0-0.9,0.6-1.7,1.6-1.7
			c0.4,0,0.5,0.3,0.6,0.4c0.1,0,0.1-0.1,0.1-0.3c0-0.1,0-0.1,0.4-0.1c0.3,0,0.4,0,0.4,0.1v7.4C119.4,27.6,118.9,28.3,117.8,28.3z
			 M118.5,23.9v-3.1c0-0.4-0.3-0.8-0.7-0.8c-0.4,0-0.7,0.4-0.7,0.8v3.1c0,0.6,0.3,0.8,0.7,0.8C118.2,24.7,118.5,24.4,118.5,23.9z"/>
		<path class="st0" d="M123.6,25.5c0,0.1-0.2,0.1-0.4,0.1c-0.3,0-0.5,0-0.5-0.1v-4.7c0-0.4-0.3-0.8-0.7-0.8c-0.4,0-0.7,0.4-0.7,0.8
			v4.7c0,0.1-0.2,0.1-0.5,0.1c-0.2,0-0.4,0-0.4-0.1v-9.2c0-0.1,0.2-0.1,0.4-0.1c0.3,0,0.5,0,0.5,0.1V19c0,0.2,0.1,0.3,0.2,0.2
			c0.3-0.1,0.4-0.2,0.5-0.2c0.9,0,1.6,0.7,1.6,1.7V25.5z"/>
		<path class="st0" d="M127.6,23.9c0,1.2-0.7,1.7-1.6,1.7c-0.9,0-1.6-0.6-1.6-1.7v-3.2c0-1,0.7-1.6,1.6-1.6c0.9,0,1.6,0.7,1.6,1.6
			v1.7c0,0.1,0,0.2-0.3,0.2h-1.8c-0.1,0-0.1,0.1-0.1,0.2v1c0,0.5,0.3,0.8,0.7,0.8c0.4,0,0.7-0.3,0.7-0.8c0-0.1,0.1-0.1,0.5-0.1
			C127.6,23.8,127.6,23.8,127.6,23.9z M126.7,21.6v-0.9c0-0.4-0.3-0.8-0.7-0.8c-0.4,0-0.7,0.4-0.7,0.8v0.9c0,0.2,0.1,0.2,0.6,0.2
			C126.6,21.8,126.7,21.8,126.7,21.6z"/>
		<path class="st0" d="M130.6,19.6c0,0.3,0,0.4-0.1,0.4c-0.4,0-1,0.3-1,0.8v4.6c0,0.1-0.1,0.1-0.5,0.1c-0.3,0-0.4,0-0.4-0.1v-6.2
			c0-0.1,0.1-0.1,0.4-0.1c0.3,0,0.4,0,0.4,0.1c0,0.1,0,0.3,0,0.4c0,0.2,0,0.3,0.1,0.1c0.2-0.4,0.7-0.6,1-0.6
			C130.6,19.1,130.6,19.2,130.6,19.6z"/>
		<path class="st0" d="M136,25.2c0,0.3,0,0.4-0.2,0.4h-2c-0.2,0-0.4,0-0.5-0.1c-0.1-0.1-0.1-0.3-0.1-0.5v-8.5c0-0.2,0-0.2,0.1-0.3
			c0.1-0.1,0.2-0.1,0.3-0.1h2.2c0.2,0,0.2,0.2,0.2,0.4c0,0.3,0,0.4-0.2,0.4h-1.3c-0.1,0-0.3,0-0.3,0.1c-0.1,0.1-0.1,0.1-0.1,0.3v2.6
			c0,0.1,0,0.3,0.1,0.4c0.1,0.1,0.2,0.1,0.3,0.1h0.6c0.2,0,0.2,0.1,0.2,0.4c0,0.3,0,0.4-0.2,0.4h-0.6c-0.1,0-0.3,0-0.3,0
			c-0.1,0.1-0.1,0.2-0.1,0.4v2.9c0,0.2,0,0.4,0.1,0.5c0.1,0,0.3,0.1,0.4,0.1h1.3C136,24.8,136,24.9,136,25.2z"/>
		<path class="st0" d="M140,25.5c0,0.1-0.2,0.1-0.5,0.1c-0.2,0-0.4,0-0.4-0.1c0-0.1,0-0.3-0.1-0.3c-0.1,0-0.1,0.4-0.6,0.4
			c-1.1,0-1.6-0.7-1.6-1.6v-3.2c0-1,0.6-1.7,1.6-1.7c0.1,0,0.2,0.1,0.5,0.2c0.1,0,0.2,0,0.2-0.2v-2.8c0-0.1,0.1-0.1,0.4-0.1
			c0.4,0,0.4,0,0.4,0.1V25.5z M139.1,23.9v-3.1c0-0.4-0.3-0.8-0.7-0.8c-0.4,0-0.7,0.4-0.7,0.8v3.1c0,0.6,0.3,0.8,0.7,0.8
			C138.8,24.7,139.1,24.4,139.1,23.9z"/>
	</g>
</g>
</svg>
