<svg xmlns="http://www.w3.org/2000/svg" viewBox="0 0 290 235"><defs><style>.cls-1{fill:#76be5e;}.cls-2,.cls-3,.cls-4{fill:none;stroke-width:1.3px;}.cls-2,.cls-3{stroke:#b0bec5;}.cls-3{stroke-dasharray:9 6;}.cls-4{stroke:#fff;stroke-dasharray:8.88 6.22;}.cls-5{fill:#455a64;}</style></defs><title>Asset 4</title><g id="Layer_2" data-name="Layer 2"><g id="Layer_1-2" data-name="Layer 1"><path class="cls-1" d="M31.2,171.3,0,117.2,31.2,63.1H93.7l31.2,54.1L93.7,171.3Zm108.5,62.8L108.5,180l31.2-54.1h62.5L233.4,180l-31.2,54.1Z"/><path class="cls-2" d="M145.2,107.4h-5l-2.5-4.3"/><path class="cls-3" d="M134.6,97.7,113.5,61.2"/><path class="cls-2" d="M111.9,58.5l-2.5-4.3,2.5-4.3"/><path class="cls-3" d="M115,44.4,136.1,7.9"/><path class="cls-2" d="M137.7,5.2,140.2.9h5"/><path class="cls-3" d="M151.4.9h42.2"/><path class="cls-2" d="M196.7.9h5l2.5,4.3"/><path class="cls-4" d="M207.3,10.6l21.1,36.5"/><path class="cls-2" d="M230,49.8l2.5,4.3L230,58.4"/><path class="cls-4" d="M226.9,63.8l-21.1,36.5"/><path class="cls-2" d="M204.2,103.1l-2.5,4.3h-5"/><path class="cls-3" d="M190.5,107.4H148.3"/><path class="cls-5" d="M196.2,108.2,165,54.1,196.2,0h62.5l31.2,54.1-31.2,54.1Z"/></g></g></svg>
