<svg xmlns="http://www.w3.org/2000/svg" viewBox="0 0 290 280"><defs><style>.cls-1{fill:#76be5e;}.cls-2,.cls-3,.cls-4{fill:none;stroke-width:1.3px;}.cls-2,.cls-3{stroke:#b0bec5;}.cls-3{stroke-dasharray:9 6;}.cls-4{stroke:#fff;stroke-dasharray:8.88 6.22;}.cls-5{fill:#455a64;}</style></defs><title>Asset 3</title><g id="Layer_2" data-name="Layer 2"><g id="Layer_1-2" data-name="Layer 1"><path class="cls-1" d="M93.7,62.8l31.2,54.1L93.7,171H31.2L0,116.9,31.2,62.8ZM202.2,0l31.2,54.1-31.2,54.1H139.7L108.5,54.1,139.7,0Z"/><path class="cls-2" d="M137.7,131l2.5-4.3h5"/><path class="cls-3" d="M113.5,172.9l21.1-36.5"/><path class="cls-2" d="M111.9,184.2l-2.5-4.3,2.5-4.3"/><path class="cls-3" d="M136.2,226.2l-21.1-36.5"/><path class="cls-2" d="M145.2,233.2h-5l-2.5-4.3"/><path class="cls-3" d="M193.6,233.2H151.4"/><path class="cls-2" d="M204.2,228.9l-2.5,4.3h-5"/><path class="cls-4" d="M228.4,187l-21.1,36.5"/><path class="cls-2" d="M230,175.7l2.5,4.3-2.5,4.3"/><path class="cls-4" d="M205.8,133.8l21.1,36.5"/><path class="cls-2" d="M196.7,126.7h5l2.5,4.3"/><path class="cls-3" d="M148.3,126.7h42.2"/><path class="cls-5" d="M258.7,125.9,289.9,180l-31.2,54.1H196.2L165,180l31.2-54.1Z"/></g></g></svg>
