<svg xmlns="http://www.w3.org/2000/svg" viewBox="0 0 370 280"><defs><style>.cls-1,.cls-3,.cls-5{fill:none;stroke-width:1.3px;}.cls-1,.cls-5{stroke:#b0bec5;}.cls-2{fill:#76be5e;}.cls-3{stroke:#fff;stroke-dasharray:8.88 6.22;}.cls-4{fill:#455a64;}.cls-5{stroke-dasharray:9 6;}</style></defs><title>Asset 2</title><g id="Layer_2" data-name="Layer 2"><g id="Layer_1-2" data-name="Layer 1"><path class="cls-1" d="M308.5,171.6l2.5-2.5"/><path class="cls-2" d="M31.2,171.3,0,117.2,31.2,63.1H93.7l31.2,54.1L93.7,171.3Z"/><path class="cls-3" d="M207.3,10.6l21.1,36.5"/><path class="cls-3" d="M226.9,63.8l-21.1,36.5"/><path class="cls-4" d="M195.6,108.2,164.4,54.1,195.6,0h62.5l31.2,54.1-31.2,54.1Z"/><polygon class="cls-2" points="276.5 234.1 245.3 180 276.5 125.9 339 125.9 370.2 180 339 234.1 276.5 234.1"/><path class="cls-5" d="M98.7,171.3h31.9c16.4,0,31.2,62.8,49.3,62.8h94.6"/><path class="cls-5" d="M98.7,63.3h28.8c16.4,0,31.2,62.8,49.3,62.8h94.4"/></g></g></svg>
